<?xml version="1.0" standalone="no"?>
<!DOCTYPE svg PUBLIC "-//W3C//DTD SVG 1.1//EN" "http://www.w3.org/Graphics/SVG/1.1/DTD/svg11.dtd" >
<svg>
<metadata>
Created by FontForge 20090622 at Tue Nov 15 08:00:05 2016
 By deploy user
Copyright (c) 2016 by Typetype. Designer Ivan Gladkikh, technical designers Olga Yumartova, Olexa Volochay. All rights reserved.
</metadata>
<defs>
<font id="TTLakesCondensed-Bold" horiz-adv-x="525" >
  <font-face 
    font-family="TT Lakes Condensed"
    font-weight="700"
    font-stretch="condensed"
    units-per-em="1000"
    panose-1="2 0 8 3 3 0 0 2 0 4"
    ascent="800"
    descent="-200"
    x-height="510"
    cap-height="700"
    bbox="-114.684 -335 1130 990"
    underline-thickness="50"
    underline-position="-50"
    unicode-range="U+000D-U+F6D4"
  />
<missing-glyph horiz-adv-x="0" 
 />
    <glyph glyph-name=".notdef" horiz-adv-x="0" 
 />
    <glyph glyph-name=".null" horiz-adv-x="0" 
 />
    <glyph glyph-name=".null" horiz-adv-x="0" 
 />
    <glyph glyph-name="nonmarkingreturn" horiz-adv-x="333" 
 />
    <glyph glyph-name="CR" unicode="&#xd;" horiz-adv-x="0" 
 />
    <glyph glyph-name="space" unicode=" " horiz-adv-x="200" 
 />
    <glyph glyph-name="exclam" unicode="!" horiz-adv-x="280" 
d="M100 135h80q25 0 25 -25v-85q0 -25 -25 -25h-80q-25 0 -25 25v85q0 25 25 25zM215 675v-265l-25 -170q-3 -25 -30 -25h-40q-27 0 -30 25l-25 170v265q0 25 25 25h100q25 0 25 -25z" />
    <glyph glyph-name="quotedbl" unicode="&#x22;" horiz-adv-x="370" 
d="M230 700h60q25 0 25 -25v-190q0 -25 -25 -25h-60q-25 0 -25 25v190q0 25 25 25zM80 700h60q25 0 25 -25v-190q0 -25 -25 -25h-60q-25 0 -25 25v190q0 25 25 25z" />
    <glyph glyph-name="numbersign" unicode="#" horiz-adv-x="625" 
d="M100 550h75l30 125q4 15 10.5 20t24.5 5h85q12 0 15.5 -5t-0.5 -20l-30 -125h90l30 125q4 15 9 20t16 5h95q12 0 15.5 -5t-0.5 -20l-30 -125h45q25 0 25 -25v-75q0 -25 -25 -25h-70l-35 -150h50q25 0 25 -25v-75q0 -25 -25 -25h-75l-30 -125q-4 -15 -10.5 -20t-24.5 -5
h-85q-12 0 -15.5 5t0.5 20l30 125h-90l-30 -125q-4 -15 -9 -20t-16 -5h-95q-12 0 -15.5 5t0.5 20l30 125h-45q-25 0 -25 25v75q0 25 25 25h70l35 150h-50q-25 0 -25 25v75q0 25 25 25zM285 425l-35 -150h90l35 150h-90z" />
    <glyph glyph-name="dollar" unicode="$" horiz-adv-x="615" 
d="M420 175v30q0 18 -8 27.5t-27 17.5l-220 85q-59 23 -84.5 55.5t-25.5 94.5v70q0 155 155 155h195q155 0 155 -155v-65q0 -25 -25 -25h-100q-25 0 -25 25v35q0 23 -14 36.5t-36 13.5h-105q-23 0 -36.5 -13.5t-13.5 -36.5v-30q0 -18 8 -27.5t27 -17.5l220 -85
q59 -23 84.5 -55.5t25.5 -94.5v-70q0 -155 -155 -155h-35v-55q0 -25 -25 -25h-90q-25 0 -25 25v55h-40q-155 0 -155 155v65q0 25 25 25h100q25 0 25 -25v-35q0 -23 13.5 -36.5t36.5 -13.5h125q22 0 36 13.5t14 36.5zM380 710h-140v55q0 25 25 25h90q25 0 25 -25v-55z" />
    <glyph glyph-name="percent" unicode="%" horiz-adv-x="750" 
d="M180 25l250 650q10 25 40 25h85q8 0 13.5 -7.5t1.5 -17.5l-250 -650q-10 -25 -40 -25h-85q-8 0 -13.5 7.5t-1.5 17.5zM30 480v120q0 60 25 85t85 25h50q60 0 85 -25t25 -85v-120q0 -60 -25 -85t-85 -25h-50q-60 0 -85 25t-25 85zM130 580v-80q0 -19 8 -27t27 -8t27 8
t8 27v80q0 19 -8 27t-27 8t-27 -8t-8 -27zM720 220v-120q0 -60 -25 -85t-85 -25h-50q-60 0 -85 25t-25 85v120q0 60 25 85t85 25h50q60 0 85 -25t25 -85zM620 120v80q0 19 -8 27t-27 8t-27 -8t-8 -27v-80q0 -19 8 -27t27 -8t27 8t8 27z" />
    <glyph glyph-name="ampersand" unicode="&#x26;" horiz-adv-x="615" 
d="M275 435l150 -175l40 45q13 17 30 0l60 -60q14 -14 0 -30l-45 -50l125 -140q7 -8 2 -16.5t-17 -8.5h-120q-33 0 -55 25l-30 35q-6 -8 -17.5 -19.5t-49 -31t-78.5 -19.5h-70q-155 0 -155 155v72q0 37 10.5 65.5t25 42.5t29 22.5t24.5 10.5l11 2v10q-2 1 -5.5 3.5t-12 12
t-15 20.5t-12 29.5t-5.5 39.5v80q0 155 155 155h95q155 0 155 -155v-45q0 -25 -25 -25h-90q-25 0 -25 25v15q0 23 -14 36.5t-36 13.5h-15q-23 0 -36.5 -13.5t-13.5 -36.5v-30q0 -25 30 -60zM240 125h30q16 0 31 8.5t22 17.5l7 9l-100 115q-4 -1 -11 -3t-18 -14.5t-11 -32.5
v-50q0 -23 14 -36.5t36 -13.5z" />
    <glyph glyph-name="quotesingle" unicode="'" horiz-adv-x="220" 
d="M80 700h60q25 0 25 -25v-190q0 -25 -25 -25h-60q-25 0 -25 25v190q0 25 25 25z" />
    <glyph glyph-name="parenleft" unicode="(" horiz-adv-x="360" 
d="M75 5v550q0 175 175 175h55q25 0 25 -25v-80q0 -25 -25 -25h-20q-30 0 -47.5 -17.5t-17.5 -47.5v-510q0 -30 17.5 -47.5t47.5 -17.5h20q25 0 25 -25v-80q0 -25 -25 -25h-55q-175 0 -175 175z" />
    <glyph glyph-name="parenright" unicode=")" horiz-adv-x="360" 
d="M285 555v-550q0 -175 -175 -175h-55q-25 0 -25 25v80q0 25 25 25h20q30 0 47.5 17.5t17.5 47.5v510q0 30 -17.5 47.5t-47.5 17.5h-20q-25 0 -25 25v80q0 25 25 25h55q175 0 175 -175z" />
    <glyph glyph-name="asterisk" unicode="*" horiz-adv-x="375" 
d="M165 700h45q25 0 25 -25v-75h80q25 0 25 -25v-45q0 -25 -25 -25h-50l45 -50q16 -19 0 -35l-35 -35q-8 -8 -18 -8t-17 8l-53 60l-52 -60q-17 -18 -35 0l-35 35q-17 17 0 35l45 50h-50q-25 0 -25 25v45q0 25 25 25h80v75q0 25 25 25z" />
    <glyph glyph-name="plus" unicode="+" horiz-adv-x="440" 
d="M280 255v-120q0 -25 -25 -25h-70q-25 0 -25 25v120h-110q-25 0 -25 25v70q0 25 25 25h110v120q0 25 25 25h70q25 0 25 -25v-120h110q25 0 25 -25v-70q0 -25 -25 -25h-110z" />
    <glyph glyph-name="comma" unicode="," horiz-adv-x="200" 
d="M165 110v-75q0 -11 -1.5 -19.5t-2.5 -11.5t-5.5 -12t-5.5 -12l-30 -70q-8 -20 -30 -20h-20q-23 0 -15 20l35 90h-30q-25 0 -25 25v85q0 25 25 25h80q25 0 25 -25z" />
    <glyph glyph-name="hyphen" unicode="-" horiz-adv-x="395" 
d="M345 250h-295q-25 0 -25 25v75q0 25 25 25h295q25 0 25 -25v-75q0 -25 -25 -25z" />
    <glyph glyph-name="period" unicode="." horiz-adv-x="200" 
d="M60 135h80q25 0 25 -25v-85q0 -25 -25 -25h-80q-25 0 -25 25v85q0 25 25 25z" />
    <glyph glyph-name="slash" unicode="/" horiz-adv-x="389" 
d="M22 25l195 650q8 25 35 25h100q8 0 13.5 -7t1.5 -18l-195 -650q-8 -25 -35 -25h-100q-8 0 -13.5 7t-1.5 18z" />
    <glyph glyph-name="zero" unicode="0" horiz-adv-x="640" 
d="M575 555v-410q0 -155 -155 -155h-200q-155 0 -155 155v410q0 155 155 155h200q155 0 155 -155zM425 175v350q0 23 -13.5 36.5t-36.5 13.5h-110q-23 0 -36.5 -13.5t-13.5 -36.5v-350q0 -23 13.5 -36.5t36.5 -13.5h110q23 0 36.5 13.5t13.5 36.5z" />
    <glyph glyph-name="one" unicode="1" horiz-adv-x="355" 
d="M130 25v540h-95q-25 0 -25 25v85q0 25 25 25h220q25 0 25 -25v-650q0 -25 -25 -25h-100q-25 0 -25 25z" />
    <glyph glyph-name="two" unicode="2" horiz-adv-x="575" 
d="M85 170l255 255q21 21 28 33.5t7 36.5v30q0 23 -13.5 36.5t-36.5 13.5h-70q-23 0 -36.5 -13.5t-13.5 -36.5v-35q0 -25 -25 -25h-100q-25 0 -25 25v65q0 155 155 155h160q155 0 155 -155v-80q0 -30 -11.5 -57t-23.5 -41t-35 -37l-195 -195v-10h240q25 0 25 -25v-85
q0 -25 -25 -25h-425q-25 0 -25 25v70q0 28 7 41t28 34z" />
    <glyph glyph-name="three" unicode="3" horiz-adv-x="570" 
d="M175 330v42q0 33 20 53l125 130v10h-240q-25 0 -25 25v85q0 25 25 25h405q25 0 25 -25v-60q0 -14 -3.5 -24.5t-8 -16t-13.5 -14.5l-125 -130v-10q82 0 121 -38t39 -117v-120q0 -155 -155 -155h-175q-83 0 -119 37.5t-36 117.5v60q0 25 25 25h100q25 0 25 -25v-30
q0 -23 13.5 -36.5t36.5 -13.5h85q22 0 36 13.5t14 36.5v80q0 23 -14 36.5t-36 13.5h-120q-25 0 -25 25z" />
    <glyph glyph-name="four" unicode="4" horiz-adv-x="565" 
d="M540 265v-85q0 -25 -25 -25h-40v-130q0 -25 -25 -25h-100q-25 0 -25 25v130h-285q-25 0 -25 25v70q0 18 3.5 26t16.5 29l235 370q9 13 18.5 19t31.5 6h130q25 0 25 -25v-385h40q25 0 25 -25zM315 520l-140 -220v-10h150v230h-10z" />
    <glyph glyph-name="five" unicode="5" horiz-adv-x="580" 
d="M225 565v-125h150q155 0 155 -155v-140q0 -155 -155 -155h-170q-155 0 -155 155v55q0 25 25 25h100q25 0 25 -25v-25q0 -23 14 -36.5t36 -13.5h80q22 0 36 13.5t14 36.5v80q0 23 -14 36.5t-36 13.5h-230q-25 0 -25 25v345q0 25 25 25h380q25 0 25 -25v-85q0 -25 -25 -25
h-255z" />
    <glyph glyph-name="six" unicode="6" horiz-adv-x="595" 
d="M530 555v-50q0 -25 -25 -25h-100q-25 0 -25 25v20q0 23 -14 36.5t-36 13.5h-65q-23 0 -36.5 -13.5t-13.5 -36.5v-100h170q155 0 155 -155v-125q0 -155 -155 -155h-165q-155 0 -155 155v410q0 155 155 155h155q155 0 155 -155zM265 125h75q22 0 36 13.5t14 36.5v65
q0 22 -14 36t-36 14h-125v-115q0 -23 13.5 -36.5t36.5 -13.5z" />
    <glyph glyph-name="seven" unicode="7" horiz-adv-x="500" 
d="M480 675v-50q0 -16 -1 -27.5t-3 -20.5t-3 -13t-4 -10.5t-4 -8.5l-195 -520q-10 -25 -30 -25h-110q-8 0 -13.5 7.5t-1.5 17.5l200 530v10h-270q-25 0 -25 25v85q0 25 25 25h410q25 0 25 -25z" />
    <glyph glyph-name="eight" unicode="8" horiz-adv-x="605" 
d="M540 555v-85q0 -25 -8 -44.5t-20 -29.5t-24 -16.5t-20 -7.5l-8 -2v-10q4 0 10 -1.5t21.5 -9t27.5 -19.5t21.5 -35.5t9.5 -54.5v-95q0 -155 -155 -155h-185q-155 0 -155 155v95q0 31 9.5 54.5t22.5 35.5t26 19.5t23 8.5l9 2v10q-3 0 -8.5 1.5t-19.5 8t-24.5 16.5t-19 29.5
t-8.5 44.5v85q0 155 155 155h165q155 0 155 -155zM350 290h-95q-23 0 -36.5 -14t-13.5 -36v-65q0 -23 13.5 -36.5t36.5 -13.5h95q22 0 36 13.5t14 36.5v65q0 22 -14 36t-36 14zM340 575h-75q-23 0 -36.5 -13.5t-13.5 -36.5v-55q0 -22 13.5 -36t36.5 -14h75q22 0 36 14t14 36
v55q0 23 -14 36.5t-36 13.5z" />
    <glyph glyph-name="nine" unicode="9" horiz-adv-x="595" 
d="M65 145v50q0 25 25 25h100q25 0 25 -25v-20q0 -23 13.5 -36.5t36.5 -13.5h65q22 0 36 13.5t14 36.5v100h-170q-155 0 -155 155v125q0 155 155 155h165q155 0 155 -155v-410q0 -155 -155 -155h-155q-155 0 -155 155zM330 575h-75q-23 0 -36.5 -13.5t-13.5 -36.5v-65
q0 -22 13.5 -36t36.5 -14h125v115q0 23 -14 36.5t-36 13.5z" />
    <glyph glyph-name="colon" unicode=":" horiz-adv-x="200" 
d="M60 135h80q25 0 25 -25v-85q0 -25 -25 -25h-80q-25 0 -25 25v85q0 25 25 25zM60 510h80q25 0 25 -25v-85q0 -25 -25 -25h-80q-25 0 -25 25v85q0 25 25 25z" />
    <glyph glyph-name="semicolon" unicode=";" horiz-adv-x="200" 
d="M165 110v-75q0 -11 -1.5 -19.5t-2.5 -11.5t-5.5 -12t-5.5 -12l-30 -70q-8 -20 -30 -20h-20q-23 0 -15 20l35 90h-30q-25 0 -25 25v85q0 25 25 25h80q25 0 25 -25zM60 510h80q25 0 25 -25v-85q0 -25 -25 -25h-80q-25 0 -25 25v85q0 25 25 25z" />
    <glyph glyph-name="less" unicode="&#x3c;" horiz-adv-x="460" 
d="M30 220v60q0 22 25 35l350 175q11 6 18 1.5t7 -16.5v-80q0 -23 -25 -35l-215 -105v-10l215 -105q25 -12 25 -35v-80q0 -12 -7 -16.5t-18 1.5l-350 175q-25 13 -25 35z" />
    <glyph glyph-name="equal" unicode="=" horiz-adv-x="400" 
d="M340 350h-280q-25 0 -25 25v70q0 25 25 25h280q25 0 25 -25v-70q0 -25 -25 -25zM340 140h-280q-25 0 -25 25v70q0 25 25 25h280q25 0 25 -25v-70q0 -25 -25 -25z" />
    <glyph glyph-name="greater" unicode="&#x3e;" horiz-adv-x="460" 
d="M430 280v-60q0 -22 -25 -35l-350 -175q-11 -6 -18 -1.5t-7 16.5v80q0 23 25 35l215 105v10l-215 105q-25 12 -25 35v80q0 12 7 16.5t18 -1.5l350 -175q25 -13 25 -35z" />
    <glyph glyph-name="question" unicode="?" horiz-adv-x="550" 
d="M30 510v45q0 155 155 155h165q155 0 155 -155v-135q0 -155 -155 -155h-30l-5 -25q-5 -25 -30 -25h-40q-27 0 -30 25l-20 120v10q0 25 25 25h85q23 0 36.5 13.5t13.5 36.5v80q0 23 -13.5 36.5t-36.5 13.5h-75q-22 0 -36 -13.5t-14 -36.5v-15q0 -25 -25 -25h-100
q-25 0 -25 25zM225 135h80q25 0 25 -25v-85q0 -25 -25 -25h-80q-25 0 -25 25v85q0 25 25 25z" />
    <glyph glyph-name="at" unicode="@" horiz-adv-x="895" 
d="M400 325v-130q0 -30 30 -30h40q30 0 30 30v130q0 30 -30 30h-40q-30 0 -30 -30zM675 55h-140q-25 0 -25 25v5h-10q-1 -4 -3 -10t-17.5 -15.5t-39.5 -9.5h-50q-52 0 -81 29t-29 81v200q0 52 29 81t81 29h40q24 0 39 -9t18 -17l3 -9h10v5q0 25 25 25h70q25 0 25 -25v-270
h40q22 0 36 14t14 36v310q0 22 -14 36t-36 14h-415q-23 0 -36.5 -14t-13.5 -36v-540q0 -22 13.5 -36t36.5 -14h460q25 0 25 -25v-65q0 -25 -25 -25h-475q-155 0 -155 155v560q0 155 155 155h445q155 0 155 -155v-330q0 -155 -155 -155z" />
    <glyph glyph-name="A" unicode="A" horiz-adv-x="614" 
d="M417 145h-220l-35 -120q-7 -25 -35 -25h-110q-10 0 -14.5 7t-0.5 18l210 650q8 25 35 25h120q27 0 35 -25l210 -650q4 -11 -1 -18t-14 -7h-110q-27 0 -35 25zM237 280h140l-65 220h-10z" />
    <glyph glyph-name="B" unicode="B" horiz-adv-x="645" 
d="M75 25v650q0 25 25 25h310q155 0 155 -155v-65q0 -38 -16.5 -63t-32.5 -31l-16 -6v-10q4 -1 11 -2.5t24 -9.5t30 -20t24 -35.5t11 -52.5v-95q0 -155 -155 -155h-345q-25 0 -25 25zM225 135h175q22 0 36 13.5t14 36.5v65q0 22 -14 36t-36 14h-175v-165zM365 565h-140v-135
h140q23 0 36.5 14t13.5 36v35q0 23 -13.5 36.5t-36.5 13.5z" />
    <glyph glyph-name="C" unicode="C" horiz-adv-x="660" 
d="M610 555v-65q0 -25 -25 -25h-100q-25 0 -25 25v35q0 23 -14 36.5t-36 13.5h-145q-23 0 -36.5 -13.5t-13.5 -36.5v-350q0 -23 13.5 -36.5t36.5 -13.5h145q22 0 36 13.5t14 36.5v35q0 25 25 25h100q25 0 25 -25v-65q0 -155 -155 -155h-235q-155 0 -155 155v410
q0 155 155 155h235q155 0 155 -155z" />
    <glyph glyph-name="D" unicode="D" horiz-adv-x="685" 
d="M100 700h365q155 0 155 -155v-390q0 -155 -155 -155h-365q-25 0 -25 25v650q0 25 25 25zM225 565v-430h195q22 0 36 13.5t14 36.5v330q0 23 -14 36.5t-36 13.5h-195z" />
    <glyph glyph-name="E" unicode="E" horiz-adv-x="595" 
d="M225 290v-155h320q25 0 25 -25v-85q0 -25 -25 -25h-445q-25 0 -25 25v650q0 25 25 25h435q25 0 25 -25v-85q0 -25 -25 -25h-310v-140h235q25 0 25 -25v-85q0 -25 -25 -25h-235z" />
    <glyph glyph-name="F" unicode="F" horiz-adv-x="580" 
d="M225 260v-235q0 -25 -25 -25h-100q-25 0 -25 25v650q0 25 25 25h440q25 0 25 -25v-85q0 -25 -25 -25h-315v-170h205q25 0 25 -25v-85q0 -25 -25 -25h-205z" />
    <glyph glyph-name="G" unicode="G" horiz-adv-x="675" 
d="M610 365v-220q0 -155 -155 -155h-235q-155 0 -155 155v410q0 155 155 155h235q155 0 155 -155v-65q0 -25 -25 -25h-100q-25 0 -25 25v35q0 23 -14 36.5t-36 13.5h-145q-23 0 -36.5 -13.5t-13.5 -36.5v-350q0 -23 13.5 -36.5t36.5 -13.5h145q22 0 36 13.5t14 36.5v80h-95
q-25 0 -25 25v85q0 25 25 25h220q25 0 25 -25z" />
    <glyph glyph-name="H" unicode="H" horiz-adv-x="685" 
d="M225 675v-260h235v260q0 25 25 25h100q25 0 25 -25v-650q0 -25 -25 -25h-100q-25 0 -25 25v255h-235v-255q0 -25 -25 -25h-100q-25 0 -25 25v650q0 25 25 25h100q25 0 25 -25z" />
    <glyph glyph-name="I" unicode="I" horiz-adv-x="300" 
d="M225 675v-650q0 -25 -25 -25h-100q-25 0 -25 25v650q0 25 25 25h100q25 0 25 -25z" />
    <glyph glyph-name="J" unicode="J" horiz-adv-x="605" 
d="M530 675v-530q0 -155 -155 -155h-190q-155 0 -155 155v85q0 25 25 25h100q25 0 25 -25v-55q0 -23 14 -36.5t36 -13.5h100q22 0 36 13.5t14 36.5v500q0 25 25 25h100q25 0 25 -25z" />
    <glyph glyph-name="K" unicode="K" horiz-adv-x="618" 
d="M225 675v-240h95l110 240q12 25 35 25h110q10 0 15 -7t0 -18l-140 -305l160 -345q5 -11 -1.5 -18t-18.5 -7h-100q-28 0 -40 25l-125 275h-100v-275q0 -25 -25 -25h-100q-25 0 -25 25v650q0 25 25 25h100q25 0 25 -25z" />
    <glyph glyph-name="L" unicode="L" horiz-adv-x="550" 
d="M225 675v-540h300q25 0 25 -25v-85q0 -25 -25 -25h-425q-25 0 -25 25v650q0 25 25 25h100q25 0 25 -25z" />
    <glyph glyph-name="M" unicode="M" horiz-adv-x="860" 
d="M460 0h-60q-27 0 -35 25l-130 380h-10v-380q0 -25 -25 -25h-100q-25 0 -25 25v650q0 25 25 25h140q27 0 35 -25l150 -430h10l150 430q8 25 35 25h140q25 0 25 -25v-650q0 -25 -25 -25h-100q-25 0 -25 25v380h-10l-130 -380q-8 -25 -35 -25z" />
    <glyph glyph-name="N" unicode="N" horiz-adv-x="700" 
d="M465 265h10v410q0 25 25 25h100q25 0 25 -25v-650q0 -25 -25 -25h-125q-22 0 -35 25l-205 410h-10v-410q0 -25 -25 -25h-100q-25 0 -25 25v650q0 25 25 25h125q22 0 35 -25z" />
    <glyph glyph-name="O" unicode="O" horiz-adv-x="685" 
d="M620 555v-410q0 -155 -155 -155h-245q-155 0 -155 155v410q0 155 155 155h245q155 0 155 -155zM470 175v350q0 23 -14 36.5t-36 13.5h-155q-23 0 -36.5 -13.5t-13.5 -36.5v-350q0 -23 13.5 -36.5t36.5 -13.5h155q22 0 36 13.5t14 36.5z" />
    <glyph glyph-name="P" unicode="P" horiz-adv-x="650" 
d="M440 205h-215v-180q0 -25 -25 -25h-100q-25 0 -25 25v650q0 25 25 25h340q155 0 155 -155v-185q0 -155 -155 -155zM395 565h-170v-225h170q23 0 36.5 14t13.5 36v125q0 23 -13.5 36.5t-36.5 13.5z" />
    <glyph glyph-name="Q" unicode="Q" horiz-adv-x="688" 
d="M620 555v-410q0 -16 -1 -28.5t-3 -16.5l-1 -5l80 -85q17 -18 0 -35l-70 -65q-8 -8 -18 -8t-17 8l-80 85q-20 -5 -45 -5h-245q-155 0 -155 155v410q0 155 155 155h247q78 0 115.5 -38t37.5 -117zM470 175v350q0 23 -14 36.5t-36 13.5h-155q-23 0 -36.5 -13.5t-13.5 -36.5
v-350q0 -23 13.5 -36.5t36.5 -13.5h155q22 0 36 13.5t14 36.5z" />
    <glyph glyph-name="R" unicode="R" horiz-adv-x="658" 
d="M600 375q0 -38 -10 -66.5t-24 -43t-27.5 -23t-23.5 -10.5l-10 -2l100 -205q5 -10 -0.5 -17.5t-14.5 -7.5h-108q-25 0 -37 25l-90 195h-130v-195q0 -25 -25 -25h-100q-25 0 -25 25v650q0 25 25 25h345q155 0 155 -155v-170zM400 565h-175v-210h175q22 0 36 13.5t14 36.5
v110q0 23 -14 36.5t-36 13.5z" />
    <glyph glyph-name="S" unicode="S" horiz-adv-x="615" 
d="M420 175v30q0 18 -8 27.5t-27 17.5l-220 85q-59 23 -84.5 55.5t-25.5 94.5v70q0 155 155 155h195q155 0 155 -155v-65q0 -25 -25 -25h-100q-25 0 -25 25v35q0 23 -14 36.5t-36 13.5h-105q-23 0 -36.5 -13.5t-13.5 -36.5v-30q0 -18 8 -27.5t27 -17.5l220 -85
q59 -23 84.5 -55.5t25.5 -94.5v-70q0 -155 -155 -155h-215q-155 0 -155 155v65q0 25 25 25h100q25 0 25 -25v-35q0 -23 13.5 -36.5t36.5 -13.5h125q22 0 36 13.5t14 36.5z" />
    <glyph glyph-name="T" unicode="T" horiz-adv-x="540" 
d="M345 565v-540q0 -25 -25 -25h-100q-25 0 -25 25v540h-160q-25 0 -25 25v85q0 25 25 25h470q25 0 25 -25v-85q0 -25 -25 -25h-160z" />
    <glyph glyph-name="U" unicode="U" horiz-adv-x="685" 
d="M75 145v530q0 25 25 25h100q25 0 25 -25v-500q0 -23 13.5 -36.5t36.5 -13.5h135q22 0 36 13.5t14 36.5v500q0 25 25 25h100q25 0 25 -25v-530q0 -155 -155 -155h-225q-155 0 -155 155z" />
    <glyph glyph-name="V" unicode="V" horiz-adv-x="594" 
d="M162 675l130 -410h10l130 410q7 25 35 25h110q9 0 14 -7t1 -18l-225 -650q-8 -25 -35 -25h-70q-27 0 -35 25l-225 650q-4 11 0.5 18t14.5 7h110q27 0 35 -25z" />
    <glyph glyph-name="W" unicode="W" horiz-adv-x="824" 
d="M417 425h-10l-90 -400q-5 -25 -35 -25h-70q-28 0 -35 25l-165 650q-3 11 1.5 18t13.5 7h105q30 0 35 -25l85 -370h10l80 370q5 25 35 25h70q30 0 35 -25l80 -370h10l85 370q5 25 35 25h105q22 0 15 -25l-165 -650q-7 -25 -35 -25h-70q-30 0 -35 25z" />
    <glyph glyph-name="X" unicode="X" horiz-adv-x="576" 
d="M283 490h10l95 185q13 25 40 25h110q12 0 16.5 -7t-1.5 -18l-170 -305l190 -345q5 -11 0 -18t-15 -7h-115q-27 0 -40 25l-110 220h-10l-110 -220q-13 -25 -40 -25h-115q-10 0 -15.5 7t0.5 18l190 345l-170 305q-6 11 -1.5 18t16.5 7h110q27 0 40 -25z" />
    <glyph glyph-name="Y" unicode="Y" horiz-adv-x="578" 
d="M164 675l120 -260h10l120 260q12 25 40 25h110q12 0 16.5 -7t-1.5 -18l-215 -435v-215q0 -25 -25 -25h-100q-25 0 -25 25v215l-215 435q-6 11 -1.5 18t16.5 7h110q28 0 40 -25z" />
    <glyph glyph-name="Z" unicode="Z" horiz-adv-x="565" 
d="M350 555v10h-285q-25 0 -25 25v85q0 25 25 25h440q25 0 25 -25v-85q0 -40 -20 -65l-300 -380v-10h300q25 0 25 -25v-85q0 -25 -25 -25h-455q-25 0 -25 25v85q0 40 20 65z" />
    <glyph glyph-name="bracketleft" unicode="[" horiz-adv-x="345" 
d="M220 600v-640h75q25 0 25 -25v-80q0 -25 -25 -25h-195q-25 0 -25 25v850q0 25 25 25h195q25 0 25 -25v-80q0 -25 -25 -25h-75z" />
    <glyph glyph-name="backslash" unicode="\" horiz-adv-x="389" 
d="M172 675l195 -650q4 -11 -1.5 -18t-13.5 -7h-100q-27 0 -35 25l-195 650q-4 11 1.5 18t13.5 7h100q27 0 35 -25z" />
    <glyph glyph-name="bracketright" unicode="]" horiz-adv-x="345" 
d="M125 -40v640h-75q-25 0 -25 25v80q0 25 25 25h195q25 0 25 -25v-850q0 -25 -25 -25h-195q-25 0 -25 25v80q0 25 25 25h75z" />
    <glyph glyph-name="asciicircum" unicode="^" horiz-adv-x="464" 
d="M227 530l-65 -170q-10 -25 -35 -25h-80q-12 0 -18 7t-2 18l130 315q10 25 35 25h80q25 0 35 -25l130 -315q4 -11 -2 -18t-18 -7h-80q-25 0 -35 25l-65 170h-10z" />
    <glyph glyph-name="underscore" unicode="_" horiz-adv-x="345" 
d="M320 -210h-295q-25 0 -25 25v75q0 25 25 25h295q25 0 25 -25v-75q0 -25 -25 -25z" />
    <glyph glyph-name="grave" unicode="`" horiz-adv-x="241" 
d="M109 545l-75 130q-6 11 -1.5 18t16.5 7h80q27 0 35 -25l45 -130q4 -11 -0.5 -18t-14.5 -7h-50q-20 0 -35 25z" />
    <glyph glyph-name="a" unicode="a" horiz-adv-x="495" 
d="M260 400h-35q-19 0 -27 -8t-8 -27q0 -25 -25 -25h-80q-25 0 -25 25v25q0 60 35 95t95 35h115q60 0 95 -35t35 -95v-365q0 -25 -25 -25h-80q-25 0 -25 25v15h-10q-1 -2 -2 -5.5t-7.5 -12t-15 -15t-24.5 -12t-36 -5.5h-40q-60 0 -95 35t-35 95v55q0 60 35 95t95 35h135v50
q0 45 -45 45zM170 160v-15q0 -45 45 -45h35q55 0 55 55v50h-90q-45 0 -45 -45z" />
    <glyph glyph-name="b" unicode="b" 
d="M340 0h-250q-25 0 -25 25v650q0 25 25 25h80q25 0 25 -25v-165h145q60 0 95 -35t35 -95v-250q0 -60 -35 -95t-95 -35zM295 390h-100v-270h100q45 0 45 45v180q0 45 -45 45z" />
    <glyph glyph-name="c" unicode="c" horiz-adv-x="505" 
d="M460 390v-60q0 -25 -25 -25h-80q-25 0 -25 25v25q0 45 -45 45h-55q-45 0 -45 -45v-200q0 -45 45 -45h55q45 0 45 45v25q0 25 25 25h80q25 0 25 -25v-60q0 -60 -35 -95t-95 -35h-145q-60 0 -95 35t-35 95v270q0 60 35 95t95 35h145q60 0 95 -35t35 -95z" />
    <glyph glyph-name="d" unicode="d" 
d="M235 -10h-50q-60 0 -95 35t-35 95v260q0 60 35 95t95 35h145v165q0 25 25 25h80q25 0 25 -25v-650q0 -25 -25 -25h-80q-25 0 -25 25v15h-10q-1 -2 -2 -5.5t-7.5 -12t-15 -15t-24.5 -12t-36 -5.5zM330 390h-100q-45 0 -45 -45v-190q0 -45 45 -45h45q55 0 55 55v225z" />
    <glyph glyph-name="e" unicode="e" horiz-adv-x="515" 
d="M230 110h60q19 0 27 8t8 27q0 25 25 25h80q25 0 25 -25v-25q0 -60 -35 -95t-95 -35h-140q-60 0 -95 35t-35 95v270q0 60 35 95t95 35h145q60 0 95 -35t35 -95v-155q0 -25 -25 -25h-250v-55q0 -45 45 -45zM185 360v-45h145v45q0 45 -45 45h-55q-45 0 -45 -45z" />
    <glyph glyph-name="f" unicode="f" horiz-adv-x="335" 
d="M285 360h-60v-335q0 -25 -25 -25h-80q-25 0 -25 25v335h-40q-25 0 -25 25v70q0 25 25 25h40v90q0 60 35 95t95 35h75q25 0 25 -25v-70q0 -25 -25 -25h-30q-45 0 -45 -45v-55h60q25 0 25 -25v-70q0 -25 -25 -25z" />
    <glyph glyph-name="g" unicode="g" horiz-adv-x="520" 
d="M330 -35v75h-145q-60 0 -95 35t-35 95v220q0 60 35 95t95 35h50q20 0 36 -5t24.5 -12.5t14.5 -15t8 -12.5l2 -5h10v15q0 25 25 25h80q25 0 25 -25v-555q0 -60 -35 -95t-95 -35h-135q-60 0 -95 35t-35 95v40q0 25 25 25h80q25 0 25 -25v-5q0 -45 45 -45h45q45 0 45 45z
M230 160h100v185q0 55 -55 55h-45q-45 0 -45 -45v-150q0 -45 45 -45z" />
    <glyph glyph-name="h" unicode="h" horiz-adv-x="530" 
d="M195 675v-165h145q60 0 95 -35t35 -95v-355q0 -25 -25 -25h-80q-25 0 -25 25v320q0 45 -45 45h-100v-365q0 -25 -25 -25h-80q-25 0 -25 25v650q0 25 25 25h80q25 0 25 -25z" />
    <glyph glyph-name="i" unicode="i" horiz-adv-x="250" 
d="M85 500h80q25 0 25 -25v-450q0 -25 -25 -25h-80q-25 0 -25 25v450q0 25 25 25zM85 710h80q25 0 25 -25v-80q0 -25 -25 -25h-80q-25 0 -25 25v80q0 25 25 25z" />
    <glyph glyph-name="j" unicode="j" horiz-adv-x="250" 
d="M-40 -175v70q0 25 25 25h30q45 0 45 45v510q0 25 25 25h80q25 0 25 -25v-545q0 -60 -35 -95t-95 -35h-75q-25 0 -25 25zM85 710h80q25 0 25 -25v-80q0 -25 -25 -25h-80q-25 0 -25 25v80q0 25 25 25z" />
    <glyph glyph-name="k" unicode="k" horiz-adv-x="478" 
d="M90 700h80q25 0 25 -25v-350h55l70 160q12 25 35 25h90q11 0 15.5 -7t-0.5 -18l-105 -215l115 -245q5 -11 0.5 -18t-15.5 -7h-90q-23 0 -35 25l-80 180h-55v-180q0 -25 -25 -25h-80q-25 0 -25 25v650q0 25 25 25z" />
    <glyph glyph-name="l" unicode="l" horiz-adv-x="260" 
d="M90 700h80q25 0 25 -25v-650q0 -25 -25 -25h-80q-25 0 -25 25v650q0 25 25 25z" />
    <glyph glyph-name="m" unicode="m" horiz-adv-x="730" 
d="M280 520h45q29 0 49 -12.5t26 -25.5l5 -12h10q1 2 2 5.5t7.5 12t14.5 15t23 12t33 5.5h45q60 0 95 -35t35 -95v-365q0 -25 -25 -25h-80q-25 0 -25 25v330q0 45 -45 45h-20q-45 0 -45 -45v-330q0 -25 -25 -25h-80q-25 0 -25 25v330q0 45 -45 45h-10q-55 0 -55 -55v-320
q0 -25 -25 -25h-80q-25 0 -25 25v460q0 25 25 25h80q25 0 25 -25v-15h10q1 2 2 5.5t7.5 12t14.5 15t23 12t33 5.5z" />
    <glyph glyph-name="n" unicode="n" 
d="M285 520h50q60 0 95 -35t35 -95v-365q0 -25 -25 -25h-80q-25 0 -25 25v330q0 45 -45 45h-45q-55 0 -55 -55v-320q0 -25 -25 -25h-80q-25 0 -25 25v460q0 25 25 25h80q25 0 25 -25v-15h10q1 2 2 5.5t7.5 12t15 15t24.5 12t36 5.5z" />
    <glyph glyph-name="o" unicode="o" 
d="M340 155v200q0 45 -45 45h-65q-45 0 -45 -45v-200q0 -45 45 -45h65q45 0 45 45zM470 390v-270q0 -60 -35 -95t-95 -35h-155q-60 0 -95 35t-35 95v270q0 60 35 95t95 35h155q60 0 95 -35t35 -95z" />
    <glyph glyph-name="p" unicode="p" horiz-adv-x="520" 
d="M285 520h50q60 0 95 -35t35 -95v-260q0 -60 -35 -95t-95 -35h-145v-165q0 -25 -25 -25h-80q-25 0 -25 25v650q0 25 25 25h80q25 0 25 -25v-15h10q1 2 2 5.5t7.5 12t15 15t24.5 12t36 5.5zM190 120h100q45 0 45 45v190q0 45 -45 45h-45q-55 0 -55 -55v-225z" />
    <glyph glyph-name="q" unicode="q" horiz-adv-x="520" 
d="M185 510h250q25 0 25 -25v-650q0 -25 -25 -25h-80q-25 0 -25 25v165h-145q-60 0 -95 35t-35 95v250q0 60 35 95t95 35zM230 120h100v270h-100q-45 0 -45 -45v-180q0 -45 45 -45z" />
    <glyph glyph-name="r" unicode="r" horiz-adv-x="345" 
d="M335 495v-80q0 -25 -25 -25h-65q-55 0 -55 -55v-310q0 -25 -25 -25h-80q-25 0 -25 25v460q0 25 25 25h80q25 0 25 -25v-15h10q1 2 2 5.5t7.5 12t15 15t24.5 12t36 5.5h25q25 0 25 -25z" />
    <glyph glyph-name="s" unicode="s" horiz-adv-x="470" 
d="M175 520h120q60 0 95 -35t35 -95v-30q0 -25 -25 -25h-80q-25 0 -25 25v5q0 19 -8 27t-27 8h-50q-19 0 -27 -8t-8 -27v-5q0 -11 9 -19t31 -16l130 -50q51 -20 70.5 -45.5t19.5 -79.5v-30q0 -60 -35 -95t-95 -35h-140q-60 0 -95 35t-35 95v35q0 25 25 25h80q25 0 25 -25
v-10q0 -19 8 -27t27 -8h70q19 0 27 8t8 27v5q0 11 -9 19t-31 16l-130 50q-51 20 -70.5 45.5t-19.5 79.5v30q0 60 35 95t95 35z" />
    <glyph glyph-name="t" unicode="t" horiz-adv-x="355" 
d="M225 510h60q25 0 25 -25v-70q0 -25 -25 -25h-60v-225q0 -45 45 -45h30q25 0 25 -25v-70q0 -25 -25 -25h-75q-60 0 -95 35t-35 95v260h-40q-25 0 -25 25v70q0 25 25 25h40v95q0 25 25 25h80q25 0 25 -25v-95z" />
    <glyph glyph-name="u" unicode="u" 
d="M240 -10h-50q-60 0 -95 35t-35 95v365q0 25 25 25h80q25 0 25 -25v-330q0 -45 45 -45h45q55 0 55 55v320q0 25 25 25h80q25 0 25 -25v-460q0 -25 -25 -25h-80q-25 0 -25 25v15h-10q-1 -2 -2 -5.5t-7.5 -12t-15 -15t-24.5 -12t-36 -5.5z" />
    <glyph glyph-name="v" unicode="v" horiz-adv-x="454" 
d="M137 485l85 -265h10l85 265q8 25 35 25h85q9 0 14 -7t1 -18l-155 -460q-8 -25 -35 -25h-70q-27 0 -35 25l-155 460q-4 11 0.5 18t14.5 7h85q27 0 35 -25z" />
    <glyph glyph-name="w" unicode="w" horiz-adv-x="642" 
d="M291 510h60q25 0 30 -25l50 -235h10l50 235q5 25 35 25h90q8 0 13 -7t2 -18l-115 -460q-7 -25 -35 -25h-60q-30 0 -35 25l-60 270h-10l-60 -270q-5 -25 -35 -25h-60q-28 0 -35 25l-115 460q-3 11 2 18t13 7h90q30 0 35 -25l50 -235h10l50 235q5 25 30 25z" />
    <glyph glyph-name="x" unicode="x" horiz-adv-x="438" 
d="M214 365h10l55 120q12 25 40 25h90q9 0 15 -7.5t0 -17.5l-115 -220l125 -240q6 -11 1.5 -18t-16.5 -7h-90q-23 0 -35 25l-70 140h-10l-70 -140q-12 -25 -35 -25h-90q-12 0 -16.5 7t1.5 18l125 240l-115 220q-5 10 0.5 17.5t14.5 7.5h90q28 0 40 -25z" />
    <glyph glyph-name="y" unicode="y" horiz-adv-x="439" 
d="M232 205l70 280q7 25 35 25h85q10 0 14.5 -7t0.5 -18l-155 -515q-25 -84 -68 -122t-117 -38h-20q-25 0 -25 25v70q0 25 25 25h20q51 0 65 65l-160 490q-4 11 1.5 18t13.5 7h85q27 0 35 -25l85 -280h10z" />
    <glyph glyph-name="z" unicode="z" horiz-adv-x="430" 
d="M240 380v10h-180q-25 0 -25 25v70q0 25 25 25h315q25 0 25 -25v-75q0 -38 -20 -60l-195 -220v-10h195q25 0 25 -25v-70q0 -25 -25 -25h-330q-25 0 -25 25v75q0 38 20 60z" />
    <glyph glyph-name="braceleft" unicode="{" horiz-adv-x="375" 
d="M30 240v80q0 25 25 25q60 0 60 60v150q0 175 175 175h35q25 0 25 -25v-80q0 -25 -25 -25q-30 0 -47.5 -17.5t-17.5 -47.5v-165q0 -21 -6.5 -37.5t-16 -25t-19.5 -14t-16 -7.5l-7 -1v-10q3 0 7 -1.5t15.5 -7t20 -14t15.5 -25t7 -37.5v-165q0 -30 17.5 -47.5t47.5 -17.5
q25 0 25 -25v-80q0 -25 -25 -25h-35q-175 0 -175 175v150q0 60 -60 60q-25 0 -25 25z" />
    <glyph glyph-name="bar" unicode="|" horiz-adv-x="330" 
d="M115 700h100q25 0 25 -25v-840q0 -25 -25 -25h-100q-25 0 -25 25v840q0 25 25 25z" />
    <glyph glyph-name="braceright" unicode="}" horiz-adv-x="375" 
d="M345 320v-80q0 -25 -25 -25q-60 0 -60 -60v-150q0 -175 -175 -175h-35q-25 0 -25 25v80q0 25 25 25q30 0 47.5 17.5t17.5 47.5v165q0 33 16.5 54.5t32.5 25.5l16 5v10q-3 0 -7 1.5t-15.5 7t-20 14t-15.5 25t-7 37.5v165q0 30 -17.5 47.5t-47.5 17.5q-25 0 -25 25v80
q0 25 25 25h35q175 0 175 -175v-150q0 -60 60 -60q25 0 25 -25z" />
    <glyph glyph-name="asciitilde" unicode="~" horiz-adv-x="405" 
d="M295 215q-28 0 -57.5 18.5t-51.5 37.5t-31 19q-15 0 -15 -20v-30q0 -25 -25 -25h-60q-25 0 -25 25v100q0 37 23 61t57 24q28 0 57.5 -18.5t51.5 -37.5t31 -19q15 0 15 20v30q0 25 25 25h60q25 0 25 -25v-100q0 -37 -23 -61t-57 -24z" />
    <glyph glyph-name="nbspace" unicode="&#xa0;" horiz-adv-x="200" 
 />
    <glyph glyph-name="exclamdown" unicode="&#xa1;" horiz-adv-x="280" 
d="M180 375h-80q-25 0 -25 25v85q0 25 25 25h80q25 0 25 -25v-85q0 -25 -25 -25zM65 -165v265l25 170q3 25 30 25h40q27 0 30 -25l25 -170v-265q0 -25 -25 -25h-100q-25 0 -25 25z" />
    <glyph glyph-name="cent" unicode="&#xa2;" horiz-adv-x="505" 
d="M460 390v-60q0 -25 -25 -25h-80q-25 0 -25 25v25q0 45 -45 45h-55q-45 0 -45 -45v-200q0 -45 45 -45h55q45 0 45 45v25q0 25 25 25h80q25 0 25 -25v-60q0 -60 -35 -95t-95 -35h-5v-50q0 -25 -25 -25h-80q-25 0 -25 25v50h-10q-60 0 -95 35t-35 95v270q0 60 35 95t95 35
h10v50q0 25 25 25h80q25 0 25 -25v-50h5q60 0 95 -35t35 -95z" />
    <glyph glyph-name="sterling" unicode="&#xa3;" horiz-adv-x="480" 
d="M455 0h-410q-25 0 -25 25v80q0 25 25 25h70v155h-30q-25 0 -25 25v80q0 25 25 25h30v130q0 155 155 155h90q25 0 25 -25v-80q0 -25 -25 -25h-55q-23 0 -36.5 -14t-13.5 -36v-105h70q25 0 25 -25v-80q0 -25 -25 -25h-70v-155h200q25 0 25 -25v-80q0 -25 -25 -25z" />
    <glyph glyph-name="currency" unicode="&#xa4;" horiz-adv-x="620" 
d="M465 120h-220v-95q0 -25 -25 -25h-100q-25 0 -25 25v95h-35q-25 0 -25 25v60q0 25 25 25h35v50h-35q-25 0 -25 25v60q0 25 25 25h35v285q0 25 25 25h295q155 0 155 -155v-110q0 -155 -155 -155h-170v-50h220q25 0 25 -25v-60q0 -25 -25 -25zM370 565h-125v-175h125
q22 0 36 14t14 36v75q0 23 -14 36.5t-36 13.5z" />
    <glyph glyph-name="yen" unicode="&#xa5;" horiz-adv-x="578" 
d="M459 245h-95v-40h95q25 0 25 -25v-55q0 -25 -25 -25h-95v-75q0 -25 -25 -25h-100q-25 0 -25 25v75h-95q-25 0 -25 25v55q0 25 25 25h95v40h-95q-25 0 -25 25v55q0 25 25 25h45l-165 325q-6 11 -1.5 18t16.5 7h110q28 0 40 -25l120 -260h10l120 260q12 25 40 25h110
q12 0 16.5 -7t-1.5 -18l-165 -325h45q25 0 25 -25v-55q0 -25 -25 -25z" />
    <glyph glyph-name="brokenbar" unicode="&#xa6;" horiz-adv-x="330" 
d="M115 185h97q25 0 25 -25v-325q0 -25 -25 -25h-97q-25 0 -25 25v325q0 25 25 25zM115 700h100q25 0 25 -25v-325q0 -25 -25 -25h-100q-25 0 -25 25v325q0 25 25 25z" />
    <glyph glyph-name="section" unicode="&#xa7;" horiz-adv-x="535" 
d="M325 530v15q0 19 -8 27t-27 8h-50q-19 0 -27 -8t-8 -27v-35q0 -11 9 -19t31 -16l130 -50q51 -20 70.5 -45.5t19.5 -79.5v-75q0 -22 -6 -42t-15 -31.5t-18 -20.5t-15 -13l-6 -3v-10q2 -1 6.5 -2.5t14.5 -9t18 -18.5t14.5 -32t6.5 -48v-65q0 -60 -35 -95t-95 -35h-135
q-62 0 -96 34t-34 96v40q0 25 25 25h80q25 0 25 -25v-15q0 -19 8 -27t27 -8h65q19 0 27 8t8 27v35q0 11 -9 19t-31 16l-130 50q-51 20 -70.5 45.5t-19.5 79.5v75q0 22 6 42t15 31.5t18 20.5t15 13l6 3v10q-2 1 -6.5 2.5t-14.5 9t-18 18.5t-14.5 32t-6.5 48v65q0 60 35 95
t95 35h120q60 0 95 -35t35 -95v-40q0 -25 -25 -25h-80q-25 0 -25 25zM295 335l-55 20q-4 -1 -10 -4t-15.5 -15.5t-9.5 -30.5v-100q0 -15 8.5 -23.5t31.5 -16.5l55 -20q4 1 10 4t15.5 15.5t9.5 30.5v100q0 15 -8.5 23.5t-31.5 16.5z" />
    <glyph glyph-name="dieresis" unicode="&#xa8;" horiz-adv-x="360" 
d="M55 700h70q25 0 25 -25v-80q0 -25 -25 -25h-70q-25 0 -25 25v80q0 25 25 25zM235 700h70q25 0 25 -25v-80q0 -25 -25 -25h-70q-25 0 -25 25v80q0 25 25 25z" />
    <glyph glyph-name="copyright" unicode="&#xa9;" horiz-adv-x="780" 
d="M230 705h320q155 0 155 -155v-400q0 -155 -155 -155h-320q-155 0 -155 155v400q0 155 155 155zM545 605h-310q-23 0 -36.5 -13.5t-13.5 -36.5v-410q0 -23 13.5 -36.5t36.5 -13.5h310q23 0 36.5 13.5t13.5 36.5v410q0 23 -13.5 36.5t-36.5 13.5zM255 285v135
q0 100 100 100h70q100 0 100 -100v-10q0 -11 -4.5 -15.5t-15.5 -4.5h-50q-11 0 -15.5 4.5t-4.5 15.5t-4.5 15.5t-15.5 4.5h-40q-11 0 -15.5 -4.5t-4.5 -15.5v-115q0 -11 4.5 -15.5t15.5 -4.5h40q11 0 15.5 4.5t4.5 15.5t4.5 15.5t15.5 4.5h50q11 0 15.5 -4.5t4.5 -15.5v-10
q0 -100 -100 -100h-70q-100 0 -100 100z" />
    <glyph glyph-name="ordfeminine" unicode="&#xaa;" horiz-adv-x="345" 
d="M175 620h-15q-11 0 -18 -6t-7 -14q0 -20 -15 -20h-55q-11 0 -15.5 4.5t-4.5 15.5q0 45 27.5 72.5t72.5 27.5h50q49 0 79.5 -30.5t30.5 -79.5v-210q0 -11 -4.5 -15.5t-15.5 -4.5h-65q-11 0 -15.5 4.5t-4.5 15.5v10h-5q-1 -3 -4 -8t-17 -13.5t-34 -8.5h-20
q-41 0 -65.5 24.5t-24.5 65.5v20q0 40 26 65t64 25h80v35q0 25 -25 25zM135 470v-5q0 -25 25 -25h10q30 0 30 40v15h-40q-25 0 -25 -25z" />
    <glyph glyph-name="guillemotleft" unicode="&#xab;" horiz-adv-x="484" 
d="M260 445l-100 -190l100 -190q6 -11 1.5 -18t-16.5 -7h-80q-22 0 -35 25l-100 190l100 190q13 25 35 25h80q12 0 16.5 -7t-1.5 -18zM450 445l-100 -190l100 -190q6 -11 1.5 -18t-16.5 -7h-80q-22 0 -35 25l-100 190l100 190q13 25 35 25h80q12 0 16.5 -7t-1.5 -18z" />
    <glyph glyph-name="logicalnot" unicode="&#xac;" horiz-adv-x="425" 
d="M55 425h315q25 0 25 -25v-175q0 -25 -25 -25h-80q-25 0 -25 25v75h-210q-25 0 -25 25v75q0 25 25 25z" />
    <glyph glyph-name="uni00AD" unicode="&#xad;" horiz-adv-x="395" 
d="M345 250h-295q-25 0 -25 25v75q0 25 25 25h295q25 0 25 -25v-75q0 -25 -25 -25z" />
    <glyph glyph-name="registered" unicode="&#xae;" horiz-adv-x="780" 
d="M430 390v20q0 25 -25 25h-50v-70h50q25 0 25 25zM425 200l-35 85h-35v-85q0 -15 -15 -15h-70q-15 0 -15 15v305q0 15 15 15h155q100 0 100 -100v-35q0 -31 -11.5 -52.5t-22.5 -26.5l-11 -6l50 -100q8 -15 -10 -15h-65q-24 0 -30 15zM230 705h320q155 0 155 -155v-400
q0 -155 -155 -155h-320q-155 0 -155 155v400q0 155 155 155zM545 605h-310q-23 0 -36.5 -13.5t-13.5 -36.5v-410q0 -23 13.5 -36.5t36.5 -13.5h310q23 0 36.5 13.5t13.5 36.5v410q0 23 -13.5 36.5t-36.5 13.5z" />
    <glyph glyph-name="macron" unicode="&#xaf;" horiz-adv-x="320" 
d="M265 595h-210q-25 0 -25 25v55q0 25 25 25h210q25 0 25 -25v-55q0 -25 -25 -25z" />
    <glyph glyph-name="degree" unicode="&#xb0;" horiz-adv-x="370" 
d="M40 485v105q0 52 29 81t81 29h70q52 0 81 -29t29 -81v-105q0 -53 -29 -81.5t-81 -28.5h-70q-52 0 -81 28.5t-29 81.5zM145 575v-75q0 -30 30 -30h20q30 0 30 30v75q0 30 -30 30h-20q-30 0 -30 -30z" />
    <glyph glyph-name="plusminus" unicode="&#xb1;" horiz-adv-x="460" 
d="M395 80h-330q-25 0 -25 25v70q0 25 25 25h105v110h-110q-25 0 -25 25v70q0 25 25 25h110v120q0 25 25 25h70q25 0 25 -25v-120h110q25 0 25 -25v-70q0 -25 -25 -25h-110v-110h105q25 0 25 -25v-70q0 -25 -25 -25z" />
    <glyph glyph-name="twosuperior" unicode="&#xb2;" horiz-adv-x="300" 
d="M275 700v-20q0 -53 -50 -85l-70 -45v-5h100q11 0 15.5 -4.5t4.5 -15.5v-45q0 -11 -4.5 -15.5t-15.5 -4.5h-210q-11 0 -15.5 4.5t-4.5 15.5v55q0 18 4 25t16 15l110 75q20 13 20 35q0 25 -25 25q-12 0 -17.5 -4.5t-6 -10.5t-4.5 -10.5t-12 -4.5h-65q-11 0 -15.5 4.5
t-4.5 15.5q0 56 22 78t78 22h50q56 0 78 -22t22 -78z" />
    <glyph glyph-name="threesuperior" unicode="&#xb3;" horiz-adv-x="310" 
d="M280 580v-20q0 -56 -22 -78t-78 -22h-55q-56 0 -78 22t-22 78q0 11 4.5 15.5t15.5 4.5h65q6 0 9 -4.5t3.5 -10.5t7 -10.5t20.5 -4.5h5q25 0 25 25t-25 25h-40q-11 0 -15.5 4.5t-4.5 15.5v30q0 18 18 30l47 30v5h-105q-11 0 -15.5 4.5t-4.5 15.5v45q0 11 4.5 15.5
t15.5 4.5h195q11 0 15.5 -4.5t4.5 -15.5v-45q0 -18 -4 -25t-16 -15l-45 -30v-5q3 0 8 -1t18 -6t23 -12.5t18 -23.5t8 -37z" />
    <glyph glyph-name="acute" unicode="&#xb4;" horiz-adv-x="241" 
d="M207 675l-75 -130q-15 -25 -35 -25h-50q-10 0 -14.5 7t-0.5 18l45 130q8 25 35 25h80q12 0 16.5 -7t-1.5 -18z" />
    <glyph glyph-name="mu" unicode="&#xb5;" 
d="M240 -10h-5q-13 0 -24.5 2.5t-16.5 5.5l-4 2v-165q0 -25 -25 -25h-80q-25 0 -25 25v650q0 25 25 25h80q25 0 25 -25v-330q0 -45 45 -45h45q55 0 55 55v320q0 25 25 25h80q25 0 25 -25v-460q0 -25 -25 -25h-80q-25 0 -25 25v15h-10q-1 -2 -2 -5.5t-7.5 -12t-15 -15
t-24.5 -12t-36 -5.5z" />
    <glyph glyph-name="paragraph" unicode="&#xb6;" horiz-adv-x="610" 
d="M195 -50v365q-75 0 -110 35t-35 110v85q0 155 155 155h305q25 0 25 -25v-720q0 -155 -155 -155h-230q-25 0 -25 25v75q0 25 25 25h20q25 0 25 25zM325 -75h30q23 0 36.5 13.5t13.5 36.5v600h-80v-650z" />
    <glyph glyph-name="periodcentered" unicode="&#xb7;" horiz-adv-x="200" 
d="M60 365h80q25 0 25 -25v-85q0 -25 -25 -25h-80q-25 0 -25 25v85q0 25 25 25z" />
    <glyph glyph-name="cedilla" unicode="&#xb8;" horiz-adv-x="240" 
d="M50 -195h60q11 0 15.5 4.5t4.5 15.5v20q0 11 -4.5 15.5t-15.5 4.5h-50q-11 0 -15.5 4.5t-4.5 15.5v30q0 20 10 40l20 45h65l-25 -60q48 0 74 -24t26 -66v-35q0 -41 -24.5 -65.5t-65.5 -24.5h-70q-11 0 -15.5 4.5t-4.5 15.5v40q0 11 4.5 15.5t15.5 4.5z" />
    <glyph glyph-name="onesuperior" unicode="&#xb9;" horiz-adv-x="245" 
d="M100 705h-50q-11 0 -15.5 4.5t-4.5 15.5v55q0 11 4.5 15.5t15.5 4.5h135q11 0 15.5 -4.5t4.5 -15.5v-300q0 -11 -4.5 -15.5t-15.5 -4.5h-65q-11 0 -15.5 4.5t-4.5 15.5v225z" />
    <glyph glyph-name="ordmasculine" unicode="&#xba;" horiz-adv-x="340" 
d="M35 470v120q0 49 30.5 79.5t79.5 30.5h50q49 0 79.5 -30.5t30.5 -79.5v-120q0 -49 -30.5 -79.5t-79.5 -30.5h-50q-49 0 -79.5 30.5t-30.5 79.5zM135 570v-80q0 -19 8 -27t27 -8t27 8t8 27v80q0 19 -8 27t-27 8t-27 -8t-8 -27z" />
    <glyph glyph-name="guillemotright" unicode="&#xbb;" horiz-adv-x="484" 
d="M324 255l-100 190q-6 11 -1.5 18t16.5 7h80q22 0 35 -25l100 -190l-100 -190q-13 -25 -35 -25h-80q-12 0 -16.5 7t1.5 18zM134 255l-100 190q-6 11 -1.5 18t16.5 7h80q22 0 35 -25l100 -190l-100 -190q-13 -25 -35 -25h-80q-12 0 -16.5 7t1.5 18z" />
    <glyph glyph-name="onequarter" unicode="&#xbc;" horiz-adv-x="665" 
d="M125 25l250 650q10 25 40 25h85q8 0 13.5 -7.5t1.5 -17.5l-250 -650q-10 -25 -40 -25h-85q-8 0 -13.5 7.5t-1.5 17.5zM90 605h-50q-11 0 -15.5 4.5t-4.5 15.5v55q0 11 4.5 15.5t15.5 4.5h135q11 0 15.5 -4.5t4.5 -15.5v-300q0 -11 -4.5 -15.5t-15.5 -4.5h-65
q-11 0 -15.5 4.5t-4.5 15.5v225zM610 320v-160h10q11 0 15.5 -4.5t4.5 -15.5v-45q0 -11 -4.5 -15.5t-15.5 -4.5h-10v-55q0 -11 -4.5 -15.5t-15.5 -4.5h-60q-11 0 -15.5 4.5t-4.5 15.5v55h-115q-11 0 -15.5 4.5t-4.5 15.5v40q0 7 0.5 12t2 10t2.5 7t5 7.5t5 8.5l80 140
q12 20 40 20h80q11 0 15.5 -4.5t4.5 -15.5zM465 160h45v80h-5l-40 -75v-5z" />
    <glyph glyph-name="onehalf" unicode="&#xbd;" horiz-adv-x="705" 
d="M125 25l250 650q10 25 40 25h85q8 0 13.5 -7.5t1.5 -17.5l-250 -650q-10 -25 -40 -25h-85q-8 0 -13.5 7.5t-1.5 17.5zM90 605h-50q-11 0 -15.5 4.5t-4.5 15.5v55q0 11 4.5 15.5t15.5 4.5h135q11 0 15.5 -4.5t4.5 -15.5v-300q0 -11 -4.5 -15.5t-15.5 -4.5h-65
q-11 0 -15.5 4.5t-4.5 15.5v225zM665 240v-20q0 -53 -50 -85l-70 -45v-5h100q11 0 15.5 -4.5t4.5 -15.5v-45q0 -11 -4.5 -15.5t-15.5 -4.5h-210q-11 0 -15.5 4.5t-4.5 15.5v55q0 18 4 25t16 15l110 75q20 13 20 35q0 25 -25 25q-12 0 -17.5 -4.5t-6 -10.5t-4.5 -10.5
t-12 -4.5h-65q-11 0 -15.5 4.5t-4.5 15.5q0 56 22 78t78 22h50q56 0 78 -22t22 -78z" />
    <glyph glyph-name="threequarters" unicode="&#xbe;" horiz-adv-x="715" 
d="M175 25l250 650q10 25 40 25h85q8 0 13.5 -7.5t1.5 -17.5l-250 -650q-10 -25 -40 -25h-85q-8 0 -13.5 7.5t-1.5 17.5zM280 480v-20q0 -56 -22 -78t-78 -22h-55q-56 0 -78 22t-22 78q0 11 4.5 15.5t15.5 4.5h65q6 0 9 -4.5t3.5 -10.5t7 -10.5t20.5 -4.5h5q25 0 25 25
t-25 25h-40q-11 0 -15.5 4.5t-4.5 15.5v30q0 18 18 30l47 30v5h-105q-11 0 -15.5 4.5t-4.5 15.5v45q0 11 4.5 15.5t15.5 4.5h195q11 0 15.5 -4.5t4.5 -15.5v-45q0 -18 -4 -25t-16 -15l-45 -30v-5q3 0 8 -1t18 -6t23 -12.5t18 -23.5t8 -37zM660 320v-160h10q11 0 15.5 -4.5
t4.5 -15.5v-45q0 -11 -4.5 -15.5t-15.5 -4.5h-10v-55q0 -11 -4.5 -15.5t-15.5 -4.5h-60q-11 0 -15.5 4.5t-4.5 15.5v55h-115q-11 0 -15.5 4.5t-4.5 15.5v40q0 7 0.5 12t2 10t2.5 7t5 7.5t5 8.5l80 140q12 20 40 20h80q11 0 15.5 -4.5t4.5 -15.5zM515 160h45v80h-5l-40 -75
v-5z" />
    <glyph glyph-name="questiondown" unicode="&#xbf;" horiz-adv-x="530" 
d="M520 0v-45q0 -155 -155 -155h-165q-155 0 -155 155v135q0 155 155 155h30l5 25q5 25 30 25h40q27 0 30 -25l20 -120v-10q0 -25 -25 -25h-85q-23 0 -36.5 -13.5t-13.5 -36.5v-80q0 -23 13.5 -36.5t36.5 -13.5h75q22 0 36 13.5t14 36.5v15q0 25 25 25h100q25 0 25 -25z
M325 375h-80q-25 0 -25 25v85q0 25 25 25h80q25 0 25 -25v-85q0 -25 -25 -25z" />
    <glyph glyph-name="Agrave" unicode="&#xc0;" horiz-adv-x="614" 
d="M417 145h-220l-35 -120q-7 -25 -35 -25h-110q-10 0 -14.5 7t-0.5 18l210 650q8 25 35 25h120q27 0 35 -25l210 -650q4 -11 -1 -18t-14 -7h-110q-27 0 -35 25zM237 280h140l-65 220h-10zM247 795l-75 130q-6 11 -1.5 18t16.5 7h80q27 0 35 -25l45 -130q4 -11 -0.5 -18
t-14.5 -7h-50q-20 0 -35 25z" />
    <glyph glyph-name="Aacute" unicode="&#xc1;" horiz-adv-x="614" 
d="M417 145h-220l-35 -120q-7 -25 -35 -25h-110q-10 0 -14.5 7t-0.5 18l210 650q8 25 35 25h120q27 0 35 -25l210 -650q4 -11 -1 -18t-14 -7h-110q-27 0 -35 25zM237 280h140l-65 220h-10zM442 925l-75 -130q-15 -25 -35 -25h-50q-10 0 -14.5 7t-0.5 18l45 130q8 25 35 25
h80q12 0 16.5 -7t-1.5 -18z" />
    <glyph glyph-name="Acircumflex" unicode="&#xc2;" horiz-adv-x="614" 
d="M417 145h-220l-35 -120q-7 -25 -35 -25h-110q-10 0 -14.5 7t-0.5 18l210 650q8 25 35 25h120q27 0 35 -25l210 -650q4 -11 -1 -18t-14 -7h-110q-27 0 -35 25zM237 280h140l-65 220h-10zM275 950h65q25 0 40 -25l80 -130q6 -11 1.5 -18t-16.5 -7h-60q-27 0 -40 25l-35 65
h-5l-35 -65q-13 -25 -40 -25h-60q-12 0 -16.5 7t1.5 18l80 130q15 25 40 25z" />
    <glyph glyph-name="Atilde" unicode="&#xc3;" horiz-adv-x="614" 
d="M417 145h-220l-35 -120q-7 -25 -35 -25h-110q-10 0 -14.5 7t-0.5 18l210 650q8 25 35 25h120q27 0 35 -25l210 -650q4 -11 -1 -18t-14 -7h-110q-27 0 -35 25zM237 280h140l-65 220h-10zM377 775q-22 0 -41 12.5t-32.5 25t-21.5 12.5q-15 0 -15 -15v-15q0 -7 -6.5 -13.5
t-13.5 -6.5h-45q-8 0 -14 6.5t-6 13.5v90q0 55 55 55q22 0 41 -12.5t32.5 -25t21.5 -12.5q15 0 15 15v15q0 8 6.5 14t13.5 6h45q8 0 14 -6t6 -14v-90q0 -55 -55 -55z" />
    <glyph glyph-name="Adieresis" unicode="&#xc4;" horiz-adv-x="614" 
d="M417 145h-220l-35 -120q-7 -25 -35 -25h-110q-10 0 -14.5 7t-0.5 18l210 650q8 25 35 25h120q27 0 35 -25l210 -650q4 -11 -1 -18t-14 -7h-110q-27 0 -35 25zM237 280h140l-65 220h-10zM182 920h70q25 0 25 -25v-80q0 -25 -25 -25h-70q-25 0 -25 25v80q0 25 25 25z
M362 920h70q25 0 25 -25v-80q0 -25 -25 -25h-70q-25 0 -25 25v80q0 25 25 25z" />
    <glyph glyph-name="Aring" unicode="&#xc5;" horiz-adv-x="614" 
d="M417 145h-220l-35 -120q-7 -25 -35 -25h-110q-10 0 -14.5 7t-0.5 18l210 650q8 25 35 25h120q27 0 35 -25l210 -650q4 -11 -1 -18t-14 -7h-110q-27 0 -35 25zM237 280h140l-65 220h-10zM410 900v-50q0 -90 -90 -90h-25q-90 0 -90 90v50q0 90 90 90h25q90 0 90 -90z
M340 860v30q0 30 -30 30h-5q-30 0 -30 -30v-30q0 -30 27 -30h10q28 0 28 30z" />
    <glyph glyph-name="AE" unicode="&#xc6;" horiz-adv-x="917" 
d="M572 290v-155h295q25 0 25 -25v-85q0 -25 -25 -25h-420q-25 0 -25 25v120h-225l-35 -120q-8 -25 -35 -25h-110q-10 0 -14.5 7t-0.5 18l210 650q8 25 35 25h610q25 0 25 -25v-85q0 -25 -25 -25h-285v-140h210q25 0 25 -25v-85q0 -25 -25 -25h-210zM237 280h185v285h-100z
" />
    <glyph glyph-name="Ccedilla" unicode="&#xc7;" horiz-adv-x="660" 
d="M295 -195h60q11 0 15.5 4.5t4.5 15.5v20q0 11 -4.5 15.5t-15.5 4.5h-50q-11 0 -15.5 4.5t-4.5 15.5v30q0 20 10 40l15 35h-90q-155 0 -155 155v410q0 155 155 155h235q155 0 155 -155v-65q0 -25 -25 -25h-100q-25 0 -25 25v35q0 23 -14 36.5t-36 13.5h-145
q-23 0 -36.5 -13.5t-13.5 -36.5v-350q0 -23 13.5 -36.5t36.5 -13.5h145q22 0 36 13.5t14 36.5v35q0 25 25 25h100q25 0 25 -25v-65q0 -155 -155 -155h-80l-20 -50q48 0 74 -24t26 -66v-35q0 -41 -24.5 -65.5t-65.5 -24.5h-70q-11 0 -15.5 4.5t-4.5 15.5v40q0 11 4.5 15.5
t15.5 4.5z" />
    <glyph glyph-name="Egrave" unicode="&#xc8;" horiz-adv-x="595" 
d="M225 290v-155h320q25 0 25 -25v-85q0 -25 -25 -25h-445q-25 0 -25 25v650q0 25 25 25h435q25 0 25 -25v-85q0 -25 -25 -25h-310v-140h235q25 0 25 -25v-85q0 -25 -25 -25h-235zM275 795l-75 130q-6 11 -1.5 18t16.5 7h80q27 0 35 -25l45 -130q4 -11 -0.5 -18t-14.5 -7
h-50q-20 0 -35 25z" />
    <glyph glyph-name="Eacute" unicode="&#xc9;" horiz-adv-x="595" 
d="M225 290v-155h320q25 0 25 -25v-85q0 -25 -25 -25h-445q-25 0 -25 25v650q0 25 25 25h435q25 0 25 -25v-85q0 -25 -25 -25h-310v-140h235q25 0 25 -25v-85q0 -25 -25 -25h-235zM445 925l-75 -130q-15 -25 -35 -25h-50q-10 0 -14.5 7t-0.5 18l45 130q8 25 35 25h80
q12 0 16.5 -7t-1.5 -18z" />
    <glyph glyph-name="Ecircumflex" unicode="&#xca;" horiz-adv-x="595" 
d="M225 290v-155h320q25 0 25 -25v-85q0 -25 -25 -25h-445q-25 0 -25 25v650q0 25 25 25h435q25 0 25 -25v-85q0 -25 -25 -25h-310v-140h235q25 0 25 -25v-85q0 -25 -25 -25h-235zM288 950h65q25 0 40 -25l80 -130q6 -11 1.5 -18t-16.5 -7h-60q-27 0 -40 25l-35 65h-5
l-35 -65q-13 -25 -40 -25h-60q-12 0 -16.5 7t1.5 18l80 130q15 25 40 25z" />
    <glyph glyph-name="Edieresis" unicode="&#xcb;" horiz-adv-x="595" 
d="M225 290v-155h320q25 0 25 -25v-85q0 -25 -25 -25h-445q-25 0 -25 25v650q0 25 25 25h435q25 0 25 -25v-85q0 -25 -25 -25h-310v-140h235q25 0 25 -25v-85q0 -25 -25 -25h-235zM195 930h70q25 0 25 -25v-80q0 -25 -25 -25h-70q-25 0 -25 25v80q0 25 25 25zM375 930h70
q25 0 25 -25v-80q0 -25 -25 -25h-70q-25 0 -25 25v80q0 25 25 25z" />
    <glyph glyph-name="Igrave" unicode="&#xcc;" horiz-adv-x="300" 
d="M225 675v-650q0 -25 -25 -25h-100q-25 0 -25 25v650q0 25 25 25h100q25 0 25 -25zM99 795l-75 130q-6 11 -1.5 18t16.5 7h80q27 0 35 -25l45 -130q4 -11 -0.5 -18t-14.5 -7h-50q-20 0 -35 25z" />
    <glyph glyph-name="Iacute" unicode="&#xcd;" horiz-adv-x="300" 
d="M225 675v-650q0 -25 -25 -25h-100q-25 0 -25 25v650q0 25 25 25h100q25 0 25 -25zM281 925l-75 -130q-15 -25 -35 -25h-50q-10 0 -14.5 7t-0.5 18l45 130q8 25 35 25h80q12 0 16.5 -7t-1.5 -18z" />
    <glyph glyph-name="Icircumflex" unicode="&#xce;" horiz-adv-x="303" 
d="M226 675v-650q0 -25 -25 -25h-100q-25 0 -25 25v650q0 25 25 25h100q25 0 25 -25zM119 950h65q25 0 40 -25l80 -130q6 -11 1.5 -18t-16.5 -7h-60q-27 0 -40 25l-35 65h-5l-35 -65q-13 -25 -40 -25h-60q-12 0 -16.5 7t1.5 18l80 130q15 25 40 25z" />
    <glyph glyph-name="Idieresis" unicode="&#xcf;" horiz-adv-x="300" 
d="M225 675v-650q0 -25 -25 -25h-100q-25 0 -25 25v650q0 25 25 25h100q25 0 25 -25zM25 920h70q25 0 25 -25v-80q0 -25 -25 -25h-70q-25 0 -25 25v80q0 25 25 25zM205 920h70q25 0 25 -25v-80q0 -25 -25 -25h-70q-25 0 -25 25v80q0 25 25 25z" />
    <glyph glyph-name="Eth" unicode="&#xd0;" horiz-adv-x="700" 
d="M115 700h365q155 0 155 -155v-390q0 -155 -155 -155h-365q-25 0 -25 25v255h-30q-25 0 -25 25v80q0 25 25 25h30v265q0 25 25 25zM240 565v-155h90q25 0 25 -25v-80q0 -25 -25 -25h-90v-145h195q23 0 36.5 13.5t13.5 36.5v330q0 23 -13.5 36.5t-36.5 13.5h-195z" />
    <glyph glyph-name="Ntilde" unicode="&#xd1;" horiz-adv-x="700" 
d="M465 265h10v410q0 25 25 25h100q25 0 25 -25v-650q0 -25 -25 -25h-125q-22 0 -35 25l-205 410h-10v-410q0 -25 -25 -25h-100q-25 0 -25 25v650q0 25 25 25h125q22 0 35 -25zM425 775q-22 0 -41 12.5t-32.5 25t-21.5 12.5q-15 0 -15 -15v-15q0 -7 -6.5 -13.5t-13.5 -6.5
h-45q-8 0 -14 6.5t-6 13.5v90q0 55 55 55q22 0 41 -12.5t32.5 -25t21.5 -12.5q15 0 15 15v15q0 8 6.5 14t13.5 6h45q8 0 14 -6t6 -14v-90q0 -55 -55 -55z" />
    <glyph glyph-name="Ograve" unicode="&#xd2;" horiz-adv-x="685" 
d="M620 555v-410q0 -155 -155 -155h-245q-155 0 -155 155v410q0 155 155 155h245q155 0 155 -155zM470 175v350q0 23 -14 36.5t-36 13.5h-155q-23 0 -36.5 -13.5t-13.5 -36.5v-350q0 -23 13.5 -36.5t36.5 -13.5h155q22 0 36 13.5t14 36.5zM290 805l-75 130q-6 11 -1.5 18
t16.5 7h80q27 0 35 -25l45 -130q4 -11 -0.5 -18t-14.5 -7h-50q-20 0 -35 25z" />
    <glyph glyph-name="Oacute" unicode="&#xd3;" horiz-adv-x="685" 
d="M620 555v-410q0 -155 -155 -155h-245q-155 0 -155 155v410q0 155 155 155h245q155 0 155 -155zM470 175v350q0 23 -14 36.5t-36 13.5h-155q-23 0 -36.5 -13.5t-13.5 -36.5v-350q0 -23 13.5 -36.5t36.5 -13.5h155q22 0 36 13.5t14 36.5zM475 935l-75 -130q-15 -25 -35 -25
h-50q-10 0 -14.5 7t-0.5 18l45 130q8 25 35 25h80q12 0 16.5 -7t-1.5 -18z" />
    <glyph glyph-name="Ocircumflex" unicode="&#xd4;" horiz-adv-x="685" 
d="M620 555v-410q0 -155 -155 -155h-245q-155 0 -155 155v410q0 155 155 155h245q155 0 155 -155zM470 175v350q0 23 -14 36.5t-36 13.5h-155q-23 0 -36.5 -13.5t-13.5 -36.5v-350q0 -23 13.5 -36.5t36.5 -13.5h155q22 0 36 13.5t14 36.5zM310 960h65q25 0 40 -25l80 -130
q6 -11 1.5 -18t-16.5 -7h-60q-27 0 -40 25l-35 65h-5l-35 -65q-13 -25 -40 -25h-60q-12 0 -16.5 7t1.5 18l80 130q15 25 40 25z" />
    <glyph glyph-name="Otilde" unicode="&#xd5;" horiz-adv-x="685" 
d="M620 555v-410q0 -155 -155 -155h-245q-155 0 -155 155v410q0 155 155 155h245q155 0 155 -155zM470 175v350q0 23 -14 36.5t-36 13.5h-155q-23 0 -36.5 -13.5t-13.5 -36.5v-350q0 -23 13.5 -36.5t36.5 -13.5h155q22 0 36 13.5t14 36.5zM412 775q-22 0 -41 12.5t-32.5 25
t-21.5 12.5q-15 0 -15 -15v-15q0 -7 -6 -13.5t-14 -6.5h-45q-7 0 -13.5 6.5t-6.5 13.5v90q0 55 55 55q22 0 41 -12.5t33 -25t21 -12.5q15 0 15 15v15q0 8 6 14t14 6h45q7 0 13.5 -6t6.5 -14v-90q0 -55 -55 -55z" />
    <glyph glyph-name="Odieresis" unicode="&#xd6;" horiz-adv-x="685" 
d="M620 555v-410q0 -155 -155 -155h-245q-155 0 -155 155v410q0 155 155 155h245q155 0 155 -155zM470 175v350q0 23 -14 36.5t-36 13.5h-155q-23 0 -36.5 -13.5t-13.5 -36.5v-350q0 -23 13.5 -36.5t36.5 -13.5h155q22 0 36 13.5t14 36.5zM217 930h70q25 0 25 -25v-80
q0 -25 -25 -25h-70q-25 0 -25 25v80q0 25 25 25zM397 930h70q25 0 25 -25v-80q0 -25 -25 -25h-70q-25 0 -25 25v80q0 25 25 25z" />
    <glyph glyph-name="multiply" unicode="&#xd7;" horiz-adv-x="406" 
d="M288 320l75 -80q15 -15 0 -30l-50 -55q-17 -18 -35 0l-75 80l-75 -80q-18 -18 -35 0l-50 55q-15 15 0 30l75 80l-75 80q-15 15 0 30l50 55q17 18 35 0l75 -80l75 80q18 18 35 0l50 -55q15 -15 0 -30z" />
    <glyph glyph-name="Oslash" unicode="&#xd8;" horiz-adv-x="685" 
d="M620 555v-410q0 -155 -155 -155h-245q-155 0 -155 155v410q0 155 155 155h245q155 0 155 -155zM220 225l195 350h-150q-23 0 -36.5 -13.5t-13.5 -36.5v-300h5zM470 175v300h-5l-195 -350h150q22 0 36 13.5t14 36.5z" />
    <glyph glyph-name="Ugrave" unicode="&#xd9;" horiz-adv-x="685" 
d="M75 145v530q0 25 25 25h100q25 0 25 -25v-500q0 -23 13.5 -36.5t36.5 -13.5h135q22 0 36 13.5t14 36.5v500q0 25 25 25h100q25 0 25 -25v-530q0 -155 -155 -155h-225q-155 0 -155 155zM290 795l-75 130q-6 11 -1.5 18t16.5 7h80q27 0 35 -25l45 -130q4 -11 -0.5 -18
t-14.5 -7h-50q-20 0 -35 25z" />
    <glyph glyph-name="Uacute" unicode="&#xda;" horiz-adv-x="685" 
d="M75 145v530q0 25 25 25h100q25 0 25 -25v-500q0 -23 13.5 -36.5t36.5 -13.5h135q22 0 36 13.5t14 36.5v500q0 25 25 25h100q25 0 25 -25v-530q0 -155 -155 -155h-225q-155 0 -155 155zM470 925l-75 -130q-15 -25 -35 -25h-50q-10 0 -14.5 7t-0.5 18l45 130q8 25 35 25h80
q12 0 16.5 -7t-1.5 -18z" />
    <glyph glyph-name="Ucircumflex" unicode="&#xdb;" horiz-adv-x="685" 
d="M75 145v530q0 25 25 25h100q25 0 25 -25v-500q0 -23 13.5 -36.5t36.5 -13.5h135q22 0 36 13.5t14 36.5v500q0 25 25 25h100q25 0 25 -25v-530q0 -155 -155 -155h-225q-155 0 -155 155zM310 960h65q25 0 40 -25l80 -130q6 -11 1.5 -18t-16.5 -7h-60q-27 0 -40 25l-35 65
h-5l-35 -65q-13 -25 -40 -25h-60q-12 0 -16.5 7t1.5 18l80 130q15 25 40 25z" />
    <glyph glyph-name="Udieresis" unicode="&#xdc;" horiz-adv-x="685" 
d="M75 145v530q0 25 25 25h100q25 0 25 -25v-500q0 -23 13.5 -36.5t36.5 -13.5h135q22 0 36 13.5t14 36.5v500q0 25 25 25h100q25 0 25 -25v-530q0 -155 -155 -155h-225q-155 0 -155 155zM217 930h70q25 0 25 -25v-80q0 -25 -25 -25h-70q-25 0 -25 25v80q0 25 25 25z
M397 930h70q25 0 25 -25v-80q0 -25 -25 -25h-70q-25 0 -25 25v80q0 25 25 25z" />
    <glyph glyph-name="Yacute" unicode="&#xdd;" horiz-adv-x="578" 
d="M164 675l120 -260h10l120 260q12 25 40 25h110q12 0 16.5 -7t-1.5 -18l-215 -435v-215q0 -25 -25 -25h-100q-25 0 -25 25v215l-215 435q-6 11 -1.5 18t16.5 7h110q28 0 40 -25zM420 925l-75 -130q-15 -25 -35 -25h-50q-10 0 -14.5 7t-0.5 18l45 130q8 25 35 25h80
q12 0 16.5 -7t-1.5 -18z" />
    <glyph glyph-name="Thorn" unicode="&#xde;" horiz-adv-x="680" 
d="M225 610h240q155 0 155 -155v-210q0 -155 -155 -155h-240v-65q0 -25 -25 -25h-100q-25 0 -25 25v650q0 25 25 25h100q25 0 25 -25v-65zM225 225h195q22 0 36 13.5t14 36.5v150q0 23 -14 36.5t-36 13.5h-195v-250z" />
    <glyph glyph-name="germandbls" unicode="&#xdf;" horiz-adv-x="540" 
d="M450 570v-120q0 -20 -4.5 -35t-11 -23.5t-13.5 -13.5t-11 -6l-5 -2v-10q3 0 9 -1.5t20.5 -8.5t26 -17t20.5 -30.5t9 -47.5v-125q0 -60 -35 -95t-95 -35h-65q-25 0 -25 25v70q0 25 25 25h20q45 0 45 45v77q0 48 -47 48h-28q-25 0 -25 25v70q0 25 25 25q19 0 27 8t8 27v90
q0 45 -45 45h-35q-45 0 -45 -45v-510q0 -25 -25 -25h-80q-25 0 -25 25v545q0 60 35 95t95 35h125q60 0 95 -35t35 -95z" />
    <glyph glyph-name="agrave" unicode="&#xe0;" horiz-adv-x="495" 
d="M260 400h-35q-19 0 -27 -8t-8 -27q0 -25 -25 -25h-80q-25 0 -25 25v25q0 60 35 95t95 35h115q60 0 95 -35t35 -95v-365q0 -25 -25 -25h-80q-25 0 -25 25v15h-10q-1 -2 -2 -5.5t-7.5 -12t-15 -15t-24.5 -12t-36 -5.5h-40q-60 0 -95 35t-35 95v55q0 60 35 95t95 35h135v50
q0 45 -45 45zM170 160v-15q0 -45 45 -45h35q55 0 55 55v50h-90q-45 0 -45 -45zM205 605l-75 130q-6 11 -1.5 18t16.5 7h80q27 0 35 -25l45 -130q4 -11 -0.5 -18t-14.5 -7h-50q-20 0 -35 25z" />
    <glyph glyph-name="aacute" unicode="&#xe1;" horiz-adv-x="495" 
d="M260 400h-35q-19 0 -27 -8t-8 -27q0 -25 -25 -25h-80q-25 0 -25 25v25q0 60 35 95t95 35h115q60 0 95 -35t35 -95v-365q0 -25 -25 -25h-80q-25 0 -25 25v15h-10q-1 -2 -2 -5.5t-7.5 -12t-15 -15t-24.5 -12t-36 -5.5h-40q-60 0 -95 35t-35 95v55q0 60 35 95t95 35h135v50
q0 45 -45 45zM170 160v-15q0 -45 45 -45h35q55 0 55 55v50h-90q-45 0 -45 -45zM385 735l-75 -130q-15 -25 -35 -25h-50q-10 0 -14.5 7t-0.5 18l45 130q8 25 35 25h80q12 0 16.5 -7t-1.5 -18z" />
    <glyph glyph-name="acircumflex" unicode="&#xe2;" horiz-adv-x="495" 
d="M260 400h-35q-19 0 -27 -8t-8 -27q0 -25 -25 -25h-80q-25 0 -25 25v25q0 60 35 95t95 35h115q60 0 95 -35t35 -95v-365q0 -25 -25 -25h-80q-25 0 -25 25v15h-10q-1 -2 -2 -5.5t-7.5 -12t-15 -15t-24.5 -12t-36 -5.5h-40q-60 0 -95 35t-35 95v55q0 60 35 95t95 35h135v50
q0 45 -45 45zM170 160v-15q0 -45 45 -45h35q55 0 55 55v50h-90q-45 0 -45 -45zM215 760h65q25 0 40 -25l80 -130q6 -11 1.5 -18t-16.5 -7h-60q-27 0 -40 25l-35 65h-5l-35 -65q-13 -25 -40 -25h-60q-12 0 -16.5 7t1.5 18l80 130q15 25 40 25z" />
    <glyph glyph-name="atilde" unicode="&#xe3;" horiz-adv-x="495" 
d="M260 400h-35q-19 0 -27 -8t-8 -27q0 -25 -25 -25h-80q-25 0 -25 25v25q0 60 35 95t95 35h115q60 0 95 -35t35 -95v-365q0 -25 -25 -25h-80q-25 0 -25 25v15h-10q-1 -2 -2 -5.5t-7.5 -12t-15 -15t-24.5 -12t-36 -5.5h-40q-60 0 -95 35t-35 95v55q0 60 35 95t95 35h135v50
q0 45 -45 45zM170 160v-15q0 -45 45 -45h35q55 0 55 55v50h-90q-45 0 -45 -45zM317 575q-22 0 -41 12.5t-32.5 25t-21.5 12.5q-15 0 -15 -15v-15q0 -7 -6.5 -13.5t-13.5 -6.5h-45q-8 0 -14 6.5t-6 13.5v90q0 55 55 55q22 0 41 -12.5t32.5 -25t21.5 -12.5q15 0 15 15v15
q0 8 6.5 14t13.5 6h45q8 0 14 -6t6 -14v-90q0 -55 -55 -55z" />
    <glyph glyph-name="adieresis" unicode="&#xe4;" horiz-adv-x="495" 
d="M260 400h-35q-19 0 -27 -8t-8 -27q0 -25 -25 -25h-80q-25 0 -25 25v25q0 60 35 95t95 35h115q60 0 95 -35t35 -95v-365q0 -25 -25 -25h-80q-25 0 -25 25v15h-10q-1 -2 -2 -5.5t-7.5 -12t-15 -15t-24.5 -12t-36 -5.5h-40q-60 0 -95 35t-35 95v55q0 60 35 95t95 35h135v50
q0 45 -45 45zM170 160v-15q0 -45 45 -45h35q55 0 55 55v50h-90q-45 0 -45 -45zM122 730h70q25 0 25 -25v-80q0 -25 -25 -25h-70q-25 0 -25 25v80q0 25 25 25zM302 730h70q25 0 25 -25v-80q0 -25 -25 -25h-70q-25 0 -25 25v80q0 25 25 25z" />
    <glyph glyph-name="aring" unicode="&#xe5;" horiz-adv-x="495" 
d="M260 400h-35q-19 0 -27 -8t-8 -27q0 -25 -25 -25h-80q-25 0 -25 25v25q0 60 35 95t95 35h115q60 0 95 -35t35 -95v-365q0 -25 -25 -25h-80q-25 0 -25 25v15h-10q-1 -2 -2 -5.5t-7.5 -12t-15 -15t-24.5 -12t-36 -5.5h-40q-60 0 -95 35t-35 95v55q0 60 35 95t95 35h135v50
q0 45 -45 45zM170 160v-15q0 -45 45 -45h35q55 0 55 55v50h-90q-45 0 -45 -45zM350 710v-50q0 -90 -90 -90h-25q-90 0 -90 90v50q0 90 90 90h25q90 0 90 -90zM280 670v30q0 30 -30 30h-5q-30 0 -30 -30v-30q0 -30 27 -30h10q28 0 28 30z" />
    <glyph glyph-name="ae" unicode="&#xe6;" horiz-adv-x="755" 
d="M170 160v-15q0 -45 45 -45h35q55 0 55 55v50h-90q-45 0 -45 -45zM435 360v-45h135v45q0 45 -45 45h-45q-45 0 -45 -45zM285 -10h-115q-60 0 -95 35t-35 95v55q0 60 35 95t95 35h135v50q0 45 -45 45h-35q-19 0 -27 -8t-8 -27q0 -25 -25 -25h-80q-25 0 -25 25v25
q0 60 35 95t95 35h95q29 0 49 -12.5t26 -25.5l5 -12h10q1 2 2 5.5t7.5 12t14.5 15t23 12t33 5.5h115q60 0 95 -35t35 -95v-155q0 -25 -25 -25h-240v-55q0 -45 45 -45h50q19 0 27 8t8 27q0 25 25 25h80q25 0 25 -25v-25q0 -60 -35 -95t-95 -35h-110q-29 0 -49 12.5t-26 25.5
l-5 12h-10q-1 -2 -2 -5.5t-7.5 -12t-14.5 -15t-23 -12t-33 -5.5z" />
    <glyph glyph-name="ccedilla" unicode="&#xe7;" horiz-adv-x="505" 
d="M205 -195h60q11 0 15.5 4.5t4.5 15.5v20q0 11 -4.5 15.5t-15.5 4.5h-50q-11 0 -15.5 4.5t-4.5 15.5v30q0 20 10 40l15 35h-35q-60 0 -95 35t-35 95v270q0 60 35 95t95 35h145q60 0 95 -35t35 -95v-60q0 -25 -25 -25h-80q-25 0 -25 25v25q0 45 -45 45h-55q-45 0 -45 -45
v-200q0 -45 45 -45h55q45 0 45 45v25q0 25 25 25h80q25 0 25 -25v-60q0 -60 -35 -95t-95 -35h-45l-20 -50q48 0 74 -24t26 -66v-35q0 -41 -24.5 -65.5t-65.5 -24.5h-70q-11 0 -15.5 4.5t-4.5 15.5v40q0 11 4.5 15.5t15.5 4.5z" />
    <glyph glyph-name="egrave" unicode="&#xe8;" horiz-adv-x="515" 
d="M230 110h60q19 0 27 8t8 27q0 25 25 25h80q25 0 25 -25v-25q0 -60 -35 -95t-95 -35h-140q-60 0 -95 35t-35 95v270q0 60 35 95t95 35h145q60 0 95 -35t35 -95v-155q0 -25 -25 -25h-250v-55q0 -45 45 -45zM185 360v-45h145v45q0 45 -45 45h-55q-45 0 -45 -45zM205 605
l-75 130q-6 11 -1.5 18t16.5 7h80q27 0 35 -25l45 -130q4 -11 -0.5 -18t-14.5 -7h-50q-20 0 -35 25z" />
    <glyph glyph-name="eacute" unicode="&#xe9;" horiz-adv-x="515" 
d="M230 110h60q19 0 27 8t8 27q0 25 25 25h80q25 0 25 -25v-25q0 -60 -35 -95t-95 -35h-140q-60 0 -95 35t-35 95v270q0 60 35 95t95 35h145q60 0 95 -35t35 -95v-155q0 -25 -25 -25h-250v-55q0 -45 45 -45zM185 360v-45h145v45q0 45 -45 45h-55q-45 0 -45 -45zM390 735
l-75 -130q-15 -25 -35 -25h-50q-10 0 -14.5 7t-0.5 18l45 130q8 25 35 25h80q12 0 16.5 -7t-1.5 -18z" />
    <glyph glyph-name="ecircumflex" unicode="&#xea;" horiz-adv-x="515" 
d="M230 110h60q19 0 27 8t8 27q0 25 25 25h80q25 0 25 -25v-25q0 -60 -35 -95t-95 -35h-140q-60 0 -95 35t-35 95v270q0 60 35 95t95 35h145q60 0 95 -35t35 -95v-155q0 -25 -25 -25h-250v-55q0 -45 45 -45zM185 360v-45h145v45q0 45 -45 45h-55q-45 0 -45 -45zM225 760h65
q25 0 40 -25l80 -130q6 -11 1.5 -18t-16.5 -7h-60q-27 0 -40 25l-35 65h-5l-35 -65q-13 -25 -40 -25h-60q-12 0 -16.5 7t1.5 18l80 130q15 25 40 25z" />
    <glyph glyph-name="edieresis" unicode="&#xeb;" horiz-adv-x="515" 
d="M230 110h60q19 0 27 8t8 27q0 25 25 25h80q25 0 25 -25v-25q0 -60 -35 -95t-95 -35h-140q-60 0 -95 35t-35 95v270q0 60 35 95t95 35h145q60 0 95 -35t35 -95v-155q0 -25 -25 -25h-250v-55q0 -45 45 -45zM185 360v-45h145v45q0 45 -45 45h-55q-45 0 -45 -45zM132 730h70
q25 0 25 -25v-80q0 -25 -25 -25h-70q-25 0 -25 25v80q0 25 25 25zM312 730h70q25 0 25 -25v-80q0 -25 -25 -25h-70q-25 0 -25 25v80q0 25 25 25z" />
    <glyph glyph-name="igrave" unicode="&#xec;" horiz-adv-x="250" 
d="M85 510h80q25 0 25 -25v-460q0 -25 -25 -25h-80q-25 0 -25 25v460q0 25 25 25zM74 605l-75 130q-6 11 -1.5 18t16.5 7h80q27 0 35 -25l45 -130q4 -11 -0.5 -18t-14.5 -7h-50q-20 0 -35 25z" />
    <glyph glyph-name="iacute" unicode="&#xed;" horiz-adv-x="250" 
d="M85 510h80q25 0 25 -25v-460q0 -25 -25 -25h-80q-25 0 -25 25v460q0 25 25 25zM261 735l-75 -130q-15 -25 -35 -25h-50q-10 0 -14.5 7t-0.5 18l45 130q8 25 35 25h80q12 0 16.5 -7t-1.5 -18z" />
    <glyph glyph-name="icircumflex" unicode="&#xee;" horiz-adv-x="263" 
d="M91 510h80q25 0 25 -25v-460q0 -25 -25 -25h-80q-25 0 -25 25v460q0 25 25 25zM99 760h65q25 0 40 -25l80 -130q6 -11 1.5 -18t-16.5 -7h-60q-27 0 -40 25l-35 65h-5l-35 -65q-13 -25 -40 -25h-60q-12 0 -16.5 7t1.5 18l80 130q15 25 40 25z" />
    <glyph glyph-name="idieresis" unicode="&#xef;" horiz-adv-x="250" 
d="M85 510h80q25 0 25 -25v-460q0 -25 -25 -25h-80q-25 0 -25 25v460q0 25 25 25zM0 730h70q25 0 25 -25v-80q0 -25 -25 -25h-70q-25 0 -25 25v80q0 25 25 25zM180 730h70q25 0 25 -25v-80q0 -25 -25 -25h-70q-25 0 -25 25v80q0 25 25 25z" />
    <glyph glyph-name="eth" unicode="&#xf0;" horiz-adv-x="505" 
d="M200 680l15 35q9 22 30 15l60 -25q25 -11 15 -30l-15 -30q77 -35 108.5 -71.5t31.5 -98.5v-355q0 -60 -35 -95t-95 -35h-135q-60 0 -95 35t-35 95v170q0 60 35 95t95 35h135v60q0 41 -50 55l-15 -35q-10 -23 -30 -15l-60 25q-25 11 -15 30l15 30l-40 20q-18 9 -10 30
l25 60q10 24 30 15zM315 300h-90q-45 0 -45 -45v-100q0 -45 45 -45h45q45 0 45 45v145z" />
    <glyph glyph-name="ntilde" unicode="&#xf1;" 
d="M285 520h50q60 0 95 -35t35 -95v-365q0 -25 -25 -25h-80q-25 0 -25 25v330q0 45 -45 45h-45q-55 0 -55 -55v-320q0 -25 -25 -25h-80q-25 0 -25 25v460q0 25 25 25h80q25 0 25 -25v-15h10q1 2 2 5.5t7.5 12t15 15t24.5 12t36 5.5zM330 585q-22 0 -41 12.5t-32.5 25
t-21.5 12.5q-15 0 -15 -15v-15q0 -7 -6 -13.5t-14 -6.5h-45q-7 0 -13.5 6.5t-6.5 13.5v90q0 55 55 55q22 0 41 -12.5t32.5 -25t21.5 -12.5q15 0 15 15v15q0 8 6 14t14 6h45q7 0 13.5 -6t6.5 -14v-90q0 -55 -55 -55z" />
    <glyph glyph-name="ograve" unicode="&#xf2;" 
d="M340 155v200q0 45 -45 45h-65q-45 0 -45 -45v-200q0 -45 45 -45h65q45 0 45 45zM470 390v-270q0 -60 -35 -95t-95 -35h-155q-60 0 -95 35t-35 95v270q0 60 35 95t95 35h155q60 0 95 -35t35 -95zM210 605l-75 130q-6 11 -1.5 18t16.5 7h80q27 0 35 -25l45 -130
q4 -11 -0.5 -18t-14.5 -7h-50q-20 0 -35 25z" />
    <glyph glyph-name="oacute" unicode="&#xf3;" 
d="M340 155v200q0 45 -45 45h-65q-45 0 -45 -45v-200q0 -45 45 -45h65q45 0 45 45zM470 390v-270q0 -60 -35 -95t-95 -35h-155q-60 0 -95 35t-35 95v270q0 60 35 95t95 35h155q60 0 95 -35t35 -95zM400 735l-75 -130q-15 -25 -35 -25h-50q-10 0 -14.5 7t-0.5 18l45 130
q8 25 35 25h80q12 0 16.5 -7t-1.5 -18z" />
    <glyph glyph-name="ocircumflex" unicode="&#xf4;" 
d="M340 155v200q0 45 -45 45h-65q-45 0 -45 -45v-200q0 -45 45 -45h65q45 0 45 45zM470 390v-270q0 -60 -35 -95t-95 -35h-155q-60 0 -95 35t-35 95v270q0 60 35 95t95 35h155q60 0 95 -35t35 -95zM230 760h65q25 0 40 -25l80 -130q6 -11 1.5 -18t-16.5 -7h-60q-27 0 -40 25
l-35 65h-5l-35 -65q-13 -25 -40 -25h-60q-12 0 -16.5 7t1.5 18l80 130q15 25 40 25z" />
    <glyph glyph-name="otilde" unicode="&#xf5;" 
d="M340 155v200q0 45 -45 45h-65q-45 0 -45 -45v-200q0 -45 45 -45h65q45 0 45 45zM470 390v-270q0 -60 -35 -95t-95 -35h-155q-60 0 -95 35t-35 95v270q0 60 35 95t95 35h155q60 0 95 -35t35 -95zM332 585q-22 0 -41 12.5t-32.5 25t-21.5 12.5q-15 0 -15 -15v-15
q0 -7 -6 -13.5t-14 -6.5h-45q-7 0 -13.5 6.5t-6.5 13.5v90q0 55 55 55q22 0 41 -12.5t33 -25t21 -12.5q15 0 15 15v15q0 8 6 14t14 6h45q7 0 13.5 -6t6.5 -14v-90q0 -55 -55 -55z" />
    <glyph glyph-name="odieresis" unicode="&#xf6;" 
d="M340 155v200q0 45 -45 45h-65q-45 0 -45 -45v-200q0 -45 45 -45h65q45 0 45 45zM470 390v-270q0 -60 -35 -95t-95 -35h-155q-60 0 -95 35t-35 95v270q0 60 35 95t95 35h155q60 0 95 -35t35 -95zM137 740h70q25 0 25 -25v-80q0 -25 -25 -25h-70q-25 0 -25 25v80
q0 25 25 25zM317 740h70q25 0 25 -25v-80q0 -25 -25 -25h-70q-25 0 -25 25v80q0 25 25 25z" />
    <glyph glyph-name="divide" unicode="&#xf7;" horiz-adv-x="400" 
d="M350 255h-300q-25 0 -25 25v70q0 25 25 25h300q25 0 25 -25v-70q0 -25 -25 -25zM160 180h80q25 0 25 -25v-85q0 -25 -25 -25h-80q-25 0 -25 25v85q0 25 25 25zM160 585h80q25 0 25 -25v-85q0 -25 -25 -25h-80q-25 0 -25 25v85q0 25 25 25z" />
    <glyph glyph-name="oslash" unicode="&#xf8;" 
d="M470 390v-270q0 -60 -35 -95t-95 -35h-155q-60 0 -95 35t-35 95v270q0 60 35 95t95 35h155q60 0 95 -35t35 -95zM185 195l110 205h-70q-45 0 -45 -45v-160h5zM345 155v160h-5l-110 -205h70q45 0 45 45z" />
    <glyph glyph-name="ugrave" unicode="&#xf9;" 
d="M240 -10h-50q-60 0 -95 35t-35 95v365q0 25 25 25h80q25 0 25 -25v-330q0 -45 45 -45h45q55 0 55 55v320q0 25 25 25h80q25 0 25 -25v-460q0 -25 -25 -25h-80q-25 0 -25 25v15h-10q-1 -2 -2 -5.5t-7.5 -12t-15 -15t-24.5 -12t-36 -5.5zM210 595l-75 130q-6 11 -1.5 18
t16.5 7h80q27 0 35 -25l45 -130q4 -11 -0.5 -18t-14.5 -7h-50q-20 0 -35 25z" />
    <glyph glyph-name="uacute" unicode="&#xfa;" 
d="M240 -10h-50q-60 0 -95 35t-35 95v365q0 25 25 25h80q25 0 25 -25v-330q0 -45 45 -45h45q55 0 55 55v320q0 25 25 25h80q25 0 25 -25v-460q0 -25 -25 -25h-80q-25 0 -25 25v15h-10q-1 -2 -2 -5.5t-7.5 -12t-15 -15t-24.5 -12t-36 -5.5zM390 725l-75 -130q-15 -25 -35 -25
h-50q-10 0 -14.5 7t-0.5 18l45 130q8 25 35 25h80q12 0 16.5 -7t-1.5 -18z" />
    <glyph glyph-name="ucircumflex" unicode="&#xfb;" 
d="M240 -10h-50q-60 0 -95 35t-35 95v365q0 25 25 25h80q25 0 25 -25v-330q0 -45 45 -45h45q55 0 55 55v320q0 25 25 25h80q25 0 25 -25v-460q0 -25 -25 -25h-80q-25 0 -25 25v15h-10q-1 -2 -2 -5.5t-7.5 -12t-15 -15t-24.5 -12t-36 -5.5zM230 750h65q25 0 40 -25l80 -130
q6 -11 1.5 -18t-16.5 -7h-60q-27 0 -40 25l-35 65h-5l-35 -65q-13 -25 -40 -25h-60q-12 0 -16.5 7t1.5 18l80 130q15 25 40 25z" />
    <glyph glyph-name="udieresis" unicode="&#xfc;" 
d="M240 -10h-50q-60 0 -95 35t-35 95v365q0 25 25 25h80q25 0 25 -25v-330q0 -45 45 -45h45q55 0 55 55v320q0 25 25 25h80q25 0 25 -25v-460q0 -25 -25 -25h-80q-25 0 -25 25v15h-10q-1 -2 -2 -5.5t-7.5 -12t-15 -15t-24.5 -12t-36 -5.5zM137 730h70q25 0 25 -25v-80
q0 -25 -25 -25h-70q-25 0 -25 25v80q0 25 25 25zM317 730h70q25 0 25 -25v-80q0 -25 -25 -25h-70q-25 0 -25 25v80q0 25 25 25z" />
    <glyph glyph-name="yacute" unicode="&#xfd;" horiz-adv-x="439" 
d="M232 205l70 280q7 25 35 25h85q10 0 14.5 -7t0.5 -18l-155 -515q-25 -84 -68 -122t-117 -38h-20q-25 0 -25 25v70q0 25 25 25h20q51 0 65 65l-160 490q-4 11 1.5 18t13.5 7h85q27 0 35 -25l85 -280h10zM355 735l-75 -130q-15 -25 -35 -25h-50q-10 0 -14.5 7t-0.5 18
l45 130q8 25 35 25h80q12 0 16.5 -7t-1.5 -18z" />
    <glyph glyph-name="thorn" unicode="&#xfe;" 
d="M170 -190h-80q-25 0 -25 25v840q0 25 25 25h80q25 0 25 -25v-165h145q60 0 95 -35t35 -95v-250q0 -60 -35 -95t-95 -35h-145v-165q0 -25 -25 -25zM295 390h-100v-270h100q45 0 45 45v180q0 45 -45 45z" />
    <glyph glyph-name="ydieresis" unicode="&#xff;" horiz-adv-x="439" 
d="M232 205l70 280q7 25 35 25h85q10 0 14.5 -7t0.5 -18l-155 -515q-25 -84 -68 -122t-117 -38h-20q-25 0 -25 25v70q0 25 25 25h20q51 0 65 65l-160 490q-4 11 1.5 18t13.5 7h85q27 0 35 -25l85 -280h10zM94 740h70q25 0 25 -25v-80q0 -25 -25 -25h-70q-25 0 -25 25v80
q0 25 25 25zM274 740h70q25 0 25 -25v-80q0 -25 -25 -25h-70q-25 0 -25 25v80q0 25 25 25z" />
    <glyph glyph-name="Amacron" unicode="&#x100;" horiz-adv-x="614" 
d="M417 145h-220l-35 -120q-7 -25 -35 -25h-110q-10 0 -14.5 7t-0.5 18l210 650q8 25 35 25h120q27 0 35 -25l210 -650q4 -11 -1 -18t-14 -7h-110q-27 0 -35 25zM237 280h140l-65 220h-10zM412 800h-210q-25 0 -25 25v55q0 25 25 25h210q25 0 25 -25v-55q0 -25 -25 -25z" />
    <glyph glyph-name="amacron" unicode="&#x101;" horiz-adv-x="495" 
d="M260 400h-35q-19 0 -27 -8t-8 -27q0 -25 -25 -25h-80q-25 0 -25 25v25q0 60 35 95t95 35h115q60 0 95 -35t35 -95v-365q0 -25 -25 -25h-80q-25 0 -25 25v15h-10q-1 -2 -2 -5.5t-7.5 -12t-15 -15t-24.5 -12t-36 -5.5h-40q-60 0 -95 35t-35 95v55q0 60 35 95t95 35h135v50
q0 45 -45 45zM170 160v-15q0 -45 45 -45h35q55 0 55 55v50h-90q-45 0 -45 -45zM352 610h-210q-25 0 -25 25v55q0 25 25 25h210q25 0 25 -25v-55q0 -25 -25 -25z" />
    <glyph glyph-name="Abreve" unicode="&#x102;" horiz-adv-x="614" 
d="M417 145h-220l-35 -120q-7 -25 -35 -25h-110q-10 0 -14.5 7t-0.5 18l210 650q8 25 35 25h120q27 0 35 -25l210 -650q4 -11 -1 -18t-14 -7h-110q-27 0 -35 25zM237 280h140l-65 220h-10zM267 915v-20q0 -30 30 -30h20q30 0 30 30v20q0 25 25 25h55q25 0 25 -25v-25
q0 -115 -115 -115h-60q-115 0 -115 115v25q0 25 25 25h55q25 0 25 -25z" />
    <glyph glyph-name="abreve" unicode="&#x103;" horiz-adv-x="495" 
d="M260 400h-35q-19 0 -27 -8t-8 -27q0 -25 -25 -25h-80q-25 0 -25 25v25q0 60 35 95t95 35h115q60 0 95 -35t35 -95v-365q0 -25 -25 -25h-80q-25 0 -25 25v15h-10q-1 -2 -2 -5.5t-7.5 -12t-15 -15t-24.5 -12t-36 -5.5h-40q-60 0 -95 35t-35 95v55q0 60 35 95t95 35h135v50
q0 45 -45 45zM170 160v-15q0 -45 45 -45h35q55 0 55 55v50h-90q-45 0 -45 -45zM207 725v-20q0 -30 30 -30h20q30 0 30 30v20q0 25 25 25h55q25 0 25 -25v-25q0 -115 -115 -115h-60q-115 0 -115 115v25q0 25 25 25h55q25 0 25 -25z" />
    <glyph glyph-name="Aogonek" unicode="&#x104;" horiz-adv-x="614" 
d="M522 0h-35q-27 0 -35 25l-35 120h-220l-35 -120q-7 -25 -35 -25h-110q-10 0 -14.5 7t-0.5 18l210 650q8 25 35 25h120q27 0 35 -25l210 -650q4 -11 -1 -18t-14 -7q-9 -7 -22.5 -19t-35.5 -46t-22 -65q0 -25 30 -25h35q11 0 15.5 -4.5t4.5 -15.5v-45q0 -11 -4.5 -15.5
t-15.5 -4.5h-55q-45 0 -70 25t-25 70q0 27 9.5 51.5t22.5 41t26 29t22 17.5zM237 280h140l-65 220h-10z" />
    <glyph glyph-name="aogonek" unicode="&#x105;" horiz-adv-x="495" 
d="M335 0h-5q-25 0 -25 25v15h-10q-1 -2 -2 -5.5t-7.5 -12t-15 -15t-24.5 -12t-36 -5.5h-40q-60 0 -95 35t-35 95v55q0 60 35 95t95 35h135v50q0 45 -45 45h-35q-19 0 -27 -8t-8 -27q0 -25 -25 -25h-80q-25 0 -25 25v25q0 60 35 95t95 35h115q60 0 95 -35t35 -95v-365
q0 -25 -25 -25q-9 -7 -22.5 -19t-35.5 -46t-22 -65q0 -25 30 -25h35q11 0 15.5 -4.5t4.5 -15.5v-45q0 -11 -4.5 -15.5t-15.5 -4.5h-55q-45 0 -70 25t-25 70q0 27 9.5 51.5t22.5 41t26 29t23 17.5zM170 160v-15q0 -45 45 -45h35q55 0 55 55v50h-90q-45 0 -45 -45z" />
    <glyph glyph-name="Cacute" unicode="&#x106;" horiz-adv-x="660" 
d="M610 555v-65q0 -25 -25 -25h-100q-25 0 -25 25v35q0 23 -14 36.5t-36 13.5h-145q-23 0 -36.5 -13.5t-13.5 -36.5v-350q0 -23 13.5 -36.5t36.5 -13.5h145q22 0 36 13.5t14 36.5v35q0 25 25 25h100q25 0 25 -25v-65q0 -155 -155 -155h-235q-155 0 -155 155v410
q0 155 155 155h235q155 0 155 -155zM470 925l-75 -130q-15 -25 -35 -25h-50q-10 0 -14.5 7t-0.5 18l45 130q8 25 35 25h80q12 0 16.5 -7t-1.5 -18z" />
    <glyph glyph-name="cacute" unicode="&#x107;" horiz-adv-x="505" 
d="M460 390v-60q0 -25 -25 -25h-80q-25 0 -25 25v25q0 45 -45 45h-55q-45 0 -45 -45v-200q0 -45 45 -45h55q45 0 45 45v25q0 25 25 25h80q25 0 25 -25v-60q0 -60 -35 -95t-95 -35h-145q-60 0 -95 35t-35 95v270q0 60 35 95t95 35h145q60 0 95 -35t35 -95zM390 735l-75 -130
q-15 -25 -35 -25h-50q-10 0 -14.5 7t-0.5 18l45 130q8 25 35 25h80q12 0 16.5 -7t-1.5 -18z" />
    <glyph glyph-name="Ccircumflex" unicode="&#x108;" horiz-adv-x="660" 
d="M610 555v-65q0 -25 -25 -25h-100q-25 0 -25 25v35q0 23 -14 36.5t-36 13.5h-145q-23 0 -36.5 -13.5t-13.5 -36.5v-350q0 -23 13.5 -36.5t36.5 -13.5h145q22 0 36 13.5t14 36.5v35q0 25 25 25h100q25 0 25 -25v-65q0 -155 -155 -155h-235q-155 0 -155 155v410
q0 155 155 155h235q155 0 155 -155zM305 950h65q25 0 40 -25l80 -130q6 -11 1.5 -18t-16.5 -7h-60q-27 0 -40 25l-35 65h-5l-35 -65q-13 -25 -40 -25h-60q-12 0 -16.5 7t1.5 18l80 130q15 25 40 25z" />
    <glyph glyph-name="ccircumflex" unicode="&#x109;" horiz-adv-x="505" 
d="M460 390v-60q0 -25 -25 -25h-80q-25 0 -25 25v25q0 45 -45 45h-55q-45 0 -45 -45v-200q0 -45 45 -45h55q45 0 45 45v25q0 25 25 25h80q25 0 25 -25v-60q0 -60 -35 -95t-95 -35h-145q-60 0 -95 35t-35 95v270q0 60 35 95t95 35h145q60 0 95 -35t35 -95zM225 760h65
q25 0 40 -25l80 -130q6 -11 1.5 -18t-16.5 -7h-60q-27 0 -40 25l-35 65h-5l-35 -65q-13 -25 -40 -25h-60q-12 0 -16.5 7t1.5 18l80 130q15 25 40 25z" />
    <glyph glyph-name="Ccaron" unicode="&#x10c;" horiz-adv-x="660" 
d="M610 555v-65q0 -25 -25 -25h-100q-25 0 -25 25v35q0 23 -14 36.5t-36 13.5h-145q-23 0 -36.5 -13.5t-13.5 -36.5v-350q0 -23 13.5 -36.5t36.5 -13.5h145q22 0 36 13.5t14 36.5v35q0 25 25 25h100q25 0 25 -25v-65q0 -155 -155 -155h-235q-155 0 -155 155v410
q0 155 155 155h235q155 0 155 -155zM370 770h-65q-25 0 -40 25l-80 130q-6 11 -1.5 18t16.5 7h60q27 0 40 -25l35 -65h5l35 65q13 25 40 25h60q12 0 16.5 -7t-1.5 -18l-80 -130q-15 -25 -40 -25z" />
    <glyph glyph-name="ccaron" unicode="&#x10d;" horiz-adv-x="505" 
d="M460 390v-60q0 -25 -25 -25h-80q-25 0 -25 25v25q0 45 -45 45h-55q-45 0 -45 -45v-200q0 -45 45 -45h55q45 0 45 45v25q0 25 25 25h80q25 0 25 -25v-60q0 -60 -35 -95t-95 -35h-145q-60 0 -95 35t-35 95v270q0 60 35 95t95 35h145q60 0 95 -35t35 -95zM295 580h-65
q-25 0 -40 25l-80 130q-6 11 -1.5 18t16.5 7h60q27 0 40 -25l35 -65h5l35 65q13 25 40 25h60q12 0 16.5 -7t-1.5 -18l-80 -130q-15 -25 -40 -25z" />
    <glyph glyph-name="Dcaron" unicode="&#x10e;" horiz-adv-x="685" 
d="M100 700h365q155 0 155 -155v-390q0 -155 -155 -155h-365q-25 0 -25 25v650q0 25 25 25zM225 565v-430h195q22 0 36 13.5t14 36.5v330q0 23 -14 36.5t-36 13.5h-195zM370 770h-65q-25 0 -40 25l-80 130q-6 11 -1.5 18t16.5 7h60q27 0 40 -25l35 -65h5l35 65q13 25 40 25
h60q12 0 16.5 -7t-1.5 -18l-80 -130q-15 -25 -40 -25z" />
    <glyph glyph-name="dcaron" unicode="&#x10f;" horiz-adv-x="605" 
d="M235 -10h-50q-60 0 -95 35t-35 95v260q0 60 35 95t95 35h145v165q0 25 25 25h80q25 0 25 -25v-650q0 -25 -25 -25h-80q-25 0 -25 25v15h-10q-1 -2 -2 -5.5t-7.5 -12t-15 -15t-24.5 -12t-36 -5.5zM330 390h-100q-45 0 -45 -45v-190q0 -45 45 -45h45q55 0 55 55v225z
M645 675v-70v-13t-1 -11t-1.5 -8t-2.5 -7.5t-2.5 -6t-3.5 -7t-4 -7.5l-30 -60q-10 -20 -30 -20h-20q-23 0 -15 20l35 85h-25q-25 0 -25 25v80q0 25 25 25h75q25 0 25 -25z" />
    <glyph glyph-name="Dcroat" unicode="&#x110;" horiz-adv-x="700" 
d="M115 700h365q155 0 155 -155v-390q0 -155 -155 -155h-365q-25 0 -25 25v255h-30q-25 0 -25 25v80q0 25 25 25h30v265q0 25 25 25zM240 565v-155h90q25 0 25 -25v-80q0 -25 -25 -25h-90v-145h195q23 0 36.5 13.5t13.5 36.5v330q0 23 -13.5 36.5t-36.5 13.5h-195z" />
    <glyph glyph-name="dcroat" unicode="&#x111;" horiz-adv-x="520" 
d="M230 -10h-50q-60 0 -95 35t-35 95v180q0 60 35 95t95 35h145v70h-68q-25 0 -25 25v70q0 25 25 25h68v55q0 25 25 25h80q25 0 25 -25v-55h30q25 0 25 -25v-70q0 -25 -25 -25h-30v-475q0 -25 -25 -25h-80q-25 0 -25 25v15h-10q-1 -2 -2 -5.5t-7.5 -12t-15 -15t-24.5 -12
t-36 -5.5zM325 310h-100q-45 0 -45 -45v-110q0 -45 45 -45h45q55 0 55 55v145z" />
    <glyph glyph-name="Emacron" unicode="&#x112;" horiz-adv-x="595" 
d="M225 290v-155h320q25 0 25 -25v-85q0 -25 -25 -25h-445q-25 0 -25 25v650q0 25 25 25h435q25 0 25 -25v-85q0 -25 -25 -25h-310v-140h235q25 0 25 -25v-85q0 -25 -25 -25h-235zM425 800h-210q-25 0 -25 25v55q0 25 25 25h210q25 0 25 -25v-55q0 -25 -25 -25z" />
    <glyph glyph-name="emacron" unicode="&#x113;" horiz-adv-x="515" 
d="M230 110h60q19 0 27 8t8 27q0 25 25 25h80q25 0 25 -25v-25q0 -60 -35 -95t-95 -35h-140q-60 0 -95 35t-35 95v270q0 60 35 95t95 35h145q60 0 95 -35t35 -95v-155q0 -25 -25 -25h-250v-55q0 -45 45 -45zM185 360v-45h145v45q0 45 -45 45h-55q-45 0 -45 -45zM362 610
h-210q-25 0 -25 25v55q0 25 25 25h210q25 0 25 -25v-55q0 -25 -25 -25z" />
    <glyph glyph-name="Edotaccent" unicode="&#x116;" horiz-adv-x="595" 
d="M225 290v-155h320q25 0 25 -25v-85q0 -25 -25 -25h-445q-25 0 -25 25v650q0 25 25 25h435q25 0 25 -25v-85q0 -25 -25 -25h-310v-140h235q25 0 25 -25v-85q0 -25 -25 -25h-235zM280 930h80q25 0 25 -25v-80q0 -25 -25 -25h-80q-25 0 -25 25v80q0 25 25 25z" />
    <glyph glyph-name="edotaccent" unicode="&#x117;" horiz-adv-x="515" 
d="M230 110h60q19 0 27 8t8 27q0 25 25 25h80q25 0 25 -25v-25q0 -60 -35 -95t-95 -35h-140q-60 0 -95 35t-35 95v270q0 60 35 95t95 35h145q60 0 95 -35t35 -95v-155q0 -25 -25 -25h-250v-55q0 -45 45 -45zM185 360v-45h145v45q0 45 -45 45h-55q-45 0 -45 -45zM217 730h80
q25 0 25 -25v-80q0 -25 -25 -25h-80q-25 0 -25 25v80q0 25 25 25z" />
    <glyph glyph-name="Eogonek" unicode="&#x118;" horiz-adv-x="595" 
d="M315 0h-215q-25 0 -25 25v650q0 25 25 25h435q25 0 25 -25v-85q0 -25 -25 -25h-310v-140h235q25 0 25 -25v-85q0 -25 -25 -25h-235v-155h320q25 0 25 -25v-85q0 -25 -25 -25h-155q-9 -7 -22.5 -19t-35.5 -46t-22 -65q0 -25 30 -25h35q11 0 15.5 -4.5t4.5 -15.5v-45
q0 -11 -4.5 -15.5t-15.5 -4.5h-55q-45 0 -70 25t-25 70q0 27 9.5 51.5t22.5 41t26 29t23 17.5z" />
    <glyph glyph-name="eogonek" unicode="&#x119;" horiz-adv-x="515" 
d="M230 110h60q19 0 27 8t8 27q0 25 25 25h80q25 0 25 -25v-25q0 -60 -35 -95t-95 -35h-10q-8 -6 -19.5 -17t-31 -42.5t-19.5 -60.5q0 -25 30 -25h35q11 0 15.5 -4.5t4.5 -15.5v-45q0 -11 -4.5 -15.5t-15.5 -4.5h-55q-45 0 -70 25t-25 70q0 38 19 71.5t37 48.5l19 15h-50
q-60 0 -95 35t-35 95v270q0 60 35 95t95 35h145q60 0 95 -35t35 -95v-155q0 -25 -25 -25h-250v-55q0 -45 45 -45zM185 360v-45h145v45q0 45 -45 45h-55q-45 0 -45 -45z" />
    <glyph glyph-name="Ecaron" unicode="&#x11a;" horiz-adv-x="595" 
d="M225 290v-155h320q25 0 25 -25v-85q0 -25 -25 -25h-445q-25 0 -25 25v650q0 25 25 25h435q25 0 25 -25v-85q0 -25 -25 -25h-310v-140h235q25 0 25 -25v-85q0 -25 -25 -25h-235zM353 770h-65q-25 0 -40 25l-80 130q-6 11 -1.5 18t16.5 7h60q27 0 40 -25l35 -65h5l35 65
q13 25 40 25h60q12 0 16.5 -7t-1.5 -18l-80 -130q-15 -25 -40 -25z" />
    <glyph glyph-name="ecaron" unicode="&#x11b;" horiz-adv-x="515" 
d="M230 110h60q19 0 27 8t8 27q0 25 25 25h80q25 0 25 -25v-25q0 -60 -35 -95t-95 -35h-140q-60 0 -95 35t-35 95v270q0 60 35 95t95 35h145q60 0 95 -35t35 -95v-155q0 -25 -25 -25h-250v-55q0 -45 45 -45zM185 360v-45h145v45q0 45 -45 45h-55q-45 0 -45 -45zM290 580h-65
q-25 0 -40 25l-80 130q-6 11 -1.5 18t16.5 7h60q27 0 40 -25l35 -65h5l35 65q13 25 40 25h60q12 0 16.5 -7t-1.5 -18l-80 -130q-15 -25 -40 -25z" />
    <glyph glyph-name="Gbreve" unicode="&#x11e;" horiz-adv-x="675" 
d="M610 365v-220q0 -155 -155 -155h-235q-155 0 -155 155v410q0 155 155 155h235q155 0 155 -155v-65q0 -25 -25 -25h-100q-25 0 -25 25v35q0 23 -14 36.5t-36 13.5h-145q-23 0 -36.5 -13.5t-13.5 -36.5v-350q0 -23 13.5 -36.5t36.5 -13.5h145q22 0 36 13.5t14 36.5v80h-95
q-25 0 -25 25v85q0 25 25 25h220q25 0 25 -25zM297 925v-20q0 -30 30 -30h20q30 0 30 30v20q0 25 25 25h55q25 0 25 -25v-25q0 -115 -115 -115h-60q-115 0 -115 115v25q0 25 25 25h55q25 0 25 -25z" />
    <glyph glyph-name="gbreve" unicode="&#x11f;" horiz-adv-x="520" 
d="M330 -35v75h-145q-60 0 -95 35t-35 95v220q0 60 35 95t95 35h50q20 0 36 -5t24.5 -12.5t14.5 -15t8 -12.5l2 -5h10v15q0 25 25 25h80q25 0 25 -25v-555q0 -60 -35 -95t-95 -35h-135q-60 0 -95 35t-35 95v40q0 25 25 25h80q25 0 25 -25v-5q0 -45 45 -45h45q45 0 45 45z
M230 160h100v185q0 55 -55 55h-45q-45 0 -45 -45v-150q0 -45 45 -45zM220 740v-20q0 -30 30 -30h20q30 0 30 30v20q0 25 25 25h55q25 0 25 -25v-25q0 -115 -115 -115h-60q-115 0 -115 115v25q0 25 25 25h55q25 0 25 -25z" />
    <glyph glyph-name="Gcommaaccent" unicode="&#x122;" horiz-adv-x="675" 
d="M610 365v-220q0 -155 -155 -155h-235q-155 0 -155 155v410q0 155 155 155h235q155 0 155 -155v-65q0 -25 -25 -25h-100q-25 0 -25 25v35q0 23 -14 36.5t-36 13.5h-145q-23 0 -36.5 -13.5t-13.5 -36.5v-350q0 -23 13.5 -36.5t36.5 -13.5h145q22 0 36 13.5t14 36.5v80h-95
q-25 0 -25 25v85q0 25 25 25h220q25 0 25 -25zM400 -115v-70v-13t-1 -11t-1.5 -8t-2.5 -7.5t-2.5 -6t-3.5 -7t-4 -7.5l-30 -60q-10 -20 -30 -20h-20q-23 0 -15 20l35 85h-25q-25 0 -25 25v80q0 25 25 25h75q25 0 25 -25z" />
    <glyph glyph-name="gcommaaccent" unicode="&#x123;" horiz-adv-x="520" 
d="M200 625v70v13t1 11t1.5 8t2.5 7.5t2.5 6t3.5 7t4 7.5l30 60q10 20 30 20h20q23 0 15 -20l-35 -85h25q25 0 25 -25v-80q0 -25 -25 -25h-75q-25 0 -25 25zM330 -35v75h-145q-60 0 -95 35t-35 95v220q0 60 35 95t95 35h50q20 0 36 -5t24.5 -12.5t14.5 -15t8 -12.5l2 -5h10
v15q0 25 25 25h80q25 0 25 -25v-555q0 -60 -35 -95t-95 -35h-135q-60 0 -95 35t-35 95v40q0 25 25 25h80q25 0 25 -25v-5q0 -45 45 -45h45q45 0 45 45zM230 160h100v185q0 55 -55 55h-45q-45 0 -45 -45v-150q0 -45 45 -45z" />
    <glyph glyph-name="Imacron" unicode="&#x12a;" horiz-adv-x="300" 
d="M225 675v-650q0 -25 -25 -25h-100q-25 0 -25 25v650q0 25 25 25h100q25 0 25 -25zM255 810h-210q-25 0 -25 25v55q0 25 25 25h210q25 0 25 -25v-55q0 -25 -25 -25z" />
    <glyph glyph-name="imacron" unicode="&#x12b;" horiz-adv-x="250" 
d="M85 510h80q25 0 25 -25v-460q0 -25 -25 -25h-80q-25 0 -25 25v460q0 25 25 25zM230 610h-210q-25 0 -25 25v55q0 25 25 25h210q25 0 25 -25v-55q0 -25 -25 -25z" />
    <glyph glyph-name="Iogonek" unicode="&#x12e;" horiz-adv-x="300" 
d="M125 0h-25q-25 0 -25 25v650q0 25 25 25h100q25 0 25 -25v-650q0 -25 -25 -25q-9 -7 -22.5 -19t-35.5 -46t-22 -65q0 -25 30 -25h35q11 0 15.5 -4.5t4.5 -15.5v-45q0 -11 -4.5 -15.5t-15.5 -4.5h-55q-45 0 -70 25t-25 70q0 27 9.5 51.5t22.5 41t26 29t23 17.5z" />
    <glyph glyph-name="iogonek" unicode="&#x12f;" horiz-adv-x="250" 
d="M90 0h-5q-25 0 -25 25v450q0 25 25 25h80q25 0 25 -25v-450q0 -25 -25 -25q-9 -7 -22.5 -19t-35.5 -46t-22 -65q0 -25 30 -25h35q11 0 15.5 -4.5t4.5 -15.5v-45q0 -11 -4.5 -15.5t-15.5 -4.5h-55q-45 0 -70 25t-25 70q0 27 9.5 51.5t22.5 41t26 29t22 17.5zM85 710h80
q25 0 25 -25v-80q0 -25 -25 -25h-80q-25 0 -25 25v80q0 25 25 25z" />
    <glyph glyph-name="Idotaccent" unicode="&#x130;" horiz-adv-x="300" 
d="M225 675v-650q0 -25 -25 -25h-100q-25 0 -25 25v650q0 25 25 25h100q25 0 25 -25zM110 920h80q25 0 25 -25v-80q0 -25 -25 -25h-80q-25 0 -25 25v80q0 25 25 25z" />
    <glyph glyph-name="dotlessi" unicode="&#x131;" horiz-adv-x="250" 
d="M85 510h80q25 0 25 -25v-460q0 -25 -25 -25h-80q-25 0 -25 25v460q0 25 25 25z" />
    <glyph glyph-name="Kcommaaccent" unicode="&#x136;" horiz-adv-x="618" 
d="M225 675v-240h95l110 240q12 25 35 25h110q10 0 15 -7t0 -18l-140 -305l160 -345q5 -11 -1.5 -18t-18.5 -7h-100q-28 0 -40 25l-125 275h-100v-275q0 -25 -25 -25h-100q-25 0 -25 25v650q0 25 25 25h100q25 0 25 -25zM405 -115v-70v-13t-1 -11t-1.5 -8t-2.5 -7.5t-2.5 -6
t-3.5 -7t-4 -7.5l-30 -60q-10 -20 -30 -20h-20q-23 0 -15 20l35 85h-25q-25 0 -25 25v80q0 25 25 25h75q25 0 25 -25z" />
    <glyph glyph-name="kcommaaccent" unicode="&#x137;" horiz-adv-x="478" 
d="M90 700h80q25 0 25 -25v-350h55l70 160q12 25 35 25h90q11 0 15.5 -7t-0.5 -18l-105 -215l115 -245q5 -11 0.5 -18t-15.5 -7h-90q-23 0 -35 25l-80 180h-55v-180q0 -25 -25 -25h-80q-25 0 -25 25v650q0 25 25 25zM335 -105v-70v-13t-1 -11t-1.5 -8t-2.5 -7.5t-2.5 -6
t-3.5 -7t-4 -7.5l-30 -60q-10 -20 -30 -20h-20q-23 0 -15 20l35 85h-25q-25 0 -25 25v80q0 25 25 25h75q25 0 25 -25z" />
    <glyph glyph-name="Lacute" unicode="&#x139;" horiz-adv-x="550" 
d="M225 675v-540h300q25 0 25 -25v-85q0 -25 -25 -25h-425q-25 0 -25 25v650q0 25 25 25h100q25 0 25 -25zM285 925l-75 -130q-15 -25 -35 -25h-50q-10 0 -14.5 7t-0.5 18l45 130q8 25 35 25h80q12 0 16.5 -7t-1.5 -18z" />
    <glyph glyph-name="lacute" unicode="&#x13a;" horiz-adv-x="260" 
d="M90 700h80q25 0 25 -25v-650q0 -25 -25 -25h-80q-25 0 -25 25v650q0 25 25 25zM266 925l-75 -130q-15 -25 -35 -25h-50q-10 0 -14.5 7t-0.5 18l45 130q8 25 35 25h80q12 0 16.5 -7t-1.5 -18z" />
    <glyph glyph-name="Lcommaaccent" unicode="&#x13b;" horiz-adv-x="550" 
d="M225 675v-540h300q25 0 25 -25v-85q0 -25 -25 -25h-425q-25 0 -25 25v650q0 25 25 25h100q25 0 25 -25zM380 -115v-70v-13t-1 -11t-1.5 -8t-2.5 -7.5t-2.5 -6t-3.5 -7t-4 -7.5l-30 -60q-10 -20 -30 -20h-20q-23 0 -15 20l35 85h-25q-25 0 -25 25v80q0 25 25 25h75
q25 0 25 -25z" />
    <glyph glyph-name="lcommaaccent" unicode="&#x13c;" horiz-adv-x="260" 
d="M90 700h80q25 0 25 -25v-650q0 -25 -25 -25h-80q-25 0 -25 25v650q0 25 25 25zM193 -115v-70v-13t-1 -11t-1.5 -8t-2.5 -7.5t-2.5 -6t-3.5 -7t-4 -7.5l-30 -60q-10 -20 -30 -20h-20q-23 0 -15 20l35 85h-25q-25 0 -25 25v80q0 25 25 25h75q25 0 25 -25z" />
    <glyph glyph-name="Lcaron" unicode="&#x13d;" horiz-adv-x="550" 
d="M225 675v-540h300q25 0 25 -25v-85q0 -25 -25 -25h-425q-25 0 -25 25v650q0 25 25 25h100q25 0 25 -25zM410 675v-70v-13t-1 -11t-1.5 -8t-2.5 -7.5t-2.5 -6t-3.5 -7t-4 -7.5l-30 -60q-10 -20 -30 -20h-20q-23 0 -15 20l35 85h-25q-25 0 -25 25v80q0 25 25 25h75
q25 0 25 -25z" />
    <glyph glyph-name="lcaron" unicode="&#x13e;" horiz-adv-x="340" 
d="M90 700h80q25 0 25 -25v-650q0 -25 -25 -25h-80q-25 0 -25 25v650q0 25 25 25zM380 675v-70v-13t-1 -11t-1.5 -8t-2.5 -7.5t-2.5 -6t-3.5 -7t-4 -7.5l-30 -60q-10 -20 -30 -20h-20q-23 0 -15 20l35 85h-25q-25 0 -25 25v80q0 25 25 25h75q25 0 25 -25z" />
    <glyph glyph-name="Lslash" unicode="&#x141;" horiz-adv-x="555" 
d="M230 675v-230l50 20q19 7 24.5 4.5t5.5 -14.5v-80q0 -11 -4 -15.5t-16 -9.5l-60 -25v-190h300q25 0 25 -25v-85q0 -25 -25 -25h-425q-25 0 -25 25v235l-40 -15q-19 -7 -24.5 -4.5t-5.5 14.5v80q0 11 4 15.5t16 9.5l50 20v295q0 25 25 25h100q25 0 25 -25z" />
    <glyph glyph-name="lslash" unicode="&#x142;" horiz-adv-x="300" 
d="M110 700h80q25 0 25 -25v-235l45 20q16 6 23 2.5t7 -12.5v-75q0 -21 -20 -30l-55 -25v-295q0 -25 -25 -25h-80q-25 0 -25 25v240l-45 -20q-16 -6 -23 -2.5t-7 12.5v75q0 21 20 30l55 25v290q0 25 25 25z" />
    <glyph glyph-name="Nacute" unicode="&#x143;" horiz-adv-x="700" 
d="M465 265h10v410q0 25 25 25h100q25 0 25 -25v-650q0 -25 -25 -25h-125q-22 0 -35 25l-205 410h-10v-410q0 -25 -25 -25h-100q-25 0 -25 25v650q0 25 25 25h125q22 0 35 -25zM490 925l-75 -130q-15 -25 -35 -25h-50q-10 0 -14.5 7t-0.5 18l45 130q8 25 35 25h80
q12 0 16.5 -7t-1.5 -18z" />
    <glyph glyph-name="nacute" unicode="&#x144;" 
d="M285 520h50q60 0 95 -35t35 -95v-365q0 -25 -25 -25h-80q-25 0 -25 25v330q0 45 -45 45h-45q-55 0 -55 -55v-320q0 -25 -25 -25h-80q-25 0 -25 25v460q0 25 25 25h80q25 0 25 -25v-15h10q1 2 2 5.5t7.5 12t15 15t24.5 12t36 5.5zM385 735l-75 -130q-15 -25 -35 -25h-50
q-10 0 -14.5 7t-0.5 18l45 130q8 25 35 25h80q12 0 16.5 -7t-1.5 -18z" />
    <glyph glyph-name="Ncommaaccent" unicode="&#x145;" horiz-adv-x="700" 
d="M465 265h10v410q0 25 25 25h100q25 0 25 -25v-650q0 -25 -25 -25h-125q-22 0 -35 25l-205 410h-10v-410q0 -25 -25 -25h-100q-25 0 -25 25v650q0 25 25 25h125q22 0 35 -25zM415 -115v-70v-13t-1 -11t-1.5 -8t-2.5 -7.5t-2.5 -6t-3.5 -7t-4 -7.5l-30 -60q-10 -20 -30 -20
h-20q-23 0 -15 20l35 85h-25q-25 0 -25 25v80q0 25 25 25h75q25 0 25 -25z" />
    <glyph glyph-name="ncommaaccent" unicode="&#x146;" 
d="M285 520h50q60 0 95 -35t35 -95v-365q0 -25 -25 -25h-80q-25 0 -25 25v330q0 45 -45 45h-45q-55 0 -55 -55v-320q0 -25 -25 -25h-80q-25 0 -25 25v460q0 25 25 25h80q25 0 25 -25v-15h10q1 2 2 5.5t7.5 12t15 15t24.5 12t36 5.5zM325 -105v-70v-13t-1 -11t-1.5 -8
t-2.5 -7.5t-2.5 -6t-3.5 -7t-4 -7.5l-30 -60q-10 -20 -30 -20h-20q-23 0 -15 20l35 85h-25q-25 0 -25 25v80q0 25 25 25h75q25 0 25 -25z" />
    <glyph glyph-name="Ncaron" unicode="&#x147;" horiz-adv-x="700" 
d="M465 265h10v410q0 25 25 25h100q25 0 25 -25v-650q0 -25 -25 -25h-125q-22 0 -35 25l-205 410h-10v-410q0 -25 -25 -25h-100q-25 0 -25 25v650q0 25 25 25h125q22 0 35 -25zM385 770h-65q-25 0 -40 25l-80 130q-6 11 -1.5 18t16.5 7h60q27 0 40 -25l35 -65h5l35 65
q13 25 40 25h60q12 0 16.5 -7t-1.5 -18l-80 -130q-15 -25 -40 -25z" />
    <glyph glyph-name="ncaron" unicode="&#x148;" 
d="M285 520h50q60 0 95 -35t35 -95v-365q0 -25 -25 -25h-80q-25 0 -25 25v330q0 45 -45 45h-45q-55 0 -55 -55v-320q0 -25 -25 -25h-80q-25 0 -25 25v460q0 25 25 25h80q25 0 25 -25v-15h10q1 2 2 5.5t7.5 12t15 15t24.5 12t36 5.5zM295 580h-65q-25 0 -40 25l-80 130
q-6 11 -1.5 18t16.5 7h60q27 0 40 -25l35 -65h5l35 65q13 25 40 25h60q12 0 16.5 -7t-1.5 -18l-80 -130q-15 -25 -40 -25z" />
    <glyph glyph-name="Omacron" unicode="&#x14c;" horiz-adv-x="685" 
d="M620 555v-410q0 -155 -155 -155h-245q-155 0 -155 155v410q0 155 155 155h245q155 0 155 -155zM470 175v350q0 23 -14 36.5t-36 13.5h-155q-23 0 -36.5 -13.5t-13.5 -36.5v-350q0 -23 13.5 -36.5t36.5 -13.5h155q22 0 36 13.5t14 36.5zM447 810h-210q-25 0 -25 25v55
q0 25 25 25h210q25 0 25 -25v-55q0 -25 -25 -25z" />
    <glyph glyph-name="omacron" unicode="&#x14d;" 
d="M340 155v200q0 45 -45 45h-65q-45 0 -45 -45v-200q0 -45 45 -45h65q45 0 45 45zM470 390v-270q0 -60 -35 -95t-95 -35h-155q-60 0 -95 35t-35 95v270q0 60 35 95t95 35h155q60 0 95 -35t35 -95zM367 610h-210q-25 0 -25 25v55q0 25 25 25h210q25 0 25 -25v-55
q0 -25 -25 -25z" />
    <glyph glyph-name="Ohungarumlaut" unicode="&#x150;" horiz-adv-x="685" 
d="M620 555v-410q0 -155 -155 -155h-245q-155 0 -155 155v410q0 155 155 155h245q155 0 155 -155zM470 175v350q0 23 -14 36.5t-36 13.5h-155q-23 0 -36.5 -13.5t-13.5 -36.5v-350q0 -23 13.5 -36.5t36.5 -13.5h155q22 0 36 13.5t14 36.5zM385 935l-75 -130q-13 -25 -35 -25
h-30q-8 0 -13.5 7t-1.5 18l40 130q8 25 35 25h65q12 0 16.5 -7t-1.5 -18zM540 935l-75 -130q-13 -25 -35 -25h-30q-8 0 -13.5 7t-1.5 18l40 130q8 25 35 25h65q12 0 16.5 -7t-1.5 -18z" />
    <glyph glyph-name="ohungarumlaut" unicode="&#x151;" 
d="M310 735l-75 -130q-13 -25 -35 -25h-30q-8 0 -13.5 7t-1.5 18l40 130q8 25 35 25h65q12 0 16.5 -7t-1.5 -18zM465 735l-75 -130q-13 -25 -35 -25h-30q-8 0 -13.5 7t-1.5 18l40 130q8 25 35 25h65q12 0 16.5 -7t-1.5 -18zM340 155v200q0 45 -45 45h-65q-45 0 -45 -45v-200
q0 -45 45 -45h65q45 0 45 45zM470 390v-270q0 -60 -35 -95t-95 -35h-155q-60 0 -95 35t-35 95v270q0 60 35 95t95 35h155q60 0 95 -35t35 -95z" />
    <glyph glyph-name="OE" unicode="&#x152;" horiz-adv-x="925" 
d="M220 700h645q25 0 25 -25v-85q0 -25 -25 -25h-285v-140h210q25 0 25 -25v-85q0 -25 -25 -25h-210v-155h295q25 0 25 -25v-85q0 -25 -25 -25h-655q-155 0 -155 155v390q0 155 155 155zM215 515v-330q0 -23 13.5 -36.5t36.5 -13.5h165v430h-165q-23 0 -36.5 -13.5
t-13.5 -36.5z" />
    <glyph glyph-name="oe" unicode="&#x153;" horiz-adv-x="775" 
d="M325 155v200q0 45 -45 45h-50q-45 0 -45 -45v-200q0 -45 45 -45h50q45 0 45 45zM455 360v-45h135v45q0 45 -45 45h-45q-45 0 -45 -45zM305 -10h-120q-60 0 -95 35t-35 95v270q0 60 35 95t95 35h120q29 0 49 -12.5t26 -25.5l5 -12h10q1 2 2 5.5t7.5 12t14.5 15t23 12
t33 5.5h115q60 0 95 -35t35 -95v-155q0 -25 -25 -25h-240v-55q0 -45 45 -45h50q19 0 27 8t8 27q0 25 25 25h80q25 0 25 -25v-25q0 -60 -35 -95t-95 -35h-110q-29 0 -49 12.5t-26 25.5l-5 12h-10q-1 -2 -2 -5.5t-7.5 -12t-14.5 -15t-23 -12t-33 -5.5z" />
    <glyph glyph-name="Racute" unicode="&#x154;" horiz-adv-x="658" 
d="M600 375q0 -38 -10 -66.5t-24 -43t-27.5 -23t-23.5 -10.5l-10 -2l100 -205q5 -10 -0.5 -17.5t-14.5 -7.5h-108q-25 0 -37 25l-90 195h-130v-195q0 -25 -25 -25h-100q-25 0 -25 25v650q0 25 25 25h345q155 0 155 -155v-170zM400 565h-175v-210h175q22 0 36 13.5t14 36.5
v110q0 23 -14 36.5t-36 13.5zM455 925l-75 -130q-15 -25 -35 -25h-50q-10 0 -14.5 7t-0.5 18l45 130q8 25 35 25h80q12 0 16.5 -7t-1.5 -18z" />
    <glyph glyph-name="racute" unicode="&#x155;" horiz-adv-x="345" 
d="M335 495v-80q0 -25 -25 -25h-65q-55 0 -55 -55v-310q0 -25 -25 -25h-80q-25 0 -25 25v460q0 25 25 25h80q25 0 25 -25v-15h10q1 2 2 5.5t7.5 12t15 15t24.5 12t36 5.5h25q25 0 25 -25zM325 735l-75 -130q-15 -25 -35 -25h-50q-10 0 -14.5 7t-0.5 18l45 130q8 25 35 25h80
q12 0 16.5 -7t-1.5 -18z" />
    <glyph glyph-name="Rcommaaccent" unicode="&#x156;" horiz-adv-x="658" 
d="M600 375q0 -38 -10 -66.5t-24 -43t-27.5 -23t-23.5 -10.5l-10 -2l100 -205q5 -10 -0.5 -17.5t-14.5 -7.5h-108q-25 0 -37 25l-90 195h-130v-195q0 -25 -25 -25h-100q-25 0 -25 25v650q0 25 25 25h345q155 0 155 -155v-170zM400 565h-175v-210h175q22 0 36 13.5t14 36.5
v110q0 23 -14 36.5t-36 13.5zM405 -105v-70v-13t-1 -11t-1.5 -8t-2.5 -7.5t-2.5 -6t-3.5 -7t-4 -7.5l-30 -60q-10 -20 -30 -20h-20q-23 0 -15 20l35 85h-25q-25 0 -25 25v80q0 25 25 25h75q25 0 25 -25z" />
    <glyph glyph-name="rcommaaccent" unicode="&#x157;" horiz-adv-x="345" 
d="M335 495v-80q0 -25 -25 -25h-65q-55 0 -55 -55v-310q0 -25 -25 -25h-80q-25 0 -25 25v460q0 25 25 25h80q25 0 25 -25v-15h10q1 2 2 5.5t7.5 12t15 15t24.5 12t36 5.5h25q25 0 25 -25zM188 -105v-70v-13t-1 -11t-1.5 -8t-2.5 -7.5t-2.5 -6t-3.5 -7t-4 -7.5l-30 -60
q-10 -20 -30 -20h-20q-23 0 -15 20l35 85h-25q-25 0 -25 25v80q0 25 25 25h75q25 0 25 -25z" />
    <glyph glyph-name="Rcaron" unicode="&#x158;" horiz-adv-x="658" 
d="M600 375q0 -38 -10 -66.5t-24 -43t-27.5 -23t-23.5 -10.5l-10 -2l100 -205q5 -10 -0.5 -17.5t-14.5 -7.5h-108q-25 0 -37 25l-90 195h-130v-195q0 -25 -25 -25h-100q-25 0 -25 25v650q0 25 25 25h345q155 0 155 -155v-170zM400 565h-175v-210h175q22 0 36 13.5t14 36.5
v110q0 23 -14 36.5t-36 13.5zM360 770h-65q-25 0 -40 25l-80 130q-6 11 -1.5 18t16.5 7h60q27 0 40 -25l35 -65h5l35 65q13 25 40 25h60q12 0 16.5 -7t-1.5 -18l-80 -130q-15 -25 -40 -25z" />
    <glyph glyph-name="rcaron" unicode="&#x159;" horiz-adv-x="343" 
d="M333 495v-80q0 -25 -25 -25h-65q-55 0 -55 -55v-310q0 -25 -25 -25h-80q-25 0 -25 25v460q0 25 25 25h80q25 0 25 -25v-15h10q1 2 2 5.5t7.5 12t15 15t24.5 12t36 5.5h25q25 0 25 -25zM229 580h-65q-25 0 -40 25l-80 130q-6 11 -1.5 18t16.5 7h60q27 0 40 -25l35 -65h5
l35 65q13 25 40 25h60q12 0 16.5 -7t-1.5 -18l-80 -130q-15 -25 -40 -25z" />
    <glyph glyph-name="Sacute" unicode="&#x15a;" horiz-adv-x="615" 
d="M420 175v30q0 18 -8 27.5t-27 17.5l-220 85q-59 23 -84.5 55.5t-25.5 94.5v70q0 155 155 155h195q155 0 155 -155v-65q0 -25 -25 -25h-100q-25 0 -25 25v35q0 23 -14 36.5t-36 13.5h-105q-23 0 -36.5 -13.5t-13.5 -36.5v-30q0 -18 8 -27.5t27 -17.5l220 -85
q59 -23 84.5 -55.5t25.5 -94.5v-70q0 -155 -155 -155h-215q-155 0 -155 155v65q0 25 25 25h100q25 0 25 -25v-35q0 -23 13.5 -36.5t36.5 -13.5h125q22 0 36 13.5t14 36.5zM440 925l-75 -130q-15 -25 -35 -25h-50q-10 0 -14.5 7t-0.5 18l45 130q8 25 35 25h80q12 0 16.5 -7
t-1.5 -18z" />
    <glyph glyph-name="sacute" unicode="&#x15b;" horiz-adv-x="470" 
d="M175 520h120q60 0 95 -35t35 -95v-30q0 -25 -25 -25h-80q-25 0 -25 25v5q0 19 -8 27t-27 8h-50q-19 0 -27 -8t-8 -27v-5q0 -11 9 -19t31 -16l130 -50q51 -20 70.5 -45.5t19.5 -79.5v-30q0 -60 -35 -95t-95 -35h-140q-60 0 -95 35t-35 95v35q0 25 25 25h80q25 0 25 -25
v-10q0 -19 8 -27t27 -8h70q19 0 27 8t8 27v5q0 11 -9 19t-31 16l-130 50q-51 20 -70.5 45.5t-19.5 79.5v30q0 60 35 95t95 35zM360 735l-75 -130q-15 -25 -35 -25h-50q-10 0 -14.5 7t-0.5 18l45 130q8 25 35 25h80q12 0 16.5 -7t-1.5 -18z" />
    <glyph glyph-name="Scedilla" unicode="&#x15e;" horiz-adv-x="615" 
d="M260 -195h60q11 0 15.5 4.5t4.5 15.5v20q0 11 -4.5 15.5t-15.5 4.5h-50q-11 0 -15.5 4.5t-4.5 15.5v30q0 20 10 40l15 35h-75q-155 0 -155 155v65q0 25 25 25h100q25 0 25 -25v-35q0 -23 13.5 -36.5t36.5 -13.5h125q22 0 36 13.5t14 36.5v30q0 18 -8 27.5t-27 17.5
l-220 85q-59 23 -84.5 55.5t-25.5 94.5v70q0 155 155 155h195q155 0 155 -155v-65q0 -25 -25 -25h-100q-25 0 -25 25v35q0 23 -14 36.5t-36 13.5h-105q-23 0 -36.5 -13.5t-13.5 -36.5v-30q0 -18 8 -27.5t27 -17.5l220 -85q59 -23 84.5 -55.5t25.5 -94.5v-70
q0 -155 -155 -155h-75l-20 -50q48 0 74 -24t26 -66v-35q0 -41 -24.5 -65.5t-65.5 -24.5h-70q-11 0 -15.5 4.5t-4.5 15.5v40q0 11 4.5 15.5t15.5 4.5z" />
    <glyph glyph-name="scedilla" unicode="&#x15f;" horiz-adv-x="470" 
d="M190 -195h60q11 0 15.5 4.5t4.5 15.5v20q0 11 -4.5 15.5t-15.5 4.5h-50q-11 0 -15.5 4.5t-4.5 15.5v30q0 20 10 40l15 35h-40q-60 0 -95 35t-35 95v35q0 25 25 25h80q25 0 25 -25v-10q0 -19 8 -27t27 -8h70q19 0 27 8t8 27v5q0 11 -9 19t-31 16l-130 50
q-51 20 -70.5 45.5t-19.5 79.5v30q0 60 35 95t95 35h120q60 0 95 -35t35 -95v-30q0 -25 -25 -25h-80q-25 0 -25 25v5q0 19 -8 27t-27 8h-50q-19 0 -27 -8t-8 -27v-5q0 -11 9 -19t31 -16l130 -50q51 -20 70.5 -45.5t19.5 -79.5v-30q0 -60 -35 -95t-95 -35h-35l-20 -50
q48 0 74 -24t26 -66v-35q0 -41 -24.5 -65.5t-65.5 -24.5h-70q-11 0 -15.5 4.5t-4.5 15.5v40q0 11 4.5 15.5t15.5 4.5z" />
    <glyph glyph-name="Scaron" unicode="&#x160;" horiz-adv-x="615" 
d="M420 175v30q0 18 -8 27.5t-27 17.5l-220 85q-59 23 -84.5 55.5t-25.5 94.5v70q0 155 155 155h195q155 0 155 -155v-65q0 -25 -25 -25h-100q-25 0 -25 25v35q0 23 -14 36.5t-36 13.5h-105q-23 0 -36.5 -13.5t-13.5 -36.5v-30q0 -18 8 -27.5t27 -17.5l220 -85
q59 -23 84.5 -55.5t25.5 -94.5v-70q0 -155 -155 -155h-215q-155 0 -155 155v65q0 25 25 25h100q25 0 25 -25v-35q0 -23 13.5 -36.5t36.5 -13.5h125q22 0 36 13.5t14 36.5zM340 770h-65q-25 0 -40 25l-80 130q-6 11 -1.5 18t16.5 7h60q27 0 40 -25l35 -65h5l35 65
q13 25 40 25h60q12 0 16.5 -7t-1.5 -18l-80 -130q-15 -25 -40 -25z" />
    <glyph glyph-name="scaron" unicode="&#x161;" horiz-adv-x="470" 
d="M175 520h120q60 0 95 -35t35 -95v-30q0 -25 -25 -25h-80q-25 0 -25 25v5q0 19 -8 27t-27 8h-50q-19 0 -27 -8t-8 -27v-5q0 -11 9 -19t31 -16l130 -50q51 -20 70.5 -45.5t19.5 -79.5v-30q0 -60 -35 -95t-95 -35h-140q-60 0 -95 35t-35 95v35q0 25 25 25h80q25 0 25 -25
v-10q0 -19 8 -27t27 -8h70q19 0 27 8t8 27v5q0 11 -9 19t-31 16l-130 50q-51 20 -70.5 45.5t-19.5 79.5v30q0 60 35 95t95 35zM268 580h-65q-25 0 -40 25l-80 130q-6 11 -1.5 18t16.5 7h60q27 0 40 -25l35 -65h5l35 65q13 25 40 25h60q12 0 16.5 -7t-1.5 -18l-80 -130
q-15 -25 -40 -25z" />
    <glyph glyph-name="Tcommaaccent" unicode="&#x162;" horiz-adv-x="540" 
d="M345 565v-540q0 -25 -25 -25h-100q-25 0 -25 25v540h-160q-25 0 -25 25v85q0 25 25 25h470q25 0 25 -25v-85q0 -25 -25 -25h-160zM333 -105v-70v-13t-1 -11t-1.5 -8t-2.5 -7.5t-2.5 -6t-3.5 -7t-4 -7.5l-30 -60q-10 -20 -30 -20h-20q-23 0 -15 20l35 85h-25q-25 0 -25 25
v80q0 25 25 25h75q25 0 25 -25z" />
    <glyph glyph-name="tcommaaccent" unicode="&#x163;" horiz-adv-x="355" 
d="M225 510h60q25 0 25 -25v-70q0 -25 -25 -25h-60v-225q0 -45 45 -45h30q25 0 25 -25v-70q0 -25 -25 -25h-75q-60 0 -95 35t-35 95v260h-40q-25 0 -25 25v70q0 25 25 25h40v95q0 25 25 25h80q25 0 25 -25v-95zM270 -115v-70v-13t-1 -11t-1.5 -8t-2.5 -7.5t-2.5 -6t-3.5 -7
t-4 -7.5l-30 -60q-10 -20 -30 -20h-20q-23 0 -15 20l35 85h-25q-25 0 -25 25v80q0 25 25 25h75q25 0 25 -25z" />
    <glyph glyph-name="Tcaron" unicode="&#x164;" horiz-adv-x="540" 
d="M345 565v-540q0 -25 -25 -25h-100q-25 0 -25 25v540h-160q-25 0 -25 25v85q0 25 25 25h470q25 0 25 -25v-85q0 -25 -25 -25h-160zM303 770h-65q-25 0 -40 25l-80 130q-6 11 -1.5 18t16.5 7h60q27 0 40 -25l35 -65h5l35 65q13 25 40 25h60q12 0 16.5 -7t-1.5 -18l-80 -130
q-15 -25 -40 -25z" />
    <glyph glyph-name="tcaron" unicode="&#x165;" horiz-adv-x="430" 
d="M225 510h60q25 0 25 -25v-70q0 -25 -25 -25h-60v-225q0 -45 45 -45h30q25 0 25 -25v-70q0 -25 -25 -25h-75q-60 0 -95 35t-35 95v260h-40q-25 0 -25 25v70q0 25 25 25h40v95q0 25 25 25h80q25 0 25 -25v-95zM470 675v-70v-13t-1 -11t-1.5 -8t-2.5 -7.5t-2.5 -6t-3.5 -7
t-4 -7.5l-30 -60q-10 -20 -30 -20h-20q-23 0 -15 20l35 85h-25q-25 0 -25 25v80q0 25 25 25h75q25 0 25 -25z" />
    <glyph glyph-name="Umacron" unicode="&#x16a;" horiz-adv-x="685" 
d="M75 145v530q0 25 25 25h100q25 0 25 -25v-500q0 -23 13.5 -36.5t36.5 -13.5h135q22 0 36 13.5t14 36.5v500q0 25 25 25h100q25 0 25 -25v-530q0 -155 -155 -155h-225q-155 0 -155 155zM447 810h-210q-25 0 -25 25v55q0 25 25 25h210q25 0 25 -25v-55q0 -25 -25 -25z" />
    <glyph glyph-name="umacron" unicode="&#x16b;" 
d="M240 -10h-50q-60 0 -95 35t-35 95v365q0 25 25 25h80q25 0 25 -25v-330q0 -45 45 -45h45q55 0 55 55v320q0 25 25 25h80q25 0 25 -25v-460q0 -25 -25 -25h-80q-25 0 -25 25v15h-10q-1 -2 -2 -5.5t-7.5 -12t-15 -15t-24.5 -12t-36 -5.5zM367 610h-210q-25 0 -25 25v55
q0 25 25 25h210q25 0 25 -25v-55q0 -25 -25 -25z" />
    <glyph glyph-name="Uring" unicode="&#x16e;" horiz-adv-x="685" 
d="M75 145v530q0 25 25 25h100q25 0 25 -25v-500q0 -23 13.5 -36.5t36.5 -13.5h135q22 0 36 13.5t14 36.5v500q0 25 25 25h100q25 0 25 -25v-530q0 -155 -155 -155h-225q-155 0 -155 155zM445 900v-50q0 -90 -90 -90h-25q-90 0 -90 90v50q0 90 90 90h25q90 0 90 -90z
M375 860v30q0 30 -30 30h-5q-30 0 -30 -30v-30q0 -30 27 -30h10q28 0 28 30z" />
    <glyph glyph-name="uring" unicode="&#x16f;" 
d="M240 -10h-50q-60 0 -95 35t-35 95v365q0 25 25 25h80q25 0 25 -25v-330q0 -45 45 -45h45q55 0 55 55v320q0 25 25 25h80q25 0 25 -25v-460q0 -25 -25 -25h-80q-25 0 -25 25v15h-10q-1 -2 -2 -5.5t-7.5 -12t-15 -15t-24.5 -12t-36 -5.5zM365 710v-50q0 -90 -90 -90h-25
q-90 0 -90 90v50q0 90 90 90h25q90 0 90 -90zM295 670v30q0 30 -30 30h-5q-30 0 -30 -30v-30q0 -30 27 -30h10q28 0 28 30z" />
    <glyph glyph-name="Uhungarumlaut" unicode="&#x170;" horiz-adv-x="685" 
d="M75 145v530q0 25 25 25h100q25 0 25 -25v-500q0 -23 13.5 -36.5t36.5 -13.5h135q22 0 36 13.5t14 36.5v500q0 25 25 25h100q25 0 25 -25v-530q0 -155 -155 -155h-225q-155 0 -155 155zM385 925l-75 -130q-13 -25 -35 -25h-30q-8 0 -13.5 7t-1.5 18l40 130q8 25 35 25h65
q12 0 16.5 -7t-1.5 -18zM540 925l-75 -130q-13 -25 -35 -25h-30q-8 0 -13.5 7t-1.5 18l40 130q8 25 35 25h65q12 0 16.5 -7t-1.5 -18z" />
    <glyph glyph-name="uhungarumlaut" unicode="&#x171;" 
d="M240 -10h-50q-60 0 -95 35t-35 95v365q0 25 25 25h80q25 0 25 -25v-330q0 -45 45 -45h45q55 0 55 55v320q0 25 25 25h80q25 0 25 -25v-460q0 -25 -25 -25h-80q-25 0 -25 25v15h-10q-1 -2 -2 -5.5t-7.5 -12t-15 -15t-24.5 -12t-36 -5.5zM305 725l-75 -130q-13 -25 -35 -25
h-30q-8 0 -13.5 7t-1.5 18l40 130q8 25 35 25h65q12 0 16.5 -7t-1.5 -18zM460 725l-75 -130q-13 -25 -35 -25h-30q-8 0 -13.5 7t-1.5 18l40 130q8 25 35 25h65q12 0 16.5 -7t-1.5 -18z" />
    <glyph glyph-name="Uogonek" unicode="&#x172;" horiz-adv-x="685" 
d="M75 145v530q0 25 25 25h100q25 0 25 -25v-500q0 -23 13.5 -36.5t36.5 -13.5h135q22 0 36 13.5t14 36.5v500q0 25 25 25h100q25 0 25 -25v-530q0 -155 -155 -155h-35q-8 -6 -19.5 -17t-31 -42.5t-19.5 -60.5q0 -25 30 -25h35q11 0 15.5 -4.5t4.5 -15.5v-45
q0 -11 -4.5 -15.5t-15.5 -4.5h-55q-45 0 -70 25t-25 70q0 38 18.5 71.5t37.5 48.5l19 15h-110q-155 0 -155 155z" />
    <glyph glyph-name="uogonek" unicode="&#x173;" 
d="M365 0h-5q-25 0 -25 25v15h-10q-1 -2 -2 -5.5t-7.5 -12t-15 -15t-24.5 -12t-36 -5.5h-50q-60 0 -95 35t-35 95v365q0 25 25 25h80q25 0 25 -25v-330q0 -45 45 -45h45q55 0 55 55v320q0 25 25 25h80q25 0 25 -25v-460q0 -25 -25 -25q-9 -7 -22.5 -19t-35.5 -46t-22 -65
q0 -25 30 -25h35q11 0 15.5 -4.5t4.5 -15.5v-45q0 -11 -4.5 -15.5t-15.5 -4.5h-55q-45 0 -70 25t-25 70q0 27 9.5 51.5t22.5 41t26 29t23 17.5z" />
    <glyph glyph-name="Ydieresis" unicode="&#x178;" horiz-adv-x="578" 
d="M164 675l120 -260h10l120 260q12 25 40 25h110q12 0 16.5 -7t-1.5 -18l-215 -435v-215q0 -25 -25 -25h-100q-25 0 -25 25v215l-215 435q-6 11 -1.5 18t16.5 7h110q28 0 40 -25zM164 930h70q25 0 25 -25v-80q0 -25 -25 -25h-70q-25 0 -25 25v80q0 25 25 25zM344 930h70
q25 0 25 -25v-80q0 -25 -25 -25h-70q-25 0 -25 25v80q0 25 25 25z" />
    <glyph glyph-name="Zacute" unicode="&#x179;" horiz-adv-x="565" 
d="M350 555v10h-285q-25 0 -25 25v85q0 25 25 25h440q25 0 25 -25v-85q0 -40 -20 -65l-300 -380v-10h300q25 0 25 -25v-85q0 -25 -25 -25h-455q-25 0 -25 25v85q0 40 20 65zM420 925l-75 -130q-15 -25 -35 -25h-50q-10 0 -14.5 7t-0.5 18l45 130q8 25 35 25h80q12 0 16.5 -7
t-1.5 -18z" />
    <glyph glyph-name="zacute" unicode="&#x17a;" horiz-adv-x="430" 
d="M240 380v10h-180q-25 0 -25 25v70q0 25 25 25h315q25 0 25 -25v-75q0 -38 -20 -60l-195 -220v-10h195q25 0 25 -25v-70q0 -25 -25 -25h-330q-25 0 -25 25v75q0 38 20 60zM355 725l-75 -130q-15 -25 -35 -25h-50q-10 0 -14.5 7t-0.5 18l45 130q8 25 35 25h80q12 0 16.5 -7
t-1.5 -18z" />
    <glyph glyph-name="Zdotaccent" unicode="&#x17b;" horiz-adv-x="565" 
d="M350 555v10h-285q-25 0 -25 25v85q0 25 25 25h440q25 0 25 -25v-85q0 -40 -20 -65l-300 -380v-10h300q25 0 25 -25v-85q0 -25 -25 -25h-455q-25 0 -25 25v85q0 40 20 65zM245 930h80q25 0 25 -25v-80q0 -25 -25 -25h-80q-25 0 -25 25v80q0 25 25 25z" />
    <glyph glyph-name="zdotaccent" unicode="&#x17c;" horiz-adv-x="430" 
d="M240 380v10h-180q-25 0 -25 25v70q0 25 25 25h315q25 0 25 -25v-75q0 -38 -20 -60l-195 -220v-10h195q25 0 25 -25v-70q0 -25 -25 -25h-330q-25 0 -25 25v75q0 38 20 60zM180 730h80q25 0 25 -25v-80q0 -25 -25 -25h-80q-25 0 -25 25v80q0 25 25 25z" />
    <glyph glyph-name="Zcaron" unicode="&#x17d;" horiz-adv-x="565" 
d="M350 555v10h-285q-25 0 -25 25v85q0 25 25 25h440q25 0 25 -25v-85q0 -40 -20 -65l-300 -380v-10h300q25 0 25 -25v-85q0 -25 -25 -25h-455q-25 0 -25 25v85q0 40 20 65zM318 770h-65q-25 0 -40 25l-80 130q-6 11 -1.5 18t16.5 7h60q27 0 40 -25l35 -65h5l35 65
q13 25 40 25h60q12 0 16.5 -7t-1.5 -18l-80 -130q-15 -25 -40 -25z" />
    <glyph glyph-name="zcaron" unicode="&#x17e;" horiz-adv-x="430" 
d="M240 380v10h-180q-25 0 -25 25v70q0 25 25 25h315q25 0 25 -25v-75q0 -38 -20 -60l-195 -220v-10h195q25 0 25 -25v-70q0 -25 -25 -25h-330q-25 0 -25 25v75q0 38 20 60zM253 570h-65q-25 0 -40 25l-80 130q-6 11 -1.5 18t16.5 7h60q27 0 40 -25l35 -65h5l35 65
q13 25 40 25h60q12 0 16.5 -7t-1.5 -18l-80 -130q-15 -25 -40 -25z" />
    <glyph glyph-name="florin" unicode="&#x192;" horiz-adv-x="340" 
d="M0 -175v70q0 25 25 25h30q45 0 45 45v395h-40q-25 0 -25 25v70q0 25 25 25h40v90q0 60 34.5 95t95.5 35h75q25 0 25 -25v-70q0 -25 -25 -25h-30q-45 0 -45 -45v-55h60q25 0 25 -25v-70q0 -25 -25 -25h-60v-430q0 -60 -35 -95t-95 -35h-75q-25 0 -25 25z" />
    <glyph glyph-name="Scommaaccent" unicode="&#x218;" horiz-adv-x="615" 
d="M420 175v30q0 18 -8 27.5t-27 17.5l-220 85q-59 23 -84.5 55.5t-25.5 94.5v70q0 155 155 155h195q155 0 155 -155v-65q0 -25 -25 -25h-100q-25 0 -25 25v35q0 23 -14 36.5t-36 13.5h-105q-23 0 -36.5 -13.5t-13.5 -36.5v-30q0 -18 8 -27.5t27 -17.5l220 -85
q59 -23 84.5 -55.5t25.5 -94.5v-70q0 -155 -155 -155h-215q-155 0 -155 155v65q0 25 25 25h100q25 0 25 -25v-35q0 -23 13.5 -36.5t36.5 -13.5h125q22 0 36 13.5t14 36.5zM370 -105v-70v-13t-1 -11t-1.5 -8t-2.5 -7.5t-2.5 -6t-3.5 -7t-4 -7.5l-30 -60q-10 -20 -30 -20h-20
q-23 0 -15 20l35 85h-25q-25 0 -25 25v80q0 25 25 25h75q25 0 25 -25z" />
    <glyph glyph-name="scommaaccent" unicode="&#x219;" horiz-adv-x="470" 
d="M175 520h120q60 0 95 -35t35 -95v-30q0 -25 -25 -25h-80q-25 0 -25 25v5q0 19 -8 27t-27 8h-50q-19 0 -27 -8t-8 -27v-5q0 -11 9 -19t31 -16l130 -50q51 -20 70.5 -45.5t19.5 -79.5v-30q0 -60 -35 -95t-95 -35h-140q-60 0 -95 35t-35 95v35q0 25 25 25h80q25 0 25 -25
v-10q0 -19 8 -27t27 -8h70q19 0 27 8t8 27v5q0 11 -9 19t-31 16l-130 50q-51 20 -70.5 45.5t-19.5 79.5v30q0 60 35 95t95 35zM298 -105v-70v-13t-1 -11t-1.5 -8t-2.5 -7.5t-2.5 -6t-3.5 -7t-4 -7.5l-30 -60q-10 -20 -30 -20h-20q-23 0 -15 20l35 85h-25q-25 0 -25 25v80
q0 25 25 25h75q25 0 25 -25z" />
    <glyph glyph-name="afii57929" unicode="&#x2bc;" horiz-adv-x="185" 
d="M155 675v-70v-13t-1 -11t-1.5 -8t-2.5 -7.5t-2.5 -6t-3.5 -7t-4 -7.5l-30 -60q-10 -20 -30 -20h-20q-23 0 -15 20l35 85h-25q-25 0 -25 25v80q0 25 25 25h75q25 0 25 -25z" />
    <glyph glyph-name="circumflex" unicode="&#x2c6;" horiz-adv-x="373" 
d="M154 700h65q25 0 40 -25l80 -130q6 -11 1.5 -18t-16.5 -7h-60q-27 0 -40 25l-35 65h-5l-35 -65q-13 -25 -40 -25h-60q-12 0 -16.5 7t1.5 18l80 130q15 25 40 25z" />
    <glyph glyph-name="caron" unicode="&#x2c7;" horiz-adv-x="373" 
d="M219 520h-65q-25 0 -40 25l-80 130q-6 11 -1.5 18t16.5 7h60q27 0 40 -25l35 -65h5l35 65q13 25 40 25h60q12 0 16.5 -7t-1.5 -18l-80 -130q-15 -25 -40 -25z" />
    <glyph glyph-name="breve" unicode="&#x2d8;" horiz-adv-x="350" 
d="M135 675v-20q0 -30 30 -30h20q30 0 30 30v20q0 25 25 25h55q25 0 25 -25v-25q0 -115 -115 -115h-60q-115 0 -115 115v25q0 25 25 25h55q25 0 25 -25z" />
    <glyph glyph-name="dotaccent" unicode="&#x2d9;" horiz-adv-x="190" 
d="M55 700h80q25 0 25 -25v-80q0 -25 -25 -25h-80q-25 0 -25 25v80q0 25 25 25z" />
    <glyph glyph-name="ring" unicode="&#x2da;" horiz-adv-x="265" 
d="M235 610v-50q0 -90 -90 -90h-25q-90 0 -90 90v50q0 90 90 90h25q90 0 90 -90zM165 570v30q0 30 -30 30h-5q-30 0 -30 -30v-30q0 -30 27 -30h10q28 0 28 30z" />
    <glyph glyph-name="ogonek" unicode="&#x2db;" horiz-adv-x="230" 
d="M120 0h75q-9 -7 -22.5 -19t-35.5 -46t-22 -65q0 -25 30 -25h35q11 0 15.5 -4.5t4.5 -15.5v-45q0 -11 -4.5 -15.5t-15.5 -4.5h-55q-45 0 -70 25t-25 70q0 27 9.5 51.5t22.5 41t26 29t22 17.5z" />
    <glyph glyph-name="tilde" unicode="&#x2dc;" horiz-adv-x="310" 
d="M225 535q-22 0 -41 12.5t-32.5 25t-21.5 12.5q-15 0 -15 -15v-15q0 -7 -6.5 -13.5t-13.5 -6.5h-45q-8 0 -14 6.5t-6 13.5v90q0 55 55 55q22 0 41 -12.5t32.5 -25t21.5 -12.5q15 0 15 15v15q0 8 6.5 14t13.5 6h45q8 0 14 -6t6 -14v-90q0 -55 -55 -55z" />
    <glyph glyph-name="hungarumlaut" unicode="&#x2dd;" horiz-adv-x="376" 
d="M187 675l-75 -130q-13 -25 -35 -25h-30q-8 0 -13.5 7t-1.5 18l40 130q8 25 35 25h65q12 0 16.5 -7t-1.5 -18zM342 675l-75 -130q-13 -25 -35 -25h-30q-8 0 -13.5 7t-1.5 18l40 130q8 25 35 25h65q12 0 16.5 -7t-1.5 -18z" />
    <glyph glyph-name="afii10023" unicode="&#x401;" horiz-adv-x="595" 
d="M225 290v-155h320q25 0 25 -25v-85q0 -25 -25 -25h-445q-25 0 -25 25v650q0 25 25 25h435q25 0 25 -25v-85q0 -25 -25 -25h-310v-140h235q25 0 25 -25v-85q0 -25 -25 -25h-235zM190 915h70q25 0 25 -25v-80q0 -25 -25 -25h-70q-25 0 -25 25v80q0 25 25 25zM370 915h70
q25 0 25 -25v-80q0 -25 -25 -25h-70q-25 0 -25 25v80q0 25 25 25z" />
    <glyph glyph-name="afii10051" unicode="&#x402;" horiz-adv-x="665" 
d="M375 5v85q0 25 25 25h10q22 0 36 13.5t14 36.5v85q0 22 -14 36t-36 14h-130v-275q0 -25 -25 -25h-100q-25 0 -25 25v540h-105q-25 0 -25 25v85q0 25 25 25h365q25 0 25 -25v-85q0 -25 -25 -25h-110v-130h175q155 0 155 -155v-145q0 -155 -155 -155h-55q-25 0 -25 25z" />
    <glyph glyph-name="afii10052" unicode="&#x403;" horiz-adv-x="520" 
d="M225 565v-540q0 -25 -25 -25h-100q-25 0 -25 25v650q0 25 25 25h395q25 0 25 -25v-85q0 -25 -25 -25h-270zM425 925l-75 -130q-15 -25 -35 -25h-50q-10 0 -14.5 7t-0.5 18l45 130q8 25 35 25h80q12 0 16.5 -7t-1.5 -18z" />
    <glyph glyph-name="afii10053" unicode="&#x404;" horiz-adv-x="660" 
d="M610 555v-65q0 -25 -25 -25h-100q-25 0 -25 25v35q0 23 -14 36.5t-36 13.5h-145q-23 0 -36.5 -13.5t-13.5 -36.5v-100h160q25 0 25 -25v-85q0 -25 -25 -25h-160v-115q0 -23 13.5 -36.5t36.5 -13.5h145q22 0 36 13.5t14 36.5v35q0 25 25 25h100q25 0 25 -25v-65
q0 -155 -155 -155h-235q-155 0 -155 155v410q0 155 155 155h235q155 0 155 -155z" />
    <glyph glyph-name="afii10054" unicode="&#x405;" horiz-adv-x="615" 
d="M420 175v30q0 18 -8 27.5t-27 17.5l-220 85q-59 23 -84.5 55.5t-25.5 94.5v70q0 155 155 155h195q155 0 155 -155v-65q0 -25 -25 -25h-100q-25 0 -25 25v35q0 23 -14 36.5t-36 13.5h-105q-23 0 -36.5 -13.5t-13.5 -36.5v-30q0 -18 8 -27.5t27 -17.5l220 -85
q59 -23 84.5 -55.5t25.5 -94.5v-70q0 -155 -155 -155h-215q-155 0 -155 155v65q0 25 25 25h100q25 0 25 -25v-35q0 -23 13.5 -36.5t36.5 -13.5h125q22 0 36 13.5t14 36.5z" />
    <glyph glyph-name="afii10055" unicode="&#x406;" horiz-adv-x="300" 
d="M225 675v-650q0 -25 -25 -25h-100q-25 0 -25 25v650q0 25 25 25h100q25 0 25 -25z" />
    <glyph glyph-name="afii10056" unicode="&#x407;" horiz-adv-x="300" 
d="M225 675v-650q0 -25 -25 -25h-100q-25 0 -25 25v650q0 25 25 25h100q25 0 25 -25zM25 910h70q25 0 25 -25v-80q0 -25 -25 -25h-70q-25 0 -25 25v80q0 25 25 25zM205 910h70q25 0 25 -25v-80q0 -25 -25 -25h-70q-25 0 -25 25v80q0 25 25 25z" />
    <glyph glyph-name="afii10057" unicode="&#x408;" horiz-adv-x="605" 
d="M530 675v-530q0 -155 -155 -155h-190q-155 0 -155 155v85q0 25 25 25h100q25 0 25 -25v-55q0 -23 14 -36.5t36 -13.5h100q22 0 36 13.5t14 36.5v500q0 25 25 25h100q25 0 25 -25z" />
    <glyph glyph-name="afii10058" unicode="&#x409;" horiz-adv-x="950" 
d="M560 485h180q155 0 155 -155v-175q0 -155 -155 -155h-305q-25 0 -25 25v540h-110l-70 -410q-15 -87 -56 -126t-119 -39h-35q-25 0 -25 25v85q0 25 25 25q34 0 48.5 15t21.5 60l80 475q5 25 35 25h330q25 0 25 -25v-190zM560 135h135q23 0 36.5 13.5t13.5 36.5v115
q0 22 -13.5 36t-36.5 14h-135v-215z" />
    <glyph glyph-name="afii10059" unicode="&#x40a;" horiz-adv-x="985" 
d="M225 675v-225h210v225q0 25 25 25h100q25 0 25 -25v-225h190q155 0 155 -155v-140q0 -155 -155 -155h-315q-25 0 -25 25v290h-210v-290q0 -25 -25 -25h-100q-25 0 -25 25v650q0 25 25 25h100q25 0 25 -25zM585 135h145q22 0 36 13.5t14 36.5v80q0 23 -14 36.5t-36 13.5
h-145v-180z" />
    <glyph glyph-name="afii10060" unicode="&#x40b;" horiz-adv-x="665" 
d="M280 565v-130h175q155 0 155 -155v-255q0 -25 -25 -25h-100q-25 0 -25 25v225q0 22 -14 36t-36 14h-130v-275q0 -25 -25 -25h-100q-25 0 -25 25v540h-105q-25 0 -25 25v85q0 25 25 25h365q25 0 25 -25v-85q0 -25 -25 -25h-110z" />
    <glyph glyph-name="afii10061" unicode="&#x40c;" horiz-adv-x="618" 
d="M225 675v-240h95l110 240q12 25 35 25h110q10 0 15 -7t0 -18l-140 -305l160 -345q5 -11 -1.5 -18t-18.5 -7h-100q-28 0 -40 25l-125 275h-100v-275q0 -25 -25 -25h-100q-25 0 -25 25v650q0 25 25 25h100q25 0 25 -25zM460 925l-75 -130q-15 -25 -35 -25h-50
q-10 0 -14.5 7t-0.5 18l45 130q8 25 35 25h80q12 0 16.5 -7t-1.5 -18z" />
    <glyph glyph-name="afii10062" unicode="&#x40e;" horiz-adv-x="560" 
d="M208 180l-205 495q-10 25 15 25h110q25 0 35 -25l120 -310h10l105 310q8 25 35 25h110q9 0 14 -7t1 -18l-195 -520q-35 -93 -78.5 -129t-131.5 -36h-30q-25 0 -25 25v85q0 25 25 25h30q26 0 36.5 10.5t18.5 44.5zM330 925v15q0 25 25 25h65q25 0 25 -25v-40
q0 -60 -27.5 -87.5t-87.5 -27.5h-95q-60 0 -87.5 27.5t-27.5 87.5v40q0 25 25 25h65q25 0 25 -25v-15q0 -30 30 -30h35q30 0 30 30z" />
    <glyph glyph-name="afii10145" unicode="&#x40f;" horiz-adv-x="690" 
d="M590 0h-170v-95q0 -25 -25 -25h-100q-25 0 -25 25v95h-170q-25 0 -25 25v650q0 25 25 25h100q25 0 25 -25v-540h240v540q0 25 25 25h100q25 0 25 -25v-650q0 -25 -25 -25z" />
    <glyph glyph-name="afii10017" unicode="&#x410;" horiz-adv-x="614" 
d="M417 145h-220l-35 -120q-7 -25 -35 -25h-110q-10 0 -14.5 7t-0.5 18l210 650q8 25 35 25h120q27 0 35 -25l210 -650q4 -11 -1 -18t-14 -7h-110q-27 0 -35 25zM237 280h140l-65 220h-10z" />
    <glyph glyph-name="afii10018" unicode="&#x411;" horiz-adv-x="645" 
d="M225 440h215q155 0 155 -155v-130q0 -155 -155 -155h-340q-25 0 -25 25v650q0 25 25 25h430q25 0 25 -25v-85q0 -25 -25 -25h-305v-125zM225 135h170q23 0 36.5 13.5t13.5 36.5v70q0 23 -13.5 36.5t-36.5 13.5h-170v-170z" />
    <glyph glyph-name="afii10019" unicode="&#x412;" horiz-adv-x="645" 
d="M75 25v650q0 25 25 25h310q155 0 155 -155v-65q0 -38 -16.5 -63t-32.5 -31l-16 -6v-10q4 -1 11 -2.5t24 -9.5t30 -20t24 -35.5t11 -52.5v-95q0 -155 -155 -155h-345q-25 0 -25 25zM225 135h175q22 0 36 13.5t14 36.5v65q0 22 -14 36t-36 14h-175v-165zM365 565h-140v-135
h140q23 0 36.5 14t13.5 36v35q0 23 -13.5 36.5t-36.5 13.5z" />
    <glyph glyph-name="afii10020" unicode="&#x413;" horiz-adv-x="520" 
d="M225 565v-540q0 -25 -25 -25h-100q-25 0 -25 25v650q0 25 25 25h395q25 0 25 -25v-85q0 -25 -25 -25h-270z" />
    <glyph glyph-name="afii10021" unicode="&#x414;" horiz-adv-x="660" 
d="M20 135h40l90 540q3 25 35 25h360q25 0 25 -25v-540h45q25 0 25 -25v-205q0 -25 -25 -25h-100q-25 0 -25 25v95h-345v-95q0 -25 -25 -25h-100q-25 0 -25 25v205q0 25 25 25zM420 565h-140l-75 -430h215v430z" />
    <glyph glyph-name="afii10022" unicode="&#x415;" horiz-adv-x="595" 
d="M225 290v-155h320q25 0 25 -25v-85q0 -25 -25 -25h-445q-25 0 -25 25v650q0 25 25 25h435q25 0 25 -25v-85q0 -25 -25 -25h-310v-140h235q25 0 25 -25v-85q0 -25 -25 -25h-235z" />
    <glyph glyph-name="afii10024" unicode="&#x416;" horiz-adv-x="855" 
d="M503 675v-240h60l110 240q12 25 35 25h110q9 0 14.5 -7.5t0.5 -17.5l-140 -305l155 -345q4 -10 -1.5 -17.5t-13.5 -7.5h-105q-28 0 -40 25l-120 275h-65v-275q0 -25 -25 -25h-100q-25 0 -25 25v275h-65l-120 -275q-10 -25 -40 -25h-105q-9 0 -14.5 7.5t-0.5 17.5l155 345
l-140 305q-5 10 0.5 17.5t14.5 7.5h110q23 0 35 -25l110 -240h60v240q0 25 25 25h100q25 0 25 -25z" />
    <glyph glyph-name="afii10025" unicode="&#x417;" horiz-adv-x="635" 
d="M570 555v-85q0 -25 -8 -44.5t-20 -29.5t-24 -16.5t-20 -7.5l-8 -2v-10q4 0 10 -1.5t21.5 -9t27.5 -19.5t21.5 -35.5t9.5 -54.5v-95q0 -155 -155 -155h-225q-155 0 -155 155v65q0 25 25 25h100q25 0 25 -25v-35q0 -23 13.5 -36.5t36.5 -13.5h135q22 0 36 13.5t14 36.5v65
q0 22 -14 36t-36 14h-110q-25 0 -25 25v85q0 25 25 25h100q22 0 36 13.5t14 36.5v50q0 23 -14 36.5t-36 13.5h-115q-23 0 -36.5 -13.5t-13.5 -36.5v-35q0 -25 -25 -25h-100q-25 0 -25 25v65q0 155 155 155h205q155 0 155 -155z" />
    <glyph glyph-name="afii10026" unicode="&#x418;" horiz-adv-x="700" 
d="M475 435h-10l-205 -410q-13 -25 -35 -25h-125q-25 0 -25 25v650q0 25 25 25h100q25 0 25 -25v-410h10l205 410q13 25 35 25h125q25 0 25 -25v-650q0 -25 -25 -25h-100q-25 0 -25 25v410z" />
    <glyph glyph-name="afii10027" unicode="&#x419;" horiz-adv-x="700" 
d="M475 435h-10l-205 -410q-13 -25 -35 -25h-125q-25 0 -25 25v650q0 25 25 25h100q25 0 25 -25v-410h10l205 410q13 25 35 25h125q25 0 25 -25v-650q0 -25 -25 -25h-100q-25 0 -25 25v410zM398 925v15q0 25 25 25h65q25 0 25 -25v-40q0 -60 -27.5 -87.5t-87.5 -27.5h-95
q-60 0 -87.5 27.5t-27.5 87.5v40q0 25 25 25h65q25 0 25 -25v-15q0 -30 30 -30h35q30 0 30 30z" />
    <glyph glyph-name="afii10028" unicode="&#x41a;" horiz-adv-x="618" 
d="M225 675v-240h95l110 240q12 25 35 25h110q10 0 15 -7t0 -18l-140 -305l160 -345q5 -11 -1.5 -18t-18.5 -7h-100q-28 0 -40 25l-125 275h-100v-275q0 -25 -25 -25h-100q-25 0 -25 25v650q0 25 25 25h100q25 0 25 -25z" />
    <glyph glyph-name="afii10029" unicode="&#x41b;" horiz-adv-x="665" 
d="M20 125q34 0 48.5 15t21.5 60l80 475q5 25 35 25h360q25 0 25 -25v-650q0 -25 -25 -25h-100q-25 0 -25 25v540h-140l-70 -410q-15 -87 -56 -126t-119 -39h-35q-25 0 -25 25v85q0 25 25 25z" />
    <glyph glyph-name="afii10030" unicode="&#x41c;" horiz-adv-x="860" 
d="M460 0h-60q-27 0 -35 25l-130 380h-10v-380q0 -25 -25 -25h-100q-25 0 -25 25v650q0 25 25 25h140q27 0 35 -25l150 -430h10l150 430q8 25 35 25h140q25 0 25 -25v-650q0 -25 -25 -25h-100q-25 0 -25 25v380h-10l-130 -380q-8 -25 -35 -25z" />
    <glyph glyph-name="afii10031" unicode="&#x41d;" horiz-adv-x="685" 
d="M225 675v-260h235v260q0 25 25 25h100q25 0 25 -25v-650q0 -25 -25 -25h-100q-25 0 -25 25v255h-235v-255q0 -25 -25 -25h-100q-25 0 -25 25v650q0 25 25 25h100q25 0 25 -25z" />
    <glyph glyph-name="afii10032" unicode="&#x41e;" horiz-adv-x="685" 
d="M620 555v-410q0 -155 -155 -155h-245q-155 0 -155 155v410q0 155 155 155h245q155 0 155 -155zM470 175v350q0 23 -14 36.5t-36 13.5h-155q-23 0 -36.5 -13.5t-13.5 -36.5v-350q0 -23 13.5 -36.5t36.5 -13.5h155q22 0 36 13.5t14 36.5z" />
    <glyph glyph-name="afii10033" unicode="&#x41f;" horiz-adv-x="685" 
d="M100 700h485q25 0 25 -25v-650q0 -25 -25 -25h-100q-25 0 -25 25v540h-235v-540q0 -25 -25 -25h-100q-25 0 -25 25v650q0 25 25 25z" />
    <glyph glyph-name="afii10034" unicode="&#x420;" horiz-adv-x="650" 
d="M440 205h-215v-180q0 -25 -25 -25h-100q-25 0 -25 25v650q0 25 25 25h340q155 0 155 -155v-185q0 -155 -155 -155zM395 565h-170v-225h170q23 0 36.5 14t13.5 36v125q0 23 -13.5 36.5t-36.5 13.5z" />
    <glyph glyph-name="afii10035" unicode="&#x421;" horiz-adv-x="660" 
d="M610 555v-65q0 -25 -25 -25h-100q-25 0 -25 25v35q0 23 -14 36.5t-36 13.5h-145q-23 0 -36.5 -13.5t-13.5 -36.5v-350q0 -23 13.5 -36.5t36.5 -13.5h145q22 0 36 13.5t14 36.5v35q0 25 25 25h100q25 0 25 -25v-65q0 -155 -155 -155h-235q-155 0 -155 155v410
q0 155 155 155h235q155 0 155 -155z" />
    <glyph glyph-name="afii10036" unicode="&#x422;" horiz-adv-x="540" 
d="M345 565v-540q0 -25 -25 -25h-100q-25 0 -25 25v540h-160q-25 0 -25 25v85q0 25 25 25h470q25 0 25 -25v-85q0 -25 -25 -25h-160z" />
    <glyph glyph-name="afii10037" unicode="&#x423;" horiz-adv-x="560" 
d="M208 180l-205 495q-10 25 15 25h110q25 0 35 -25l120 -310h10l105 310q8 25 35 25h110q9 0 14 -7t1 -18l-195 -520q-35 -93 -78.5 -129t-131.5 -36h-30q-25 0 -25 25v85q0 25 25 25h30q26 0 36.5 10.5t18.5 44.5z" />
    <glyph glyph-name="afii10038" unicode="&#x424;" horiz-adv-x="850" 
d="M500 670h130q155 0 155 -155v-320q0 -155 -155 -155h-130v-65q0 -25 -25 -25h-100q-25 0 -25 25v65h-130q-155 0 -155 155v320q0 155 155 155h130v65q0 25 25 25h100q25 0 25 -25v-65zM350 535h-85q-23 0 -36.5 -13.5t-13.5 -36.5v-260q0 -23 13.5 -36.5t36.5 -13.5h85
v360zM500 175h85q23 0 36.5 13.5t13.5 36.5v260q0 23 -13.5 36.5t-36.5 13.5h-85v-360z" />
    <glyph glyph-name="afii10039" unicode="&#x425;" horiz-adv-x="576" 
d="M283 490h10l95 185q13 25 40 25h110q12 0 16.5 -7t-1.5 -18l-170 -305l190 -345q5 -11 0 -18t-15 -7h-115q-27 0 -40 25l-110 220h-10l-110 -220q-13 -25 -40 -25h-115q-10 0 -15.5 7t0.5 18l190 345l-170 305q-6 11 -1.5 18t16.5 7h110q27 0 40 -25z" />
    <glyph glyph-name="afii10040" unicode="&#x426;" horiz-adv-x="663" 
d="M475 0h-375q-25 0 -25 25v650q0 25 25 25h100q25 0 25 -25v-540h210v540q0 25 25 25h100q25 0 25 -25v-580l85 -90q8 -7 8 -17t-8 -18l-70 -65q-18 -17 -35 0z" />
    <glyph glyph-name="afii10041" unicode="&#x427;" horiz-adv-x="645" 
d="M265 360h155v315q0 25 25 25h100q25 0 25 -25v-650q0 -25 -25 -25h-100q-25 0 -25 25v200h-200q-155 0 -155 155v295q0 25 25 25h100q25 0 25 -25v-265q0 -22 13.5 -36t36.5 -14z" />
    <glyph glyph-name="afii10042" unicode="&#x428;" horiz-adv-x="900" 
d="M800 0h-700q-25 0 -25 25v650q0 25 25 25h100q25 0 25 -25v-540h150v540q0 25 25 25h100q25 0 25 -25v-540h150v540q0 25 25 25h100q25 0 25 -25v-650q0 -25 -25 -25z" />
    <glyph glyph-name="afii10043" unicode="&#x429;" horiz-adv-x="903" 
d="M805 -95l-90 95h-615q-25 0 -25 25v650q0 25 25 25h100q25 0 25 -25v-540h150v540q0 25 25 25h100q25 0 25 -25v-540h150v540q0 25 25 25h100q25 0 25 -25v-580l85 -90q8 -7 8 -17t-8 -18l-70 -65q-18 -17 -35 0z" />
    <glyph glyph-name="afii10044" unicode="&#x42a;" horiz-adv-x="670" 
d="M275 485h185q155 0 155 -155v-175q0 -155 -155 -155h-310q-25 0 -25 25v535h-100q-25 0 -25 25v90q0 25 25 25h225q25 0 25 -25v-190zM275 135h140q23 0 36.5 13.5t13.5 36.5v115q0 22 -13.5 36t-36.5 14h-140v-215z" />
    <glyph glyph-name="afii10045" unicode="&#x42b;" horiz-adv-x="855" 
d="M225 485h175q155 0 155 -155v-175q0 -155 -155 -155h-300q-25 0 -25 25v650q0 25 25 25h100q25 0 25 -25v-190zM225 135h130q23 0 36.5 13.5t13.5 36.5v115q0 22 -13.5 36t-36.5 14h-130v-215zM780 675v-650q0 -25 -25 -25h-100q-25 0 -25 25v650q0 25 25 25h100
q25 0 25 -25z" />
    <glyph glyph-name="afii10046" unicode="&#x42c;" horiz-adv-x="645" 
d="M225 485h210q155 0 155 -155v-175q0 -155 -155 -155h-335q-25 0 -25 25v650q0 25 25 25h100q25 0 25 -25v-190zM225 135h165q22 0 36 13.5t14 36.5v115q0 22 -14 36t-36 14h-165v-215z" />
    <glyph glyph-name="afii10047" unicode="&#x42d;" horiz-adv-x="660" 
d="M50 490v65q0 155 155 155h235q155 0 155 -155v-410q0 -155 -155 -155h-235q-155 0 -155 155v65q0 25 25 25h100q25 0 25 -25v-35q0 -23 14 -36.5t36 -13.5h145q23 0 36.5 13.5t13.5 36.5v115h-160q-25 0 -25 25v85q0 25 25 25h160v100q0 23 -13.5 36.5t-36.5 13.5h-145
q-22 0 -36 -13.5t-14 -36.5v-35q0 -25 -25 -25h-100q-25 0 -25 25z" />
    <glyph glyph-name="afii10048" unicode="&#x42e;" horiz-adv-x="905" 
d="M840 555v-410q0 -155 -155 -155h-210q-155 0 -155 155v135h-95v-255q0 -25 -25 -25h-100q-25 0 -25 25v650q0 25 25 25h100q25 0 25 -25v-260h95v140q0 155 155 155h210q155 0 155 -155zM690 175v350q0 23 -14 36.5t-36 13.5h-120q-22 0 -36 -13.5t-14 -36.5v-350
q0 -23 14 -36.5t36 -13.5h120q22 0 36 13.5t14 36.5z" />
    <glyph glyph-name="afii10049" unicode="&#x42f;" horiz-adv-x="663" 
d="M63 375v170q0 155 155 155h345q25 0 25 -25v-650q0 -25 -25 -25h-100q-25 0 -25 25v195h-140l-90 -195q-12 -25 -35 -25h-110q-10 0 -15 7t0 18l100 205q-3 1 -9 2.5t-20.5 11t-26 24t-20.5 43t-9 64.5zM438 565h-175q-23 0 -36.5 -13.5t-13.5 -36.5v-110
q0 -23 13.5 -36.5t36.5 -13.5h175v210z" />
    <glyph glyph-name="afii10065" unicode="&#x430;" horiz-adv-x="495" 
d="M260 400h-35q-19 0 -27 -8t-8 -27q0 -25 -25 -25h-80q-25 0 -25 25v25q0 60 35 95t95 35h115q60 0 95 -35t35 -95v-365q0 -25 -25 -25h-80q-25 0 -25 25v15h-10q-1 -2 -2 -5.5t-7.5 -12t-15 -15t-24.5 -12t-36 -5.5h-40q-60 0 -95 35t-35 95v55q0 60 35 95t95 35h135v50
q0 45 -45 45zM170 160v-15q0 -45 45 -45h35q55 0 55 55v50h-90q-45 0 -45 -45z" />
    <glyph glyph-name="afii10066" unicode="&#x431;" horiz-adv-x="515" 
d="M285 320h-95v-165q0 -45 45 -45h50q45 0 45 45v120q0 45 -45 45zM320 685q0 25 25 25h80q25 0 25 -25v-15q0 -120 -105 -130l-105 -10q-50 -7 -50 -55v-35h140q60 0 95 -35t35 -95v-190q0 -60 -35 -95t-95 -35h-140q-60 0 -95 35t-35 95v390q0 55 34 89.5t91 40.5l100 10
q35 4 35 35z" />
    <glyph glyph-name="afii10067" unicode="&#x432;" horiz-adv-x="490" 
d="M85 510h215q60 0 95 -35t35 -95v-35q0 -27 -12.5 -44.5t-25.5 -21.5l-12 -4v-10q3 0 8 -1.5t18 -7.5t23 -15.5t18 -28t8 -42.5v-40q0 -60 -35 -95t-95 -35h-240q-25 0 -25 25v460q0 25 25 25zM325 160v5q0 45 -45 45h-90v-95h90q45 0 45 45zM300 350v5q0 40 -40 40h-70
v-85h70q40 0 40 40z" />
    <glyph glyph-name="afii10068" unicode="&#x433;" horiz-adv-x="390" 
d="M60 25v460q0 25 25 25h280q25 0 25 -25v-70q0 -25 -25 -25h-175v-365q0 -25 -25 -25h-80q-25 0 -25 25z" />
    <glyph glyph-name="afii10069" unicode="&#x434;" horiz-adv-x="495" 
d="M300 120v270h-80l-43 -270h123zM50 120l60 365q3 25 30 25h265q25 0 25 -25v-365h30q25 0 25 -25v-170q0 -25 -25 -25h-80q-25 0 -25 25v75h-225v-75q0 -25 -25 -25h-80q-25 0 -25 25v170q0 25 25 25h25z" />
    <glyph glyph-name="afii10070" unicode="&#x435;" horiz-adv-x="515" 
d="M230 110h60q19 0 27 8t8 27q0 25 25 25h80q25 0 25 -25v-25q0 -60 -35 -95t-95 -35h-140q-60 0 -95 35t-35 95v270q0 60 35 95t95 35h145q60 0 95 -35t35 -95v-155q0 -25 -25 -25h-250v-55q0 -45 45 -45zM185 360v-45h145v45q0 45 -45 45h-55q-45 0 -45 -45z" />
    <glyph glyph-name="afii10072" unicode="&#x436;" horiz-adv-x="656" 
d="M393 485v-160h40l65 160q10 25 35 25h90q9 0 14.5 -7.5t0.5 -17.5l-100 -215l110 -245q5 -11 0.5 -18t-15.5 -7h-90q-25 0 -35 25l-75 180h-40v-180q0 -25 -25 -25h-80q-25 0 -25 25v180h-40l-75 -180q-10 -25 -35 -25h-90q-11 0 -15.5 7t0.5 18l110 245l-100 215
q-5 10 0.5 17.5t14.5 7.5h90q25 0 35 -25l65 -160h40v160q0 25 25 25h80q25 0 25 -25z" />
    <glyph glyph-name="afii10073" unicode="&#x437;" horiz-adv-x="485" 
d="M305 360v5q0 45 -45 45h-40q-45 0 -45 -45v-20q0 -25 -25 -25h-80q-25 0 -25 25v45q0 60 35 95t95 35h130q60 0 95 -35t35 -95v-30q0 -22 -6 -39.5t-15 -26.5t-18 -15t-15 -7l-6 -2v-10q3 0 7.5 -1.5t16.5 -8t21.5 -16.5t17 -29.5t7.5 -44.5v-40q0 -60 -35 -95t-95 -35
h-150q-60 0 -95 35t-35 95v45q0 25 25 25h80q25 0 25 -25v-20q0 -45 45 -45h60q45 0 45 45v15q0 45 -45 45h-45q-25 0 -25 25v60q0 25 26 25h34q45 0 45 45z" />
    <glyph glyph-name="afii10074" unicode="&#x438;" horiz-adv-x="530" 
d="M200 240l125 245q13 25 35 25h85q25 0 25 -25v-460q0 -25 -25 -25h-80q-25 0 -25 25v245h-10l-125 -245q-13 -25 -35 -25h-85q-25 0 -25 25v460q0 25 25 25h80q25 0 25 -25v-245h10z" />
    <glyph glyph-name="afii10075" unicode="&#x439;" horiz-adv-x="530" 
d="M200 240l125 245q13 25 35 25h85q25 0 25 -25v-460q0 -25 -25 -25h-80q-25 0 -25 25v245h-10l-125 -245q-13 -25 -35 -25h-85q-25 0 -25 25v460q0 25 25 25h80q25 0 25 -25v-245h10zM225 725v-20q0 -30 30 -30h20q30 0 30 30v20q0 25 25 25h55q25 0 25 -25v-25
q0 -115 -115 -115h-60q-115 0 -115 115v25q0 25 25 25h55q25 0 25 -25z" />
    <glyph glyph-name="afii10076" unicode="&#x43a;" horiz-adv-x="473" 
d="M85 510h80q25 0 25 -25v-160h55l70 160q12 25 35 25h90q11 0 15.5 -7t-0.5 -18l-105 -215l115 -245q5 -11 0.5 -18t-15.5 -7h-90q-23 0 -35 25l-80 180h-55v-180q0 -25 -25 -25h-80q-25 0 -25 25v460q0 25 25 25z" />
    <glyph glyph-name="afii10077" unicode="&#x43b;" horiz-adv-x="510" 
d="M240 390l-40 -265q-11 -69 -48 -102t-107 -33h-20q-25 0 -25 25v70q0 25 25 25q43 0 50 45l55 330q5 25 35 25h260q25 0 25 -25v-460q0 -25 -25 -25h-80q-25 0 -25 25v365h-80z" />
    <glyph glyph-name="afii10078" unicode="&#x43c;" horiz-adv-x="660" 
d="M350 0h-40q-25 0 -35 25l-80 215h-10v-215q0 -25 -25 -25h-75q-25 0 -25 25v460q0 25 25 25h100q25 0 35 -25l105 -280h10l105 280q10 25 35 25h100q25 0 25 -25v-460q0 -25 -25 -25h-75q-25 0 -25 25v215h-10l-80 -215q-10 -25 -35 -25z" />
    <glyph glyph-name="afii10079" unicode="&#x43d;" horiz-adv-x="520" 
d="M85 510h80q25 0 25 -25v-170h140v170q0 25 25 25h80q25 0 25 -25v-460q0 -25 -25 -25h-80q-25 0 -25 25v170h-140v-170q0 -25 -25 -25h-80q-25 0 -25 25v460q0 25 25 25z" />
    <glyph glyph-name="afii10080" unicode="&#x43e;" 
d="M340 155v200q0 45 -45 45h-65q-45 0 -45 -45v-200q0 -45 45 -45h65q45 0 45 45zM470 390v-270q0 -60 -35 -95t-95 -35h-155q-60 0 -95 35t-35 95v270q0 60 35 95t95 35h155q60 0 95 -35t35 -95z" />
    <glyph glyph-name="afii10081" unicode="&#x43f;" horiz-adv-x="520" 
d="M85 510h350q25 0 25 -25v-460q0 -25 -25 -25h-80q-25 0 -25 25v365h-140v-365q0 -25 -25 -25h-80q-25 0 -25 25v460q0 25 25 25z" />
    <glyph glyph-name="afii10082" unicode="&#x440;" horiz-adv-x="520" 
d="M285 520h50q60 0 95 -35t35 -95v-260q0 -60 -35 -95t-95 -35h-145v-165q0 -25 -25 -25h-80q-25 0 -25 25v650q0 25 25 25h80q25 0 25 -25v-15h10q1 2 2 5.5t7.5 12t15 15t24.5 12t36 5.5zM190 120h100q45 0 45 45v190q0 45 -45 45h-45q-55 0 -55 -55v-225z" />
    <glyph glyph-name="afii10083" unicode="&#x441;" horiz-adv-x="505" 
d="M460 390v-60q0 -25 -25 -25h-80q-25 0 -25 25v25q0 45 -45 45h-55q-45 0 -45 -45v-200q0 -45 45 -45h55q45 0 45 45v25q0 25 25 25h80q25 0 25 -25v-60q0 -60 -35 -95t-95 -35h-145q-60 0 -95 35t-35 95v270q0 60 35 95t95 35h145q60 0 95 -35t35 -95z" />
    <glyph glyph-name="afii10084" unicode="&#x442;" horiz-adv-x="410" 
d="M140 25v365h-105q-25 0 -25 25v70q0 25 25 25h340q25 0 25 -25v-70q0 -25 -25 -25h-105v-365q0 -25 -25 -25h-80q-25 0 -25 25z" />
    <glyph glyph-name="afii10085" unicode="&#x443;" horiz-adv-x="439" 
d="M232 205l70 280q7 25 35 25h85q10 0 14.5 -7t0.5 -18l-155 -515q-25 -84 -68 -122t-117 -38h-20q-25 0 -25 25v70q0 25 25 25h20q51 0 65 65l-160 490q-4 11 1.5 18t13.5 7h85q27 0 35 -25l85 -280h10z" />
    <glyph glyph-name="afii10086" unicode="&#x444;" horiz-adv-x="680" 
d="M275 0h-90q-60 0 -95 35t-35 95v250q0 60 35 95t95 35h90v165q0 25 25 25h80q25 0 25 -25v-165h90q61 0 95.5 -34t34.5 -96v-250q0 -60 -35 -95t-95 -35h-90v-165q0 -25 -25 -25h-80q-25 0 -25 25v165zM275 390h-45q-45 0 -45 -45v-180q0 -45 45 -45h45v270zM405 120h45
q45 0 45 45v180q0 45 -45 45h-45v-270z" />
    <glyph glyph-name="afii10087" unicode="&#x445;" horiz-adv-x="438" 
d="M214 365h10l55 120q12 25 40 25h90q9 0 15 -7.5t0 -17.5l-115 -220l125 -240q6 -11 1.5 -18t-16.5 -7h-90q-23 0 -35 25l-70 140h-10l-70 -140q-12 -25 -35 -25h-90q-12 0 -16.5 7t1.5 18l125 240l-115 220q-5 10 0.5 17.5t14.5 7.5h90q28 0 40 -25z" />
    <glyph glyph-name="afii10088" unicode="&#x446;" horiz-adv-x="523" 
d="M450 485v-395l75 -85q17 -18 0 -35l-60 -55q-8 -8 -18 -8t-17 8l-75 85h-270q-25 0 -25 25v460q0 25 25 25h80q25 0 25 -25v-365h130v365q0 25 25 25h80q25 0 25 -25z" />
    <glyph glyph-name="afii10089" unicode="&#x447;" horiz-adv-x="500" 
d="M50 290v195q0 25 25 25h80q25 0 25 -25v-160q0 -45 45 -45h85v205q0 25 25 25h80q25 0 25 -25v-460q0 -25 -25 -25h-80q-25 0 -25 25v135h-130q-60 0 -95 35t-35 95z" />
    <glyph glyph-name="afii10090" unicode="&#x448;" horiz-adv-x="720" 
d="M635 0h-550q-25 0 -25 25v460q0 25 25 25h80q25 0 25 -25v-365h105v365q0 25 25 25h80q25 0 25 -25v-365h105v365q0 25 25 25h80q25 0 25 -25v-460q0 -25 -25 -25z" />
    <glyph glyph-name="afii10091" unicode="&#x449;" horiz-adv-x="733" 
d="M565 0h-480q-25 0 -25 25v460q0 25 25 25h80q25 0 25 -25v-365h105v365q0 25 25 25h80q25 0 25 -25v-365h105v365q0 25 25 25h80q25 0 25 -25v-395l75 -85q17 -18 0 -35l-60 -55q-8 -8 -18 -8t-17 8z" />
    <glyph glyph-name="afii10092" unicode="&#x44a;" horiz-adv-x="515" 
d="M25 510h180q25 0 25 -25v-135h115q60 0 95 -35t35 -95v-90q0 -60 -35 -95t-95 -35h-220q-25 0 -25 25v365h-75q-25 0 -25 25v70q0 25 25 25zM345 155v40q0 45 -45 45h-70v-130h70q45 0 45 45z" />
    <glyph glyph-name="afii10093" unicode="&#x44b;" horiz-adv-x="675" 
d="M85 510h80q25 0 25 -25v-135h110q60 0 95 -35t35 -95v-90q0 -60 -35 -95t-95 -35h-215q-25 0 -25 25v460q0 25 25 25zM300 155v40q0 45 -45 45h-65v-130h65q45 0 45 45zM510 510h80q25 0 25 -25v-460q0 -25 -25 -25h-80q-25 0 -25 25v460q0 25 25 25z" />
    <glyph glyph-name="afii10094" unicode="&#x44c;" horiz-adv-x="480" 
d="M85 510h80q25 0 25 -25v-135h120q60 0 95 -35t35 -95v-90q0 -60 -35 -95t-95 -35h-225q-25 0 -25 25v460q0 25 25 25zM310 155v40q0 45 -45 45h-75v-130h75q45 0 45 45z" />
    <glyph glyph-name="afii10095" unicode="&#x44d;" horiz-adv-x="505" 
d="M45 340v50q0 60 35 95t95 35h145q60 0 95 -35t35 -95v-270q0 -60 -35 -95t-95 -35h-145q-60 0 -95 35t-35 95v50q0 25 25 25h80q25 0 25 -25v-15q0 -45 45 -45h55q45 0 45 45v40h-80q-25 0 -25 25v70q0 25 25 25h80v40q0 45 -45 45h-55q-45 0 -45 -45v-15q0 -25 -25 -25
h-80q-25 0 -25 25z" />
    <glyph glyph-name="afii10096" unicode="&#x44e;" horiz-adv-x="705" 
d="M650 390v-270q0 -60 -35 -95t-95 -35h-130q-60 0 -95 35t-35 95v75h-70v-170q0 -25 -25 -25h-80q-25 0 -25 25v460q0 25 25 25h80q25 0 25 -25v-170h70v75q0 60 35 95t95 35h130q60 0 95 -35t35 -95zM520 155v200q0 45 -45 45h-40q-45 0 -45 -45v-200q0 -45 45 -45h40
q45 0 45 45z" />
    <glyph glyph-name="afii10097" unicode="&#x44f;" horiz-adv-x="493" 
d="M408 0h-80q-25 0 -25 25v135h-65l-55 -135q-10 -25 -35 -25h-90q-9 0 -14.5 7.5t-0.5 17.5l75 145q-3 1 -8 3t-18 10.5t-23 20.5t-18 35t-8 51v90q0 60 35 95t95 35h235q25 0 25 -25v-460q0 -25 -25 -25zM173 355v-40q0 -45 45 -45h85v130h-85q-45 0 -45 -45z" />
    <glyph glyph-name="afii10071" unicode="&#x451;" horiz-adv-x="515" 
d="M230 110h60q19 0 27 8t8 27q0 25 25 25h80q25 0 25 -25v-25q0 -60 -35 -95t-95 -35h-140q-60 0 -95 35t-35 95v270q0 60 35 95t95 35h145q60 0 95 -35t35 -95v-155q0 -25 -25 -25h-250v-55q0 -45 45 -45zM185 360v-45h145v45q0 45 -45 45h-55q-45 0 -45 -45zM132 720h70
q25 0 25 -25v-80q0 -25 -25 -25h-70q-25 0 -25 25v80q0 25 25 25zM312 720h70q25 0 25 -25v-80q0 -25 -25 -25h-70q-25 0 -25 25v80q0 25 25 25z" />
    <glyph glyph-name="afii10099" unicode="&#x452;" 
d="M270 -5v70q0 25 25 25q45 0 45 45v125q0 45 -45 45h-100v-280q0 -25 -25 -25h-80q-25 0 -25 25v477h-35q-25 0 -25 25v68q0 25 25 25h35v55q0 25 25 25h80q25 0 25 -25v-55h60q25 0 25 -25v-68q0 -25 -25 -25h-60v-77h145q60 0 95 -35t35 -95v-195q0 -60 -35 -95t-95 -35
h-45q-25 0 -25 25z" />
    <glyph glyph-name="afii10100" unicode="&#x453;" horiz-adv-x="390" 
d="M60 25v460q0 25 25 25h280q25 0 25 -25v-70q0 -25 -25 -25h-175v-365q0 -25 -25 -25h-80q-25 0 -25 25zM355 725l-75 -130q-15 -25 -35 -25h-50q-10 0 -14.5 7t-0.5 18l45 130q8 25 35 25h80q12 0 16.5 -7t-1.5 -18z" />
    <glyph glyph-name="afii10101" unicode="&#x454;" horiz-adv-x="505" 
d="M460 390v-50q0 -25 -25 -25h-80q-25 0 -25 25v15q0 45 -45 45h-55q-45 0 -45 -45v-40h80q25 0 25 -25v-70q0 -25 -25 -25h-80v-40q0 -45 45 -45h55q45 0 45 45v15q0 25 25 25h80q25 0 25 -25v-50q0 -60 -35 -95t-95 -35h-145q-60 0 -95 35t-35 95v270q0 60 35 95t95 35
h145q60 0 95 -35t35 -95z" />
    <glyph glyph-name="afii10102" unicode="&#x455;" horiz-adv-x="470" 
d="M175 520h120q60 0 95 -35t35 -95v-30q0 -25 -25 -25h-80q-25 0 -25 25v5q0 19 -8 27t-27 8h-50q-19 0 -27 -8t-8 -27v-5q0 -11 9 -19t31 -16l130 -50q51 -20 70.5 -45.5t19.5 -79.5v-30q0 -60 -35 -95t-95 -35h-140q-60 0 -95 35t-35 95v35q0 25 25 25h80q25 0 25 -25
v-10q0 -19 8 -27t27 -8h70q19 0 27 8t8 27v5q0 11 -9 19t-31 16l-130 50q-51 20 -70.5 45.5t-19.5 79.5v30q0 60 35 95t95 35z" />
    <glyph glyph-name="afii10103" unicode="&#x456;" horiz-adv-x="250" 
d="M85 500h80q25 0 25 -25v-450q0 -25 -25 -25h-80q-25 0 -25 25v450q0 25 25 25zM85 710h80q25 0 25 -25v-80q0 -25 -25 -25h-80q-25 0 -25 25v80q0 25 25 25z" />
    <glyph glyph-name="afii10104" unicode="&#x457;" horiz-adv-x="270" 
d="M95 510h80q25 0 25 -25v-460q0 -25 -25 -25h-80q-25 0 -25 25v460q0 25 25 25zM10 710h70q25 0 25 -25v-80q0 -25 -25 -25h-70q-25 0 -25 25v80q0 25 25 25zM190 710h70q25 0 25 -25v-80q0 -25 -25 -25h-70q-25 0 -25 25v80q0 25 25 25z" />
    <glyph glyph-name="afii10105" unicode="&#x458;" horiz-adv-x="250" 
d="M-40 -175v70q0 25 25 25h30q45 0 45 45v510q0 25 25 25h80q25 0 25 -25v-545q0 -60 -35 -95t-95 -35h-75q-25 0 -25 25zM85 710h80q25 0 25 -25v-80q0 -25 -25 -25h-80q-25 0 -25 25v80q0 25 25 25z" />
    <glyph glyph-name="afii10106" unicode="&#x459;" horiz-adv-x="715" 
d="M240 390l-40 -265q-11 -69 -48 -102t-107 -33h-20q-25 0 -25 25v70q0 25 25 25q43 0 50 45l55 330q5 25 35 25h250q25 0 25 -25v-135h100q60 0 95 -35t35 -95v-90q0 -60 -35 -95t-95 -35h-205q-25 0 -25 25v365h-70zM540 155v40q0 45 -45 45h-55v-130h55q45 0 45 45z" />
    <glyph glyph-name="afii10107" unicode="&#x45a;" horiz-adv-x="715" 
d="M85 510h80q25 0 25 -25v-145h120v145q0 25 25 25h80q25 0 25 -25v-145h100q60 0 95 -35t35 -95v-80q0 -60 -35 -95t-95 -35h-205q-25 0 -25 25v195h-120v-195q0 -25 -25 -25h-80q-25 0 -25 25v460q0 25 25 25zM540 155v30q0 45 -45 45h-55v-120h55q45 0 45 45z" />
    <glyph glyph-name="afii10108" unicode="&#x45b;" horiz-adv-x="530" 
d="M260 502h-60v-77h145q60 0 95 -35t35 -95v-270q0 -25 -25 -25h-80q-25 0 -25 25v235q0 45 -45 45h-100v-280q0 -25 -25 -25h-80q-25 0 -25 25v477h-35q-25 0 -25 25v68q0 25 25 25h35v55q0 25 25 25h80q25 0 25 -25v-55h60q25 0 25 -25v-68q0 -25 -25 -25z" />
    <glyph glyph-name="afii10109" unicode="&#x45c;" horiz-adv-x="473" 
d="M85 510h80q25 0 25 -25v-160h55l70 160q12 25 35 25h90q11 0 15.5 -7t-0.5 -18l-105 -215l115 -245q5 -11 0.5 -18t-15.5 -7h-90q-23 0 -35 25l-80 180h-55v-180q0 -25 -25 -25h-80q-25 0 -25 25v460q0 25 25 25zM385 725l-75 -130q-15 -25 -35 -25h-50q-10 0 -14.5 7
t-0.5 18l45 130q8 25 35 25h80q12 0 16.5 -7t-1.5 -18z" />
    <glyph glyph-name="afii10110" unicode="&#x45e;" horiz-adv-x="439" 
d="M232 205l70 280q7 25 35 25h85q10 0 14.5 -7t0.5 -18l-155 -515q-25 -84 -68 -122t-117 -38h-20q-25 0 -25 25v70q0 25 25 25h20q51 0 65 65l-160 490q-4 11 1.5 18t13.5 7h85q27 0 35 -25l85 -280h10zM180 725v-20q0 -30 30 -30h20q30 0 30 30v20q0 25 25 25h55
q25 0 25 -25v-25q0 -115 -115 -115h-60q-115 0 -115 115v25q0 25 25 25h55q25 0 25 -25z" />
    <glyph glyph-name="afii10193" unicode="&#x45f;" 
d="M195 0h-110q-25 0 -25 25v460q0 25 25 25h80q25 0 25 -25v-365h145v365q0 25 25 25h80q25 0 25 -25v-460q0 -25 -25 -25h-110v-75q0 -25 -25 -25h-85q-25 0 -25 25v75z" />
    <glyph glyph-name="afii10050" unicode="&#x490;" horiz-adv-x="520" 
d="M225 565v-540q0 -25 -25 -25h-100q-25 0 -25 25v650q0 25 25 25h270v75q0 25 25 25h100q25 0 25 -25v-185q0 -25 -25 -25h-270z" />
    <glyph glyph-name="afii10098" unicode="&#x491;" horiz-adv-x="390" 
d="M390 565v-150q0 -25 -25 -25h-175v-365q0 -25 -25 -25h-80q-25 0 -25 25v460q0 25 25 25h175v55q0 25 25 25h80q25 0 25 -25z" />
    <glyph glyph-name="uni1E9E" unicode="&#x1e9e;" horiz-adv-x="665" 
d="M75 25v520q0 155 155 155h330q25 0 25 -25v-60q0 -14 -3.5 -25t-7.5 -16.5l-14 -18.5l-100 -125v-10q155 0 155 -155v-110q0 -155 -155 -155h-110q-25 0 -25 25v85q0 25 25 25h65q23 0 36.5 13.5t13.5 36.5v65q0 22 -13.5 36t-36.5 14h-95q-25 0 -25 25v45q0 30 20 55
l100 130v10h-140q-23 0 -36.5 -13.5t-13.5 -36.5v-490q0 -25 -25 -25h-100q-25 0 -25 25z" />
    <glyph glyph-name="endash" unicode="&#x2013;" horiz-adv-x="530" 
d="M480 245h-430q-25 0 -25 25v70q0 25 25 25h430q25 0 25 -25v-70q0 -25 -25 -25z" />
    <glyph glyph-name="emdash" unicode="&#x2014;" horiz-adv-x="695" 
d="M645 245h-595q-25 0 -25 25v70q0 25 25 25h595q25 0 25 -25v-70q0 -25 -25 -25z" />
    <glyph glyph-name="quoteleft" unicode="&#x2018;" horiz-adv-x="200" 
d="M35 480v75q0 11 1.5 19.5t2.5 11.5t5.5 12t5.5 12l30 70q8 20 30 20h20q23 0 15 -20l-35 -90h30q25 0 25 -25v-85q0 -25 -25 -25h-80q-25 0 -25 25z" />
    <glyph glyph-name="quoteright" unicode="&#x2019;" horiz-adv-x="200" 
d="M165 675v-75q0 -11 -1.5 -19.5t-2.5 -11.5t-5.5 -12t-5.5 -12l-30 -70q-8 -20 -30 -20h-20q-23 0 -15 20l35 90h-30q-25 0 -25 25v85q0 25 25 25h80q25 0 25 -25z" />
    <glyph glyph-name="quotesinglbase" unicode="&#x201a;" horiz-adv-x="200" 
d="M165 110v-75q0 -11 -1.5 -19.5t-2.5 -11.5t-5.5 -12t-5.5 -12l-30 -70q-8 -20 -30 -20h-20q-23 0 -15 20l35 90h-30q-25 0 -25 25v85q0 25 25 25h80q25 0 25 -25z" />
    <glyph glyph-name="quotedblleft" unicode="&#x201c;" horiz-adv-x="370" 
d="M35 480v75q0 11 1.5 19.5t2.5 11.5t5.5 12t5.5 12l30 70q8 20 30 20h20q23 0 15 -20l-35 -90h30q25 0 25 -25v-85q0 -25 -25 -25h-80q-25 0 -25 25zM205 480v75q0 11 1.5 19.5t2.5 11.5t5.5 12t5.5 12l30 70q8 20 30 20h20q23 0 15 -20l-35 -90h30q25 0 25 -25v-85
q0 -25 -25 -25h-80q-25 0 -25 25z" />
    <glyph glyph-name="quotedblright" unicode="&#x201d;" horiz-adv-x="370" 
d="M165 675v-75q0 -11 -1.5 -19.5t-2.5 -11.5t-5.5 -12t-5.5 -12l-30 -70q-8 -20 -30 -20h-20q-23 0 -15 20l35 90h-30q-25 0 -25 25v85q0 25 25 25h80q25 0 25 -25zM335 675v-75q0 -11 -1.5 -19.5t-2.5 -11.5t-5.5 -12t-5.5 -12l-30 -70q-8 -20 -30 -20h-20q-23 0 -15 20
l35 90h-30q-25 0 -25 25v85q0 25 25 25h80q25 0 25 -25z" />
    <glyph glyph-name="quotedblbase" unicode="&#x201e;" horiz-adv-x="370" 
d="M165 110v-75q0 -11 -1.5 -19.5t-2.5 -11.5t-5.5 -12t-5.5 -12l-30 -70q-8 -20 -30 -20h-20q-23 0 -15 20l35 90h-30q-25 0 -25 25v85q0 25 25 25h80q25 0 25 -25zM335 110v-75q0 -11 -1.5 -19.5t-2.5 -11.5t-5.5 -12t-5.5 -12l-30 -70q-8 -20 -30 -20h-20q-23 0 -15 20
l35 90h-30q-25 0 -25 25v85q0 25 25 25h80q25 0 25 -25z" />
    <glyph glyph-name="dagger" unicode="&#x2020;" horiz-adv-x="455" 
d="M155 25v380h-95q-25 0 -25 25v85q0 25 25 25h95v135q0 25 25 25h95q25 0 25 -25v-135h95q25 0 25 -25v-85q0 -25 -25 -25h-95v-380q0 -25 -25 -25h-95q-25 0 -25 25z" />
    <glyph glyph-name="daggerdbl" unicode="&#x2021;" horiz-adv-x="455" 
d="M155 270v160h-95q-25 0 -25 25v85q0 25 25 25h95v110q0 25 25 25h95q25 0 25 -25v-110h95q25 0 25 -25v-85q0 -25 -25 -25h-95v-160h95q25 0 25 -25v-85q0 -25 -25 -25h-95v-110q0 -25 -25 -25h-95q-25 0 -25 25v110h-95q-25 0 -25 25v85q0 25 25 25h95z" />
    <glyph glyph-name="bullet" unicode="&#x2022;" horiz-adv-x="340" 
d="M260 335v-45q0 -70 -75 -70h-30q-75 0 -75 70v45q0 70 75 70h30q75 0 75 -70z" />
    <glyph glyph-name="ellipsis" unicode="&#x2026;" horiz-adv-x="600" 
d="M60 135h80q25 0 25 -25v-85q0 -25 -25 -25h-80q-25 0 -25 25v85q0 25 25 25zM260 135h80q25 0 25 -25v-85q0 -25 -25 -25h-80q-25 0 -25 25v85q0 25 25 25zM460 135h80q25 0 25 -25v-85q0 -25 -25 -25h-80q-25 0 -25 25v85q0 25 25 25z" />
    <glyph glyph-name="perthousand" unicode="&#x2030;" horiz-adv-x="1055" 
d="M180 25l250 650q10 25 40 25h85q8 0 13.5 -7.5t1.5 -17.5l-250 -650q-10 -25 -40 -25h-85q-8 0 -13.5 7.5t-1.5 17.5zM30 480v120q0 60 25 85t85 25h50q60 0 85 -25t25 -85v-120q0 -60 -25 -85t-85 -25h-50q-60 0 -85 25t-25 85zM130 580v-80q0 -19 8 -27t27 -8t27 8
t8 27v80q0 19 -8 27t-27 8t-27 -8t-8 -27zM720 220v-120q0 -60 -25 -85t-85 -25h-50q-60 0 -85 25t-25 85v120q0 60 25 85t85 25h50q60 0 85 -25t25 -85zM620 120v80q0 19 -8 27t-27 8t-27 -8t-8 -27v-80q0 -19 8 -27t27 -8t27 8t8 27zM1025 220v-120q0 -60 -25 -85t-85 -25
h-50q-60 0 -85 25t-25 85v120q0 60 25 85t85 25h50q60 0 85 -25t25 -85zM925 120v80q0 19 -8 27t-27 8t-27 -8t-8 -27v-80q0 -19 8 -27t27 -8t27 8t8 27z" />
    <glyph glyph-name="guilsinglleft" unicode="&#x2039;" horiz-adv-x="309" 
d="M145 40l-115 215l115 215q9 16 15 20.5t20 4.5h80q12 0 16.5 -7t-1.5 -18l-115 -215l115 -215q6 -11 1.5 -18t-16.5 -7h-80q-14 0 -20 4.5t-15 20.5z" />
    <glyph glyph-name="guilsinglright" unicode="&#x203a;" horiz-adv-x="309" 
d="M279 255l-115 -215q-9 -16 -15 -20.5t-20 -4.5h-80q-12 0 -16.5 7t1.5 18l115 215l-115 215q-6 11 -1.5 18t16.5 7h80q14 0 20 -4.5t15 -20.5z" />
    <glyph glyph-name="fraction" unicode="&#x2044;" horiz-adv-x="164" 
d="M-113 25l250 650q10 25 40 25h85q8 0 13.5 -7.5t1.5 -17.5l-250 -650q-10 -25 -40 -25h-85q-8 0 -13.5 7.5t-1.5 17.5z" />
    <glyph glyph-name="zerosuperior" unicode="&#x2070;" horiz-adv-x="330" 
d="M30 570v120q0 60 25 85t85 25h50q60 0 85 -25t25 -85v-120q0 -60 -25 -85t-85 -25h-50q-60 0 -85 25t-25 85zM130 670v-80q0 -19 8 -27t27 -8t27 8t8 27v80q0 19 -8 27t-27 8t-27 -8t-8 -27z" />
    <glyph glyph-name="foursuperior" unicode="&#x2074;" horiz-adv-x="295" 
d="M245 780v-160h10q11 0 15.5 -4.5t4.5 -15.5v-45q0 -11 -4.5 -15.5t-15.5 -4.5h-10v-55q0 -11 -4.5 -15.5t-15.5 -4.5h-60q-11 0 -15.5 4.5t-4.5 15.5v55h-115q-11 0 -15.5 4.5t-4.5 15.5v40q0 7 0.5 12t2 10t2.5 7t5 7.5t5 8.5l80 140q12 20 40 20h80q11 0 15.5 -4.5
t4.5 -15.5zM100 620h45v80h-5l-40 -75v-5z" />
    <glyph glyph-name="fivesuperior" unicode="&#x2075;" horiz-adv-x="315" 
d="M145 685h45q56 0 78 -22t22 -78v-25q0 -56 -22 -78t-78 -22h-55q-56 0 -78 22t-22 78q0 11 4.5 15.5t15.5 4.5h65q6 0 9 -4.5t3.5 -10.5t7 -10.5t20.5 -4.5h5q25 0 25 25v10q0 25 -25 25h-100q-11 0 -15.5 4.5t-4.5 15.5v150q0 11 4.5 15.5t15.5 4.5h195q11 0 15.5 -4.5
t4.5 -15.5v-45q0 -11 -4.5 -15.5t-15.5 -4.5h-115v-30z" />
    <glyph glyph-name="sixsuperior" unicode="&#x2076;" horiz-adv-x="315" 
d="M35 560v140q0 56 22 78t78 22h50q56 0 78 -21t22 -74q0 -11 -4.5 -15.5t-15.5 -4.5h-65q-8 0 -12 5.5t-4.5 12t-6 12t-17.5 5.5q-25 0 -25 -25v-25h55q56 0 78 -22t22 -78v-10q0 -56 -22 -78t-78 -22h-55q-56 0 -78 22t-22 78zM135 600v-35q0 -25 25 -25h5q25 0 25 25v10
q0 25 -25 25h-30z" />
    <glyph glyph-name="sevensuperior" unicode="&#x2077;" horiz-adv-x="255" 
d="M148 705h-113q-11 0 -15.5 4.5t-4.5 15.5v55q0 11 4.5 15.5t15.5 4.5h200q11 0 15.5 -4.5t4.5 -15.5v-45q0 -11 -1.5 -18t-6 -18.5t-7.5 -18.5l-70 -200q-6 -20 -25 -20h-70q-23 0 -15 20z" />
    <glyph glyph-name="eightsuperior" unicode="&#x2078;" horiz-adv-x="320" 
d="M135 800h50q56 0 78 -22t22 -78q0 -20 -8.5 -35t-17.5 -20l-9 -5q5 -1 12.5 -4t20 -20t12.5 -41v-15q0 -56 -22 -78t-78 -22h-70q-56 0 -78 22t-22 78v15q0 24 11.5 40.5t22.5 20.5l11 4q-4 2 -10 5.5t-15.5 19t-9.5 35.5q0 56 22 78t78 22zM170 600h-20q-25 0 -25 -25
v-15q0 -25 25 -25h20q25 0 25 25v15q0 25 -25 25zM155 665h10q25 0 25 25v10q0 25 -25 25h-10q-25 0 -25 -25v-10q0 -25 25 -25z" />
    <glyph glyph-name="ninesuperior" unicode="&#x2079;" horiz-adv-x="315" 
d="M280 700v-140q0 -56 -22 -78t-78 -22h-50q-56 0 -78 21t-22 74q0 11 4.5 15.5t15.5 4.5h65q8 0 12 -5.5t4.5 -12t6 -12t17.5 -5.5q25 0 25 25v25h-55q-56 0 -78 22t-22 78v10q0 56 22 78t78 22h55q56 0 78 -22t22 -78zM180 660v35q0 25 -25 25h-5q-25 0 -25 -25v-10
q0 -25 25 -25h30z" />
    <glyph glyph-name="zeroinferior" unicode="&#x2080;" horiz-adv-x="330" 
d="M30 10v120q0 60 25 85t85 25h50q60 0 85 -25t25 -85v-120q0 -60 -25 -85t-85 -25h-50q-60 0 -85 25t-25 85zM130 110v-80q0 -19 8 -27t27 -8t27 8t8 27v80q0 19 -8 27t-27 8t-27 -8t-8 -27z" />
    <glyph glyph-name="oneinferior" unicode="&#x2081;" horiz-adv-x="245" 
d="M100 145h-50q-11 0 -15.5 4.5t-4.5 15.5v55q0 11 4.5 15.5t15.5 4.5h135q11 0 15.5 -4.5t4.5 -15.5v-300q0 -11 -4.5 -15.5t-15.5 -4.5h-65q-11 0 -15.5 4.5t-4.5 15.5v225z" />
    <glyph glyph-name="twoinferior" unicode="&#x2082;" horiz-adv-x="300" 
d="M275 140v-20q0 -53 -50 -85l-70 -45v-5h100q11 0 15.5 -4.5t4.5 -15.5v-45q0 -11 -4.5 -15.5t-15.5 -4.5h-210q-11 0 -15.5 4.5t-4.5 15.5v55q0 18 4 25t16 15l110 75q20 13 20 35q0 25 -25 25q-12 0 -17.5 -4.5t-6 -10.5t-4.5 -10.5t-12 -4.5h-65q-11 0 -15.5 4.5
t-4.5 15.5q0 56 22 78t78 22h50q56 0 78 -22t22 -78z" />
    <glyph glyph-name="threeinferior" unicode="&#x2083;" horiz-adv-x="310" 
d="M280 20v-20q0 -56 -22 -78t-78 -22h-55q-56 0 -78 22t-22 78q0 11 4.5 15.5t15.5 4.5h65q6 0 9 -4.5t3.5 -10.5t7 -10.5t20.5 -4.5h5q25 0 25 25t-25 25h-40q-11 0 -15.5 4.5t-4.5 15.5v30q0 18 18 30l47 30v5h-105q-11 0 -15.5 4.5t-4.5 15.5v45q0 11 4.5 15.5t15.5 4.5
h195q11 0 15.5 -4.5t4.5 -15.5v-45q0 -18 -4 -25t-16 -15l-45 -30v-5q3 0 8 -1t18 -6t23 -12.5t18 -23.5t8 -37z" />
    <glyph glyph-name="fourinferior" unicode="&#x2084;" horiz-adv-x="295" 
d="M245 220v-160h10q11 0 15.5 -4.5t4.5 -15.5v-45q0 -11 -4.5 -15.5t-15.5 -4.5h-10v-55q0 -11 -4.5 -15.5t-15.5 -4.5h-60q-11 0 -15.5 4.5t-4.5 15.5v55h-115q-11 0 -15.5 4.5t-4.5 15.5v40q0 7 0.5 12t2 10t2.5 7t5 7.5t5 8.5l80 140q12 20 40 20h80q11 0 15.5 -4.5
t4.5 -15.5zM100 60h45v80h-5l-40 -75v-5z" />
    <glyph glyph-name="fiveinferior" unicode="&#x2085;" horiz-adv-x="315" 
d="M145 125h45q56 0 78 -22t22 -78v-25q0 -56 -22 -78t-78 -22h-55q-56 0 -78 22t-22 78q0 11 4.5 15.5t15.5 4.5h65q6 0 9 -4.5t3.5 -10.5t7 -10.5t20.5 -4.5h5q25 0 25 25v10q0 25 -25 25h-100q-11 0 -15.5 4.5t-4.5 15.5v150q0 11 4.5 15.5t15.5 4.5h195q11 0 15.5 -4.5
t4.5 -15.5v-45q0 -11 -4.5 -15.5t-15.5 -4.5h-115v-30z" />
    <glyph glyph-name="sixinferior" unicode="&#x2086;" horiz-adv-x="315" 
d="M35 0v140q0 56 22 78t78 22h50q56 0 78 -21t22 -74q0 -11 -4.5 -15.5t-15.5 -4.5h-65q-8 0 -12 5.5t-4.5 12t-6 12t-17.5 5.5q-25 0 -25 -25v-25h55q56 0 78 -22t22 -78v-10q0 -56 -22 -78t-78 -22h-55q-56 0 -78 22t-22 78zM135 40v-35q0 -25 25 -25h5q25 0 25 25v10
q0 25 -25 25h-30z" />
    <glyph glyph-name="seveninferior" unicode="&#x2087;" horiz-adv-x="255" 
d="M148 145h-113q-11 0 -15.5 4.5t-4.5 15.5v55q0 11 4.5 15.5t15.5 4.5h200q11 0 15.5 -4.5t4.5 -15.5v-45q0 -11 -1.5 -18t-6 -18.5t-7.5 -18.5l-70 -200q-6 -20 -25 -20h-70q-23 0 -15 20z" />
    <glyph glyph-name="eightinferior" unicode="&#x2088;" horiz-adv-x="320" 
d="M135 240h50q56 0 78 -22t22 -78q0 -20 -8.5 -35t-17.5 -20l-9 -5q5 -1 12.5 -4t20 -20t12.5 -41v-15q0 -56 -22 -78t-78 -22h-70q-56 0 -78 22t-22 78v15q0 24 11.5 40.5t22.5 20.5l11 4q-4 2 -10 5.5t-15.5 19t-9.5 35.5q0 56 22 78t78 22zM170 40h-20q-25 0 -25 -25
v-15q0 -25 25 -25h20q25 0 25 25v15q0 25 -25 25zM155 105h10q25 0 25 25v10q0 25 -25 25h-10q-25 0 -25 -25v-10q0 -25 25 -25z" />
    <glyph glyph-name="nineinferior" unicode="&#x2089;" horiz-adv-x="315" 
d="M280 140v-140q0 -56 -22 -78t-78 -22h-50q-56 0 -78 21t-22 74q0 11 4.5 15.5t15.5 4.5h65q8 0 12 -5.5t4.5 -12t6 -12t17.5 -5.5q25 0 25 25v25h-55q-56 0 -78 22t-22 78v10q0 56 22 78t78 22h55q56 0 78 -22t22 -78zM180 100v35q0 25 -25 25h-5q-25 0 -25 -25v-10
q0 -25 25 -25h30z" />
    <glyph glyph-name="Euro" unicode="&#x20ac;" horiz-adv-x="685" 
d="M400 230h-160v-55q0 -23 14 -36.5t36 -13.5h145q23 0 36.5 13.5t13.5 36.5v35q0 25 25 25h100q25 0 25 -25v-65q0 -155 -155 -155h-235q-155 0 -155 155v85h-25q-25 0 -25 25v45q0 25 25 25h25v45h-25q-25 0 -25 25v45q0 25 25 25h25v90q0 155 155 155h235
q155 0 155 -155v-65q0 -25 -25 -25h-100q-25 0 -25 25v35q0 23 -13.5 36.5t-36.5 13.5h-145q-22 0 -36 -13.5t-14 -36.5v-60h160q25 0 25 -25v-45q0 -25 -25 -25h-160v-45h160q25 0 25 -25v-45q0 -25 -25 -25z" />
    <glyph glyph-name="uni20B4" unicode="&#x20b4;" horiz-adv-x="650" 
d="M65 330h520q25 0 25 -25v-40q0 -25 -25 -25h-355v-75q0 -23 14 -36.5t36 -13.5h90q22 0 36 13.5t14 36.5v15q0 25 25 25h100q25 0 25 -25v-35q0 -155 -155 -155h-180q-155 0 -155 155v95h-15q-25 0 -25 25v40q0 25 25 25zM585 370h-520q-25 0 -25 25v40q0 25 25 25h355
v75q0 23 -14 36.5t-36 13.5h-90q-22 0 -36 -13.5t-14 -36.5v-15q0 -25 -25 -25h-100q-25 0 -25 25v35q0 155 155 155h180q155 0 155 -155v-95h15q25 0 25 -25v-40q0 -25 -25 -25z" />
    <glyph glyph-name="uni20BD" unicode="&#x20bd;" horiz-adv-x="620" 
d="M465 120h-220v-95q0 -25 -25 -25h-100q-25 0 -25 25v95h-35q-25 0 -25 25v60q0 25 25 25h35v50h-35q-25 0 -25 25v60q0 25 25 25h35v285q0 25 25 25h295q155 0 155 -155v-110q0 -155 -155 -155h-170v-50h220q25 0 25 -25v-60q0 -25 -25 -25zM370 565h-125v-175h125
q22 0 36 14t14 36v75q0 23 -14 36.5t-36 13.5z" />
    <glyph glyph-name="afii61352" unicode="&#x2116;" horiz-adv-x="1005" 
d="M925 15h-220q-25 0 -25 25v60q0 25 25 25h220q25 0 25 -25v-60q0 -25 -25 -25zM950 430v-120q0 -60 -25 -85t-85 -25h-50q-60 0 -85 25t-25 85v120q0 60 25 85t85 25h50q60 0 85 -25t25 -85zM850 330v80q0 19 -8 27t-27 8t-27 -8t-8 -27v-80q0 -19 8 -27t27 -8t27 8t8 27
zM465 265h10v410q0 25 25 25h100q25 0 25 -25v-650q0 -25 -25 -25h-125q-22 0 -35 25l-205 410h-10v-410q0 -25 -25 -25h-100q-25 0 -25 25v650q0 25 25 25h125q22 0 35 -25z" />
    <glyph glyph-name="trademark" unicode="&#x2122;" horiz-adv-x="715" 
d="M85 605h-60q-15 0 -15 15v65q0 15 15 15h225q15 0 15 -15v-65q0 -15 -15 -15h-60v-220q0 -15 -15 -15h-75q-15 0 -15 15v220zM505 370h-45q-16 0 -20 15l-40 125h-5v-125q0 -15 -15 -15h-70q-15 0 -15 15v300q0 15 15 15h90q16 0 20 -15l60 -180h5l60 180q5 15 20 15h90
q15 0 15 -15v-300q0 -15 -15 -15h-70q-15 0 -15 15v125h-5l-40 -125q-5 -15 -20 -15z" />
    <glyph glyph-name="minus" unicode="&#x2212;" horiz-adv-x="400" 
d="M350 255h-300q-25 0 -25 25v70q0 25 25 25h300q25 0 25 -25v-70q0 -25 -25 -25z" />
    <glyph glyph-name="zero.dnom" unicode="&#xf643;" horiz-adv-x="330" 
d="M30 110v120q0 60 25 85t85 25h50q60 0 85 -25t25 -85v-120q0 -60 -25 -85t-85 -25h-50q-60 0 -85 25t-25 85zM130 210v-80q0 -19 8 -27t27 -8t27 8t8 27v80q0 19 -8 27t-27 8t-27 -8t-8 -27z" />
    <glyph glyph-name="one.dnom" unicode="&#xf644;" horiz-adv-x="247" 
d="M100 245h-50q-11 0 -15.5 4.5t-4.5 15.5v55q0 11 4.5 15.5t15.5 4.5h135q11 0 15.5 -4.5t4.5 -15.5v-300q0 -11 -4.5 -15.5t-15.5 -4.5h-65q-11 0 -15.5 4.5t-4.5 15.5v225z" />
    <glyph glyph-name="two.dnom" unicode="&#xf645;" horiz-adv-x="300" 
d="M275 240v-20q0 -53 -50 -85l-70 -45v-5h100q11 0 15.5 -4.5t4.5 -15.5v-45q0 -11 -4.5 -15.5t-15.5 -4.5h-210q-11 0 -15.5 4.5t-4.5 15.5v55q0 18 4 25t16 15l110 75q20 13 20 35q0 25 -25 25q-12 0 -17.5 -4.5t-6 -10.5t-4.5 -10.5t-12 -4.5h-65q-11 0 -15.5 4.5
t-4.5 15.5q0 56 22 78t78 22h50q56 0 78 -22t22 -78z" />
    <glyph glyph-name="three.dnom" unicode="&#xf646;" horiz-adv-x="310" 
d="M280 120v-20q0 -56 -22 -78t-78 -22h-55q-56 0 -78 22t-22 78q0 11 4.5 15.5t15.5 4.5h65q6 0 9 -4.5t3.5 -10.5t7 -10.5t20.5 -4.5h5q25 0 25 25t-25 25h-40q-11 0 -15.5 4.5t-4.5 15.5v30q0 18 18 30l47 30v5h-105q-11 0 -15.5 4.5t-4.5 15.5v45q0 11 4.5 15.5
t15.5 4.5h195q11 0 15.5 -4.5t4.5 -15.5v-45q0 -18 -4 -25t-16 -15l-45 -30v-5q3 0 8 -1t18 -6t23 -12.5t18 -23.5t8 -37z" />
    <glyph glyph-name="four.dnom" unicode="&#xf647;" horiz-adv-x="295" 
d="M245 320v-160h10q11 0 15.5 -4.5t4.5 -15.5v-45q0 -11 -4.5 -15.5t-15.5 -4.5h-10v-55q0 -11 -4.5 -15.5t-15.5 -4.5h-60q-11 0 -15.5 4.5t-4.5 15.5v55h-115q-11 0 -15.5 4.5t-4.5 15.5v40q0 7 0.5 12t2 10t2.5 7t5 7.5t5 8.5l80 140q12 20 40 20h80q11 0 15.5 -4.5
t4.5 -15.5zM100 160h45v80h-5l-40 -75v-5z" />
    <glyph glyph-name="five.dnom" unicode="&#xf648;" horiz-adv-x="315" 
d="M145 225h45q56 0 78 -22t22 -78v-25q0 -56 -22 -78t-78 -22h-55q-56 0 -78 22t-22 78q0 11 4.5 15.5t15.5 4.5h65q6 0 9 -4.5t3.5 -10.5t7 -10.5t20.5 -4.5h5q25 0 25 25v10q0 25 -25 25h-100q-11 0 -15.5 4.5t-4.5 15.5v150q0 11 4.5 15.5t15.5 4.5h195q11 0 15.5 -4.5
t4.5 -15.5v-45q0 -11 -4.5 -15.5t-15.5 -4.5h-115v-30z" />
    <glyph glyph-name="six.dnom" unicode="&#xf649;" horiz-adv-x="315" 
d="M35 100v140q0 56 22 78t78 22h50q56 0 78 -21t22 -74q0 -11 -4.5 -15.5t-15.5 -4.5h-65q-8 0 -12 5.5t-4.5 12t-6 12t-17.5 5.5q-25 0 -25 -25v-25h55q56 0 78 -22t22 -78v-10q0 -56 -22 -78t-78 -22h-55q-56 0 -78 22t-22 78zM135 140v-35q0 -25 25 -25h5q25 0 25 25v10
q0 25 -25 25h-30z" />
    <glyph glyph-name="seven.dnom" unicode="&#xf64a;" horiz-adv-x="255" 
d="M148 245h-113q-11 0 -15.5 4.5t-4.5 15.5v55q0 11 4.5 15.5t15.5 4.5h200q11 0 15.5 -4.5t4.5 -15.5v-45q0 -11 -1.5 -18t-6 -18.5t-7.5 -18.5l-70 -200q-6 -20 -25 -20h-70q-23 0 -15 20z" />
    <glyph glyph-name="eight.dnom" unicode="&#xf64b;" horiz-adv-x="320" 
d="M135 340h50q56 0 78 -22t22 -78q0 -20 -8.5 -35t-17.5 -20l-9 -5q5 -1 12.5 -4t20 -20t12.5 -41v-15q0 -56 -22 -78t-78 -22h-70q-56 0 -78 22t-22 78v15q0 24 11.5 40.5t22.5 20.5l11 4q-4 2 -10 5.5t-15.5 19t-9.5 35.5q0 56 22 78t78 22zM170 140h-20q-25 0 -25 -25
v-15q0 -25 25 -25h20q25 0 25 25v15q0 25 -25 25zM155 205h10q25 0 25 25v10q0 25 -25 25h-10q-25 0 -25 -25v-10q0 -25 25 -25z" />
    <glyph glyph-name="nine.dnom" unicode="&#xf64c;" horiz-adv-x="315" 
d="M280 240v-140q0 -56 -22 -78t-78 -22h-50q-56 0 -78 21t-22 74q0 11 4.5 15.5t15.5 4.5h65q8 0 12 -5.5t4.5 -12t6 -12t17.5 -5.5q25 0 25 25v25h-55q-56 0 -78 22t-22 78v10q0 56 22 78t78 22h55q56 0 78 -22t22 -78zM180 200v35q0 25 -25 25h-5q-25 0 -25 -25v-10
q0 -25 25 -25h30z" />
    <glyph glyph-name="zero.numr" unicode="&#xf64d;" horiz-adv-x="330" 
d="M30 470v120q0 60 25 85t85 25h50q60 0 85 -25t25 -85v-120q0 -60 -25 -85t-85 -25h-50q-60 0 -85 25t-25 85zM130 570v-80q0 -19 8 -27t27 -8t27 8t8 27v80q0 19 -8 27t-27 8t-27 -8t-8 -27z" />
    <glyph glyph-name="one.numr" unicode="&#xf64e;" horiz-adv-x="245" 
d="M100 605h-50q-11 0 -15.5 4.5t-4.5 15.5v55q0 11 4.5 15.5t15.5 4.5h135q11 0 15.5 -4.5t4.5 -15.5v-300q0 -11 -4.5 -15.5t-15.5 -4.5h-65q-11 0 -15.5 4.5t-4.5 15.5v225z" />
    <glyph glyph-name="two.numr" unicode="&#xf64f;" horiz-adv-x="300" 
d="M275 600v-20q0 -53 -50 -85l-70 -45v-5h100q11 0 15.5 -4.5t4.5 -15.5v-45q0 -11 -4.5 -15.5t-15.5 -4.5h-210q-11 0 -15.5 4.5t-4.5 15.5v55q0 18 4 25t16 15l110 75q20 13 20 35q0 25 -25 25q-12 0 -17.5 -4.5t-6 -10.5t-4.5 -10.5t-12 -4.5h-65q-11 0 -15.5 4.5
t-4.5 15.5q0 56 22 78t78 22h50q56 0 78 -22t22 -78z" />
    <glyph glyph-name="three.numr" unicode="&#xf650;" horiz-adv-x="310" 
d="M280 480v-20q0 -56 -22 -78t-78 -22h-55q-56 0 -78 22t-22 78q0 11 4.5 15.5t15.5 4.5h65q6 0 9 -4.5t3.5 -10.5t7 -10.5t20.5 -4.5h5q25 0 25 25t-25 25h-40q-11 0 -15.5 4.5t-4.5 15.5v30q0 18 18 30l47 30v5h-105q-11 0 -15.5 4.5t-4.5 15.5v45q0 11 4.5 15.5
t15.5 4.5h195q11 0 15.5 -4.5t4.5 -15.5v-45q0 -18 -4 -25t-16 -15l-45 -30v-5q3 0 8 -1t18 -6t23 -12.5t18 -23.5t8 -37z" />
    <glyph glyph-name="four.numr" unicode="&#xf651;" horiz-adv-x="295" 
d="M245 680v-160h10q11 0 15.5 -4.5t4.5 -15.5v-45q0 -11 -4.5 -15.5t-15.5 -4.5h-10v-55q0 -11 -4.5 -15.5t-15.5 -4.5h-60q-11 0 -15.5 4.5t-4.5 15.5v55h-115q-11 0 -15.5 4.5t-4.5 15.5v40q0 7 0.5 12t2 10t2.5 7t5 7.5t5 8.5l80 140q12 20 40 20h80q11 0 15.5 -4.5
t4.5 -15.5zM100 520h45v80h-5l-40 -75v-5z" />
    <glyph glyph-name="five.numr" unicode="&#xf652;" horiz-adv-x="315" 
d="M145 585h45q56 0 78 -22t22 -78v-25q0 -56 -22 -78t-78 -22h-55q-56 0 -78 22t-22 78q0 11 4.5 15.5t15.5 4.5h65q6 0 9 -4.5t3.5 -10.5t7 -10.5t20.5 -4.5h5q25 0 25 25v10q0 25 -25 25h-100q-11 0 -15.5 4.5t-4.5 15.5v150q0 11 4.5 15.5t15.5 4.5h195q11 0 15.5 -4.5
t4.5 -15.5v-45q0 -11 -4.5 -15.5t-15.5 -4.5h-115v-30z" />
    <glyph glyph-name="six.numr" unicode="&#xf653;" horiz-adv-x="315" 
d="M35 460v140q0 56 22 78t78 22h50q56 0 78 -21t22 -74q0 -11 -4.5 -15.5t-15.5 -4.5h-65q-8 0 -12 5.5t-4.5 12t-6 12t-17.5 5.5q-25 0 -25 -25v-25h55q56 0 78 -22t22 -78v-10q0 -56 -22 -78t-78 -22h-55q-56 0 -78 22t-22 78zM135 500v-35q0 -25 25 -25h5q25 0 25 25v10
q0 25 -25 25h-30z" />
    <glyph glyph-name="seven.numr" unicode="&#xf654;" horiz-adv-x="255" 
d="M148 605h-113q-11 0 -15.5 4.5t-4.5 15.5v55q0 11 4.5 15.5t15.5 4.5h200q11 0 15.5 -4.5t4.5 -15.5v-45q0 -11 -1.5 -18t-6 -18.5t-7.5 -18.5l-70 -200q-6 -20 -25 -20h-70q-23 0 -15 20z" />
    <glyph glyph-name="eight.numr" unicode="&#xf655;" horiz-adv-x="320" 
d="M135 700h50q56 0 78 -22t22 -78q0 -20 -8.5 -35t-17.5 -20l-9 -5q5 -1 12.5 -4t20 -20t12.5 -41v-15q0 -56 -22 -78t-78 -22h-70q-56 0 -78 22t-22 78v15q0 24 11.5 40.5t22.5 20.5l11 4q-4 2 -10 5.5t-15.5 19t-9.5 35.5q0 56 22 78t78 22zM170 500h-20q-25 0 -25 -25
v-15q0 -25 25 -25h20q25 0 25 25v15q0 25 -25 25zM155 565h10q25 0 25 25v10q0 25 -25 25h-10q-25 0 -25 -25v-10q0 -25 25 -25z" />
    <glyph glyph-name="nine.numr" unicode="&#xf656;" horiz-adv-x="315" 
d="M280 600v-140q0 -56 -22 -78t-78 -22h-50q-56 0 -78 21t-22 74q0 11 4.5 15.5t15.5 4.5h65q8 0 12 -5.5t4.5 -12t6 -12t17.5 -5.5q25 0 25 25v25h-55q-56 0 -78 22t-22 78v10q0 56 22 78t78 22h55q56 0 78 -22t22 -78zM180 560v35q0 25 -25 25h-5q-25 0 -25 -25v-10
q0 -25 25 -25h30z" />
    <glyph glyph-name="commaaccent" unicode="&#xf6c3;" horiz-adv-x="185" 
d="M155 -125v-70v-13t-1 -11t-1.5 -8t-2.5 -7.5t-2.5 -6t-3.5 -7t-4 -7.5l-30 -60q-10 -20 -30 -20h-20q-23 0 -15 20l35 85h-25q-25 0 -25 25v80q0 25 25 25h75q25 0 25 -25z" />
    <glyph glyph-name="cyrBreve" unicode="&#xf6d1;" horiz-adv-x="385" 
d="M240 925v15q0 25 25 25h65q25 0 25 -25v-40q0 -60 -27.5 -87.5t-87.5 -27.5h-95q-60 0 -87.5 27.5t-27.5 87.5v40q0 25 25 25h65q25 0 25 -25v-15q0 -30 30 -30h35q30 0 30 30z" />
    <glyph glyph-name="cyrbreve" unicode="&#xf6d4;" horiz-adv-x="350" 
d="M135 725v-20q0 -30 30 -30h20q30 0 30 30v20q0 25 25 25h55q25 0 25 -25v-25q0 -115 -115 -115h-60q-115 0 -115 115v25q0 25 25 25h55q25 0 25 -25z" />
    <glyph glyph-name="Germandbls" horiz-adv-x="665" 
d="M75 25v520q0 155 155 155h330q25 0 25 -25v-60q0 -14 -3.5 -25t-7.5 -16.5l-14 -18.5l-100 -125v-10q155 0 155 -155v-110q0 -155 -155 -155h-110q-25 0 -25 25v85q0 25 25 25h65q23 0 36.5 13.5t13.5 36.5v65q0 22 -13.5 36t-36.5 14h-95q-25 0 -25 25v45q0 30 20 55
l100 130v10h-140q-23 0 -36.5 -13.5t-13.5 -36.5v-490q0 -25 -25 -25h-100q-25 0 -25 25z" />
    <glyph glyph-name="foundryicon" horiz-adv-x="1230" 
d="M100 -110v920h1030v-920h-1030zM1110 -90v880h-990v-880h990zM635 610h110q36 0 58 -19t22 -46t-22 -46t-58 -19h-55v-80h-55v210zM635 300h110q36 0 58 -19t22 -46t-22 -46t-58 -19h-55v-80h-55v210zM495 170l-75 130h60l40 -75h5l40 75h65l-80 -130v-80h-55v80z
M495 480l-75 130h60l40 -75h5l40 75h65l-80 -130v-80h-55v80zM300 255h-65v45h165l25 -45h-70v-165h-55v165zM300 565h-65v45h165l25 -45h-70v-165h-55v165zM790 400v65q20 4 38 21t22 39h80v-45h-85v-35h120v-45h-175zM790 90v65q20 4 38 21t22 39h80v-45h-85v-35h120v-45
h-175zM810 300h155v-45h-115q-9 37 -40 45zM810 610h155v-45h-115q-9 37 -40 45zM765 545q0 7 -6.5 13.5t-13.5 6.5h-55v-40h55q8 0 14 6t6 14zM765 235q0 7 -6.5 13.5t-13.5 6.5h-55v-40h55q8 0 14 6t6 14z" />
    <glyph glyph-name="zero.tab" horiz-adv-x="665" 
d="M590 555v-410q0 -155 -155 -155h-200q-155 0 -155 155v410q0 155 155 155h200q155 0 155 -155zM440 175v350q0 23 -14 36.5t-36 13.5h-110q-22 0 -36 -13.5t-14 -36.5v-350q0 -23 14 -36.5t36 -13.5h110q22 0 36 13.5t14 36.5z" />
    <glyph glyph-name="one.tab" horiz-adv-x="665" 
d="M405 675v-540h120q25 0 25 -25v-85q0 -25 -25 -25h-390q-25 0 -25 25v85q0 25 25 25h120v430h-95q-25 0 -25 25v85q0 25 25 25h220q25 0 25 -25z" />
    <glyph glyph-name="two.tab" horiz-adv-x="665" 
d="M130 170l255 255q21 21 28 33.5t7 36.5v30q0 23 -14 36.5t-36 13.5h-70q-22 0 -36 -13.5t-14 -36.5v-35q0 -25 -25 -25h-100q-25 0 -25 25v65q0 155 155 155h160q155 0 155 -155v-80q0 -30 -11.5 -57t-23.5 -41t-35 -37l-195 -195v-10h240q25 0 25 -25v-85q0 -25 -25 -25
h-425q-25 0 -25 25v70q0 28 7 41t28 34z" />
    <glyph glyph-name="three.tab" horiz-adv-x="665" 
d="M230 330v42q0 33 20 53l125 130v10h-240q-25 0 -25 25v85q0 25 25 25h405q25 0 25 -25v-60q0 -14 -3.5 -24.5t-8 -16t-13.5 -14.5l-125 -130v-10q82 0 121 -38t39 -117v-120q0 -155 -155 -155h-175q-83 0 -119 37.5t-36 117.5v60q0 25 25 25h100q25 0 25 -25v-30
q0 -23 14 -36.5t36 -13.5h85q23 0 36.5 13.5t13.5 36.5v80q0 23 -13.5 36.5t-36.5 13.5h-120q-25 0 -25 25z" />
    <glyph glyph-name="four.tab" horiz-adv-x="665" 
d="M595 265v-85q0 -25 -25 -25h-40v-130q0 -25 -25 -25h-100q-25 0 -25 25v130h-285q-25 0 -25 25v70q0 18 3.5 26t16.5 29l235 370q9 13 18.5 19t31.5 6h130q25 0 25 -25v-385h40q25 0 25 -25zM370 520l-140 -220v-10h150v230h-10z" />
    <glyph glyph-name="five.tab" horiz-adv-x="665" 
d="M265 565v-125h150q155 0 155 -155v-140q0 -155 -155 -155h-170q-155 0 -155 155v55q0 25 25 25h100q25 0 25 -25v-25q0 -23 14 -36.5t36 -13.5h80q22 0 36 13.5t14 36.5v80q0 23 -14 36.5t-36 13.5h-230q-25 0 -25 25v345q0 25 25 25h380q25 0 25 -25v-85q0 -25 -25 -25
h-255z" />
    <glyph glyph-name="six.tab" horiz-adv-x="665" 
d="M560 555v-50q0 -25 -25 -25h-100q-25 0 -25 25v20q0 23 -14 36.5t-36 13.5h-65q-23 0 -36.5 -13.5t-13.5 -36.5v-100h170q155 0 155 -155v-125q0 -155 -155 -155h-165q-155 0 -155 155v410q0 155 155 155h155q155 0 155 -155zM295 125h75q22 0 36 13.5t14 36.5v65
q0 22 -14 36t-36 14h-125v-115q0 -23 13.5 -36.5t36.5 -13.5z" />
    <glyph glyph-name="seven.tab" horiz-adv-x="665" 
d="M560 675v-50q0 -16 -1 -27.5t-3 -20.5t-3 -13t-4 -10.5t-4 -8.5l-195 -520q-10 -25 -30 -25h-110q-8 0 -13.5 7.5t-1.5 17.5l200 530v10h-270q-25 0 -25 25v85q0 25 25 25h410q25 0 25 -25z" />
    <glyph glyph-name="eight.tab" horiz-adv-x="665" 
d="M570 555v-85q0 -25 -8 -44.5t-20 -29.5t-24 -16.5t-20 -7.5l-8 -2v-10q4 0 10 -1.5t21.5 -9t27.5 -19.5t21.5 -35.5t9.5 -54.5v-95q0 -155 -155 -155h-185q-155 0 -155 155v95q0 31 9.5 54.5t22.5 35.5t26 19.5t23 8.5l9 2v10q-3 0 -8.5 1.5t-19.5 8t-24.5 16.5t-19 29.5
t-8.5 44.5v85q0 155 155 155h165q155 0 155 -155zM380 290h-95q-23 0 -36.5 -14t-13.5 -36v-65q0 -23 13.5 -36.5t36.5 -13.5h95q22 0 36 13.5t14 36.5v65q0 22 -14 36t-36 14zM370 575h-75q-23 0 -36.5 -13.5t-13.5 -36.5v-55q0 -22 13.5 -36t36.5 -14h75q22 0 36 14t14 36
v55q0 23 -14 36.5t-36 13.5z" />
    <glyph glyph-name="nine.tab" horiz-adv-x="665" 
d="M105 145v50q0 25 25 25h100q25 0 25 -25v-20q0 -23 13.5 -36.5t36.5 -13.5h65q22 0 36 13.5t14 36.5v100h-170q-155 0 -155 155v125q0 155 155 155h165q155 0 155 -155v-410q0 -155 -155 -155h-155q-155 0 -155 155zM370 575h-75q-23 0 -36.5 -13.5t-13.5 -36.5v-65
q0 -22 13.5 -36t36.5 -14h125v115q0 23 -14 36.5t-36 13.5z" />
    <glyph glyph-name="at.cap" horiz-adv-x="895" 
d="M400 375v-130q0 -30 30 -30h40q30 0 30 30v130q0 30 -30 30h-40q-30 0 -30 -30zM675 105h-140q-25 0 -25 25v5h-10q-1 -4 -3 -10t-17.5 -15.5t-39.5 -9.5h-50q-52 0 -81 29t-29 81v200q0 52 29 81t81 29h40q24 0 39 -9t18 -17l3 -9h10v5q0 25 25 25h70q25 0 25 -25v-270
h40q22 0 36 14t14 36v310q0 22 -14 36t-36 14h-415q-23 0 -36.5 -14t-13.5 -36v-540q0 -22 13.5 -36t36.5 -14h460q25 0 25 -25v-65q0 -25 -25 -25h-475q-155 0 -155 155v560q0 155 155 155h445q155 0 155 -155v-330q0 -155 -155 -155z" />
    <glyph glyph-name="parenleft.cap" horiz-adv-x="360" 
d="M75 55v550q0 175 175 175h55q25 0 25 -25v-80q0 -25 -25 -25h-20q-30 0 -47.5 -17.5t-17.5 -47.5v-510q0 -30 17.5 -47.5t47.5 -17.5h20q25 0 25 -25v-80q0 -25 -25 -25h-55q-175 0 -175 175z" />
    <glyph glyph-name="parenright.cap" horiz-adv-x="360" 
d="M285 605v-550q0 -175 -175 -175h-55q-25 0 -25 25v80q0 25 25 25h20q30 0 47.5 17.5t17.5 47.5v510q0 30 -17.5 47.5t-47.5 17.5h-20q-25 0 -25 25v80q0 25 25 25h55q175 0 175 -175z" />
    <glyph glyph-name="bracketleft.cap" horiz-adv-x="345" 
d="M220 650v-640h75q25 0 25 -25v-80q0 -25 -25 -25h-195q-25 0 -25 25v850q0 25 25 25h195q25 0 25 -25v-80q0 -25 -25 -25h-75z" />
    <glyph glyph-name="bracketright.cap" horiz-adv-x="345" 
d="M125 10v640h-75q-25 0 -25 25v80q0 25 25 25h195q25 0 25 -25v-850q0 -25 -25 -25h-195q-25 0 -25 25v80q0 25 25 25h75z" />
    <glyph glyph-name="braceleft.cap" horiz-adv-x="375" 
d="M30 290v80q0 25 25 25q60 0 60 60v150q0 175 175 175h35q25 0 25 -25v-80q0 -25 -25 -25q-30 0 -47.5 -17.5t-17.5 -47.5v-165q0 -21 -6.5 -37.5t-16 -25t-19.5 -14t-16 -7.5l-7 -1v-10q3 0 7 -1.5t15.5 -7t20 -14t15.5 -25t7 -37.5v-165q0 -30 17.5 -47.5t47.5 -17.5
q25 0 25 -25v-80q0 -25 -25 -25h-35q-175 0 -175 175v150q0 60 -60 60q-25 0 -25 25z" />
    <glyph glyph-name="braceright.cap" horiz-adv-x="375" 
d="M345 370v-80q0 -25 -25 -25q-60 0 -60 -60v-150q0 -175 -175 -175h-35q-25 0 -25 25v80q0 25 25 25q30 0 47.5 17.5t17.5 47.5v165q0 33 16.5 54.5t32.5 25.5l16 5v10q-3 0 -7 1.5t-15.5 7t-20 14t-15.5 25t-7 37.5v165q0 30 -17.5 47.5t-47.5 17.5q-25 0 -25 25v80
q0 25 25 25h35q175 0 175 -175v-150q0 -60 60 -60q25 0 25 -25z" />
    <glyph glyph-name="exclamdown.cap" horiz-adv-x="280" 
d="M180 565h-80q-25 0 -25 25v85q0 25 25 25h80q25 0 25 -25v-85q0 -25 -25 -25zM65 25v265l25 170q3 25 30 25h40q27 0 30 -25l25 -170v-265q0 -25 -25 -25h-100q-25 0 -25 25z" />
    <glyph glyph-name="questiondown.cap" horiz-adv-x="550" 
d="M520 190v-45q0 -155 -155 -155h-165q-155 0 -155 155v135q0 155 155 155h30l5 25q5 25 30 25h40q27 0 30 -25l20 -120v-10q0 -25 -25 -25h-85q-23 0 -36.5 -13.5t-13.5 -36.5v-80q0 -23 13.5 -36.5t36.5 -13.5h75q22 0 36 13.5t14 36.5v15q0 25 25 25h100q25 0 25 -25z
M325 565h-80q-25 0 -25 25v85q0 25 25 25h80q25 0 25 -25v-85q0 -25 -25 -25z" />
    <glyph glyph-name="guillemotleft.cap" horiz-adv-x="484" 
d="M260 495l-100 -190l100 -190q6 -11 1.5 -18t-16.5 -7h-80q-22 0 -35 25l-100 190l100 190q13 25 35 25h80q12 0 16.5 -7t-1.5 -18zM450 495l-100 -190l100 -190q6 -11 1.5 -18t-16.5 -7h-80q-22 0 -35 25l-100 190l100 190q13 25 35 25h80q12 0 16.5 -7t-1.5 -18z" />
    <glyph glyph-name="guillemotright.cap" horiz-adv-x="484" 
d="M324 305l-100 190q-6 11 -1.5 18t16.5 7h80q22 0 35 -25l100 -190l-100 -190q-13 -25 -35 -25h-80q-12 0 -16.5 7t1.5 18zM134 305l-100 190q-6 11 -1.5 18t16.5 7h80q22 0 35 -25l100 -190l-100 -190q-13 -25 -35 -25h-80q-12 0 -16.5 7t1.5 18z" />
    <glyph glyph-name="guilsinglleft.cap" horiz-adv-x="309" 
d="M145 90l-115 215l115 215q9 16 15 20.5t20 4.5h80q12 0 16.5 -7t-1.5 -18l-115 -215l115 -215q6 -11 1.5 -18t-16.5 -7h-80q-14 0 -20 4.5t-15 20.5z" />
    <glyph glyph-name="guilsinglright.cap" horiz-adv-x="309" 
d="M279 305l-115 -215q-9 -16 -15 -20.5t-20 -4.5h-80q-12 0 -16.5 7t1.5 18l115 215l-115 215q-6 11 -1.5 18t16.5 7h80q14 0 20 -4.5t15 -20.5z" />
    <glyph glyph-name="hyphen.cap" horiz-adv-x="395" 
d="M345 300h-295q-25 0 -25 25v75q0 25 25 25h295q25 0 25 -25v-75q0 -25 -25 -25z" />
    <glyph glyph-name="endash.cap" horiz-adv-x="530" 
d="M480 295h-430q-25 0 -25 25v70q0 25 25 25h430q25 0 25 -25v-70q0 -25 -25 -25z" />
    <glyph glyph-name="emdash.cap" horiz-adv-x="695" 
d="M645 295h-595q-25 0 -25 25v70q0 25 25 25h595q25 0 25 -25v-70q0 -25 -25 -25z" />
    <glyph glyph-name="periodcentered.cap" horiz-adv-x="200" 
d="M60 415h80q25 0 25 -25v-85q0 -25 -25 -25h-80q-25 0 -25 25v85q0 25 25 25z" />
    </font>
</defs>
</svg>
